<?xml version="1.0" encoding="UTF-8" standalone="no"?>
<svg
   viewBox="0 0 722.32996 450.24948"
   version="1.1"
   id="svg67"
   sodipodi:docname="donations.svg"
   width="722.32996"
   height="450.24948"
   inkscape:version="1.4 (86a8ad7, 2024-10-11)"
   xmlns:inkscape="http://www.inkscape.org/namespaces/inkscape"
   xmlns:sodipodi="http://sodipodi.sourceforge.net/DTD/sodipodi-0.dtd"
   xmlns="http://www.w3.org/2000/svg"
   xmlns:svg="http://www.w3.org/2000/svg">
  <defs
     id="defs67" />
  <sodipodi:namedview
     id="namedview67"
     pagecolor="#505050"
     bordercolor="#eeeeee"
     borderopacity="1"
     inkscape:showpageshadow="0"
     inkscape:pageopacity="0"
     inkscape:pagecheckerboard="0"
     inkscape:deskcolor="#d1d1d1"
     inkscape:zoom="1.1129861"
     inkscape:cx="347.71325"
     inkscape:cy="154.53922"
     inkscape:window-width="1920"
     inkscape:window-height="1001"
     inkscape:window-x="-9"
     inkscape:window-y="-9"
     inkscape:window-maximized="1"
     inkscape:current-layer="svg67" />
  <rect
     style="fill:#999999;stroke-width:0.147402"
     id="rect67"
     width="841.87933"
     height="534.5979"
     x="-57.502964"
     y="-43.127224" />
  <g
     id="freepik--background-simple--inject-36"
     transform="translate(-15.530001,-31.82068)">
    <path
       d="m 693.45,214.3 a 68.8,68.8 0 0 0 -20,-24.59 C 637.59,161.77 469.77,34.48 387.2,31.84 c -92.76,-3 -396.27,344.33 -368.07,377 28.2,32.67 377,81.62 417.79,72 40.79,-9.62 233,-194.14 250.82,-215.2 15.68,-18.53 12.19,-37.64 5.71,-51.34 z"
       style="fill:#f4ad7f"
       id="path1" />
    <path
       d="m 693.45,214.3 a 68.8,68.8 0 0 0 -20,-24.59 C 637.59,161.77 469.77,34.48 387.2,31.84 c -92.76,-3 -396.27,344.33 -368.07,377 28.2,32.67 377,81.62 417.79,72 40.79,-9.62 233,-194.14 250.82,-215.2 15.68,-18.53 12.19,-37.64 5.71,-51.34 z"
       style="opacity:0.7;fill:#ffffff"
       id="path2" />
  </g>
  <g
     id="freepik--Clouds--inject-36"
     transform="translate(-15.530001,-31.82068)">
    <path
       d="m 661.77,139.44 c 0,0 -6.68,-32.65 -28.95,-30.42 -10.12,1 -16.89,6.08 -22.76,14 -7.53,10.11 -10.23,4.23 -21,7.55 -9.64,3 -8.16,11.13 -14.1,12.61 -5.94,1.48 -10.38,-5.19 -18.55,-3.71 -8.17,1.48 -12.61,9.65 -12.61,9.65 H 692.19 A 14.38,14.38 0 0 0 681.8,137.25 c -9.64,-3 -14.1,4.42 -20.03,2.19 z"
       style="opacity:0.3;fill:none;stroke:#000000;stroke-miterlimit:10"
       id="path3" />
    <path
       d="m 207.28,70.47 c 0,0 -4.56,-22.32 -19.78,-20.79 -6.92,0.69 -11.54,4.16 -15.55,9.54 -5.15,6.91 -7,2.89 -14.36,5.16 C 151,66.41 152,72 148,73 c -4,1 -7.1,-3.55 -12.67,-2.53 -5.57,1.02 -8.62,6.59 -8.62,6.59 H 228.07 A 9.81,9.81 0 0 0 221,69 c -6.62,-2.08 -9.66,3 -13.72,1.47 z"
       style="opacity:0.3;fill:none;stroke:#000000;stroke-miterlimit:10"
       id="path4" />
  </g>
  <g
     id="freepik--Money--inject-36"
     transform="translate(-15.530001,-31.82068)">
    <g
       style="opacity:0.3"
       id="g5">
      <rect
         x="517.94"
         y="39.720001"
         width="47.919998"
         height="82.959999"
         transform="rotate(-64.54,541.87461,81.209712)"
         style="fill:none;stroke:#000000;stroke-miterlimit:10"
         id="rect4" />
      <path
         d="m 523.46,51 a 5.78,5.78 0 0 1 -7.7,2.73 4.82,4.82 0 0 1 -0.63,-0.35 L 503.3,78.25 a 5.46,5.46 0 0 1 0.67,0.26 5.79,5.79 0 0 1 2.73,7.71 3.07,3.07 0 0 1 -0.17,0.31 L 560.05,112 c 0,-0.11 0.09,-0.22 0.14,-0.33 a 5.78,5.78 0 0 1 7.7,-2.74 6.44,6.44 0 0 1 0.63,0.36 L 580.35,84.45 A 5.52,5.52 0 0 1 579.68,84.18 5.77,5.77 0 0 1 577,76.5 4.82,4.82 0 0 1 577.35,75.87 L 523.72,50.36 A 5.46,5.46 0 0 1 523.46,51 Z m 27,34.24 a 9.48,9.48 0 1 1 -4.46,-12.6 9.47,9.47 0 0 1 4.46,12.63 z"
         style="fill:none;stroke:#000000;stroke-miterlimit:10"
         id="path5" />
    </g>
    <g
       style="opacity:0.3"
       id="g6">
      <rect
         x="71.980003"
         y="64.220001"
         width="47.919998"
         height="82.959999"
         transform="rotate(-64.54,95.935376,105.69954)"
         style="fill:none;stroke:#000000;stroke-miterlimit:10"
         id="rect5" />
      <path
         d="m 77.5,75.53 a 5.77,5.77 0 0 1 -7.7,2.73 4.82,4.82 0 0 1 -0.63,-0.35 L 57.34,102.75 A 5.52,5.52 0 0 1 58,103 a 5.77,5.77 0 0 1 2.73,7.7 c -0.05,0.11 -0.11,0.21 -0.17,0.32 l 53.52,25.48 0.14,-0.33 a 5.77,5.77 0 0 1 7.7,-2.73 4.82,4.82 0 0 1 0.63,0.35 L 134.39,109 c -0.23,-0.08 -0.45,-0.16 -0.67,-0.26 A 5.78,5.78 0 0 1 131,101 a 4.71,4.71 0 0 1 0.35,-0.62 L 77.76,74.86 a 4.22,4.22 0 0 1 -0.26,0.67 z m 27,34.24 a 9.47,9.47 0 1 1 -4.5,-12.63 9.48,9.48 0 0 1 4.5,12.63 z"
         style="fill:none;stroke:#000000;stroke-miterlimit:10"
         id="path6" />
    </g>
    <g
       style="opacity:0.3"
       id="g7">
      <rect
         x="607.02002"
         y="197.78999"
         width="47.919998"
         height="82.959999"
         transform="rotate(-64.54,630.93699,239.27643)"
         style="fill:none;stroke:#000000;stroke-miterlimit:10"
         id="rect6" />
      <path
         d="m 612.54,209.1 a 5.78,5.78 0 0 1 -7.71,2.74 c -0.22,-0.11 -0.42,-0.23 -0.62,-0.35 l -11.83,24.84 a 6.16,6.16 0 0 1 0.67,0.26 5.79,5.79 0 0 1 2.73,7.71 l -0.17,0.31 53.52,25.49 a 1.92,1.92 0 0 1 0.14,-0.33 A 5.77,5.77 0 0 1 657,267 c 0.22,0.11 0.43,0.23 0.63,0.35 l 11.82,-24.84 a 6,6 0 0 1 -0.66,-0.26 5.79,5.79 0 0 1 -2.74,-7.71 c 0.11,-0.21 0.23,-0.42 0.36,-0.62 L 612.8,208.44 a 5.32,5.32 0 0 1 -0.26,0.66 z m 27,34.25 a 9.48,9.48 0 1 1 -4.48,-12.63 9.48,9.48 0 0 1 4.47,12.63 z"
         style="fill:none;stroke:#000000;stroke-miterlimit:10"
         id="path7" />
    </g>
    <g
       style="opacity:0.3"
       id="g8">
      <rect
         x="391.81"
         y="82.129997"
         width="47.919998"
         height="82.959999"
         transform="rotate(-125.94,415.77822,123.60448)"
         style="fill:none;stroke:#000000;stroke-miterlimit:10"
         id="rect7" />
      <path
         d="m 380.46,125.36 a 5.78,5.78 0 0 1 -1.29,8.07 4.39,4.39 0 0 1 -0.61,0.38 l 16.15,22.28 a 6.09,6.09 0 0 1 0.55,-0.46 5.79,5.79 0 0 1 8.08,1.29 3,3 0 0 1 0.19,0.3 l 48,-34.8 -0.22,-0.27 a 5.79,5.79 0 0 1 1.28,-8.08 c 0.2,-0.14 0.41,-0.26 0.61,-0.38 L 437,91.42 a 6.37,6.37 0 0 1 -0.55,0.46 5.79,5.79 0 0 1 -8.07,-1.29 A 5.6,5.6 0 0 1 428,90 l -48,34.83 a 5,5 0 0 1 0.46,0.53 z m 43,-7.31 a 9.47,9.47 0 1 1 -13.23,-2.11 9.46,9.46 0 0 1 13.21,2.11 z"
         style="fill:none;stroke:#000000;stroke-miterlimit:10"
         id="path8" />
    </g>
  </g>
  <g
     id="freepik--Plants--inject-36"
     transform="translate(-15.530001,-31.82068)">
    <g
       style="opacity:0.15"
       id="g11">
      <path
         d="m 48.46,203.24 c 6.34,0.21 19.44,-5.35 19.45,-5.35 0.01,0 -6.29,-7.52 -6.75,-7.94 -5.31,-4.91 -18.47,-11.28 -25.52,-7.3 -5.09,2.87 -5.94,9.44 -2.71,14 3.23,4.56 10.13,6.42 15.53,6.59 z"
         id="path9" />
      <path
         d="m 68.26,239.7 c 5.93,-1.41 16.36,-9.53 17.19,-10.18 a 169.27,169.27 0 0 0 15,16.94 c 3.12,3.12 6.36,6.15 9.64,9.15 -1.7,-1.14 -3.23,-2.16 -3.46,-2.28 -6.43,-3.33 -20.8,-6 -26.55,-0.29 -4.15,4.11 -3.23,10.66 1.09,14.23 4.32,3.57 11.46,3.5 16.72,2.24 5.26,-1.26 14.36,-8 16.73,-9.83 l 3.8,3.43 c 6.13,5.44 12.26,10.84 18.11,16.32 2.06,1.93 4,3.91 6,5.88 -1.52,-1 -2.8,-1.86 -3,-2 -6.42,-3.33 -20.79,-6 -26.55,-0.29 -4.15,4.1 -3.23,10.66 1.09,14.22 4.32,3.56 11.46,3.51 16.72,2.25 5.09,-1.21 13.48,-7.36 16.3,-9.5 2,2.08 3.92,4.16 5.72,6.26 1.2,1.46 2.46,2.79 3.58,4.33 l 3.39,4.45 c 2,2.91 4.19,5.9 6.12,8.79 1.36,2 2.61,3.92 3.89,5.87 -2,-2 -6.09,-5.68 -6.47,-6 -5.84,-4.27 -19.64,-9.08 -26.2,-4.31 -4.72,3.43 -4.8,10.05 -1.07,14.23 3.73,4.18 10.8,5.19 16.18,4.75 5.93,-0.49 17.05,-6.63 18.43,-7.4 2.1,3.21 4.1,6.36 5.95,9.37 1.66,2.68 3.2,5.25 4.65,7.7 l 4.72,-1.87 c -1.65,-2.67 -3.41,-5.46 -5.32,-8.4 -2.11,-3.27 -4.43,-6.73 -6.85,-10.26 a 105,105 0 0 0 8.37,-8.94 c 5.51,2.64 17.33,3.59 18.85,3.7 0,3.84 -0.09,7.57 -0.21,11.1 q -0.1,3.63 -0.27,7 l 5,-2 c 0,-1.6 0.06,-3.22 0.07,-4.9 0.05,-3.9 0,-8.07 0,-12.35 1.53,-0.26 14.06,-2.53 19,-5.89 4.46,-3.06 9.28,-8.19 9.55,-13.91 0.27,-5.72 -4,-10.67 -9.82,-10.35 -8.09,0.44 -15.76,12.88 -17.59,19.88 -0.11,0.41 -0.79,5 -1.16,7.94 0,-1.75 -0.06,-3.44 -0.12,-5.24 -0.1,-3.56 -0.3,-7.11 -0.51,-10.93 -0.16,-1.84 -0.32,-3.69 -0.49,-5.57 -0.17,-1.88 -0.49,-3.82 -0.73,-5.75 -0.66,-4.46 -1.53,-8.95 -2.52,-13.45 3.12,-0.1 14.17,-0.58 19.06,-2.94 4.89,-2.36 10.42,-6.69 11.55,-12.3 1.13,-5.61 -2.33,-11.16 -8.14,-11.72 -8.06,-0.79 -17.52,10.35 -20.4,17 -0.18,0.41 -1.71,5.41 -2.49,8.17 -0.62,-2.7 -1.22,-5.4 -1.93,-8.12 -2,-7.83 -4.36,-15.69 -6.63,-23.55 -0.7,-2.41 -1.36,-4.81 -2,-7.22 1.11,0 14.26,-0.32 19.74,-3 4.87,-2.34 10.42,-6.68 11.55,-12.29 1.13,-5.61 -2.33,-11.16 -8.14,-11.72 -8.06,-0.79 -17.53,10.35 -20.4,17 -0.22,0.5 -2.41,7.7 -2.87,9.55 -1.49,-5.3 -2.93,-10.59 -4.13,-15.87 a 168.94,168.94 0 0 1 -3.57,-21.61 c 0.51,0 14.25,-0.25 19.86,-3 4.86,-2.34 10.41,-6.68 11.54,-12.29 1.13,-5.61 -2.33,-11.16 -8.14,-11.73 -8.06,-0.78 -17.52,10.36 -20.4,17 -0.22,0.53 -2.57,8.26 -2.9,9.7 0,-0.42 -0.13,-0.86 -0.16,-1.28 a 123.68,123.68 0 0 1 0.38,-22 c 0.38,-4 1,-7.86 1.62,-11.58 2.57,0.22 14.29,1.08 19.61,-0.8 5.09,-1.8 11.09,-5.5 12.82,-10.95 1.73,-5.45 -1.09,-11.35 -6.8,-12.55 -7.93,-1.66 -18.56,8.37 -22.14,14.65 -0.2,0.34 -1.8,4 -2.92,6.74 0.32,-1.67 0.62,-3.41 1,-5 1.26,-6 2.78,-11.41 4.17,-16.19 0.81,-2.72 1.6,-5.16 2.36,-7.43 2.62,-1.1 13.15,-5.66 16.93,-9.7 3.78,-4.04 7.31,-10 6.34,-15.64 -0.97,-5.64 -6.19,-9.56 -11.82,-8 -7.8,2.18 -12.61,16 -12.9,23.21 0,0.62 0.71,10.44 0.84,10.38 l 0.16,-0.06 c -0.78,2.17 -1.58,4.51 -2.41,7.08 -1.5,4.76 -3.14,10.16 -4.54,16.15 a 171.39,171.39 0 0 0 -3.59,19.55 125.25,125.25 0 0 0 -0.87,22.21 v 0.27 c -0.84,-2.22 -3.39,-8.35 -3.64,-8.8 -3.52,-6.32 -14,-16.47 -22,-14.89 -5.72,1.13 -8.57,7.11 -6.93,12.47 1.64,5.36 7.62,9.24 12.7,11.09 5.73,2.09 18.9,1.08 19.95,1 a 170.53,170.53 0 0 0 3.19,22.43 c 0.89,4.31 1.91,8.63 3,12.94 -0.79,-1.89 -1.51,-3.58 -1.64,-3.81 -3.52,-6.32 -14,-16.47 -22,-14.89 -5.72,1.14 -8.58,7.11 -6.94,12.47 1.64,5.36 7.63,9.24 12.71,11.09 5.08,1.85 16.4,1.25 19.37,1 0.44,1.65 0.85,3.3 1.29,5 2.1,7.92 4.24,15.8 6.1,23.61 0.65,2.75 1.2,5.48 1.75,8.21 -0.7,-1.69 -1.3,-3.1 -1.42,-3.3 -3.52,-6.33 -14,-16.48 -22,-14.9 -5.72,1.14 -8.58,7.12 -6.94,12.48 1.64,5.36 7.63,9.24 12.71,11.09 4.91,1.79 15.3,1.3 18.84,1.07 0.48,2.81 1,5.63 1.32,8.38 0.19,1.88 0.5,3.68 0.59,5.58 0.09,1.9 0.25,3.74 0.37,5.58 0.11,3.56 0.24,7.23 0.26,10.71 0,2.41 0,4.72 0,7 -0.62,-2.74 -2,-8.09 -2.11,-8.52 a 37.17,37.17 0 0 0 -11.34,-15 11.2,11.2 0 0 0 -0.9,-1.92 c -2.88,-4.81 -9.22,-6.7 -13.91,-3.22 -6.5,4.83 -6,19.44 -3.7,26.29 0.14,0.4 2.12,4.62 3.41,7.26 -1,-1.43 -1.95,-2.84 -3,-4.31 -2,-2.91 -4.17,-5.76 -6.45,-8.83 l -3.48,-4.38 c -1.14,-1.48 -2.52,-2.91 -3.79,-4.39 -3,-3.36 -6.21,-6.62 -9.52,-9.83 2.55,-1.8 11.5,-8.3 14.28,-13 2.78,-4.7 5,-11.32 2.85,-16.62 -2.15,-5.3 -8.1,-8 -13.26,-5.29 -7.16,3.79 -8.9,18.3 -7.64,25.42 0.08,0.45 1.56,5.46 2.43,8.2 -2,-1.92 -4,-3.84 -6.08,-5.71 -6,-5.41 -12.3,-10.69 -18.53,-16 -1.91,-1.62 -3.79,-3.26 -5.68,-4.89 0.91,-0.63 11.72,-8.14 14.83,-13.36 2.77,-4.64 5,-11.33 2.85,-16.63 -2.15,-5.3 -8.1,-8 -13.26,-5.29 -7.16,3.8 -8.91,18.31 -7.64,25.43 0.09,0.54 2.23,7.74 2.87,9.55 -4.16,-3.6 -8.28,-7.23 -12.19,-11 A 170.33,170.33 0 0 1 87.24,228.48 c 0.43,-0.3 11.74,-8.08 14.93,-13.43 2.77,-4.64 5,-11.32 2.85,-16.62 -2.15,-5.3 -8.1,-8 -13.25,-5.29 -7.17,3.79 -8.91,18.3 -7.65,25.42 0.1,0.56 2.41,8.31 2.93,9.69 -0.27,-0.33 -0.58,-0.64 -0.84,-1 A 122.7,122.7 0 0 1 74.37,209 c -1.91,-3.57 -3.53,-7.09 -5,-10.55 2.25,-1.23 12.5,-7 15.9,-11.48 3.26,-4.31 6.22,-10.71 4.66,-16.21 -1.56,-5.5 -7.17,-8.86 -12.59,-6.71 -7.54,3 -10.87,17.21 -10.4,24.43 0,0.39 0.73,4.35 1.29,7.23 -0.66,-1.57 -1.36,-3.18 -2,-4.7 -2.26,-5.7 -4,-11 -5.45,-15.81 -0.82,-2.71 -1.51,-5.18 -2.13,-7.49 1.58,-2.37 7.84,-12 8.77,-17.44 0.93,-5.44 0.58,-12.36 -3.34,-16.53 -3.92,-4.17 -10.44,-4.56 -14.27,-0.16 -5.31,6.12 -1.71,20.29 2,26.48 0.32,0.53 6.35,8.31 6.43,8.19 l 0.1,-0.14 c 0.55,2.24 1.17,4.64 1.89,7.24 1.38,4.8 3,10.2 5.13,16 a 168.4,168.4 0 0 0 7.79,18.29 124.53,124.53 0 0 0 11.53,19 l 0.17,0.21 c -1.93,-1.39 -7.44,-5.09 -7.9,-5.33 -6.42,-3.33 -20.79,-6 -26.54,-0.29 -4.15,4.11 -3.24,10.66 1.09,14.23 4.33,3.57 11.5,3.54 16.76,2.24 z"
         id="path10" />
      <path
         d="m 183.27,152.93 c 0.15,0 -1.09,-9.74 -1.24,-10.34 -1.73,-7 -9.19,-19.6 -17.27,-20.17 -5.82,-0.42 -10.15,4.6 -10,10.19 0.15,5.59 4.91,10.93 9.32,14.06 5.19,3.67 19.18,6.26 19.19,6.26 z"
         id="path11" />
    </g>
    <g
       style="opacity:0.15"
       id="g14">
      <path
         d="m 391.47,307.27 c 7.34,0.24 22.5,-6.19 22.52,-6.2 0.02,-0.01 -7.28,-8.7 -7.81,-9.19 -6.16,-5.69 -21.39,-13.06 -29.56,-8.45 -5.89,3.32 -6.87,10.92 -3.13,16.22 3.74,5.3 11.72,7.42 17.98,7.62 z"
         id="path12" />
      <path
         d="m 539.87,454.51 0.58,1 h 6.63 c -0.81,-1.29 -1.65,-2.59 -2.51,-3.93 -2.45,-3.79 -5.14,-7.8 -7.94,-11.88 a 121.74,121.74 0 0 0 9.69,-10.35 c 6.38,3.05 20.06,4.15 21.83,4.28 0,4.45 -0.11,8.77 -0.24,12.85 -0.09,2.81 -0.2,5.5 -0.32,8.1 l 5.79,-2.3 c 0,-1.85 0.07,-3.73 0.09,-5.69 0,-4.51 0,-9.33 -0.07,-14.29 1.78,-0.31 16.28,-2.92 22,-6.82 5.16,-3.54 10.75,-9.49 11.06,-16.1 0.31,-6.61 -4.62,-12.36 -11.38,-12 -9.36,0.51 -18.24,14.92 -20.36,23 -0.13,0.48 -0.91,5.82 -1.35,9.19 0,-2 -0.07,-4 -0.14,-6.07 -0.11,-4.12 -0.34,-8.23 -0.58,-12.65 q -0.29,-3.19 -0.57,-6.45 c -0.14,-2.16 -0.57,-4.42 -0.85,-6.66 -0.76,-5.16 -1.77,-10.36 -2.91,-15.57 3.6,-0.11 16.41,-0.68 22.07,-3.41 5.66,-2.73 12.06,-7.74 13.37,-14.23 1.31,-6.49 -2.7,-12.92 -9.42,-13.58 -9.34,-0.91 -20.3,12 -23.63,19.67 -0.21,0.48 -2,6.27 -2.89,9.46 -0.71,-3.12 -1.4,-6.25 -2.22,-9.39 -2.37,-9.07 -5.05,-18.18 -7.68,-27.28 -0.81,-2.78 -1.58,-5.57 -2.36,-8.35 1.28,0 16.51,-0.37 22.85,-3.43 5.64,-2.71 12.07,-7.74 13.37,-14.23 1.3,-6.49 -2.69,-12.92 -9.42,-13.58 -9.34,-0.91 -20.29,12 -23.62,19.67 -0.25,0.58 -2.79,8.91 -3.33,11.06 -1.72,-6.14 -3.38,-12.27 -4.77,-18.38 a 194.73,194.73 0 0 1 -4.14,-25 c 0.59,0 16.5,-0.29 23,-3.42 5.64,-2.72 12.06,-7.75 13.37,-14.24 1.31,-6.49 -2.69,-12.92 -9.42,-13.57 -9.34,-0.92 -20.29,12 -23.63,19.67 -0.26,0.6 -3,9.56 -3.36,11.22 0,-0.49 -0.14,-1 -0.18,-1.48 a 142.53,142.53 0 0 1 0.44,-25.41 c 0.44,-4.67 1.12,-9.11 1.88,-13.41 3,0.25 16.54,1.24 22.7,-0.93 5.9,-2.08 12.84,-6.37 14.84,-12.68 2,-6.31 -1.25,-13.13 -7.87,-14.53 -9.18,-1.93 -21.48,9.69 -25.64,17 -0.22,0.4 -2.08,4.67 -3.38,7.81 0.37,-1.94 0.72,-3.94 1.11,-5.79 1.46,-7 3.23,-13.21 4.83,-18.75 0.94,-3.14 1.85,-6 2.74,-8.6 3,-1.27 15.22,-6.56 19.6,-11.23 4.38,-4.67 8.47,-11.58 7.34,-18.1 -1.13,-6.52 -7.17,-11.08 -13.68,-9.27 -9,2.52 -14.61,18.5 -14.94,26.87 0,0.72 0.81,12.09 1,12 l 0.19,-0.07 c -0.9,2.51 -1.83,5.22 -2.8,8.2 -1.73,5.51 -3.63,11.76 -5.25,18.7 a 199.17,199.17 0 0 0 -4.16,22.63 145.47,145.47 0 0 0 -1,25.72 c 0,0.1 0,0.21 0,0.31 -1,-2.57 -3.93,-9.67 -4.22,-10.19 -4.07,-7.32 -16.25,-19.07 -25.45,-17.24 -6.63,1.32 -9.93,8.24 -8,14.44 1.93,6.2 8.83,10.7 14.7,12.84 6.63,2.43 21.89,1.25 23.1,1.15 a 197.82,197.82 0 0 0 3.7,26 c 1,5 2.21,10 3.47,15 -0.92,-2.2 -1.75,-4.16 -1.89,-4.42 -4.08,-7.32 -16.25,-19.07 -25.46,-17.24 -6.63,1.32 -9.93,8.24 -8,14.44 1.93,6.2 8.83,10.7 14.71,12.84 5.88,2.14 19,1.44 22.44,1.2 0.5,1.91 1,3.83 1.48,5.74 2.44,9.16 4.92,18.29 7.07,27.33 0.76,3.18 1.39,6.34 2,9.5 -0.81,-1.94 -1.51,-3.58 -1.65,-3.82 -4.07,-7.32 -16.24,-19.07 -25.45,-17.24 -6.63,1.32 -9.93,8.24 -8,14.44 1.93,6.2 8.83,10.7 14.71,12.84 5.69,2.08 17.72,1.51 21.82,1.24 0.56,3.26 1.12,6.52 1.52,9.7 0.22,2.18 0.58,4.26 0.69,6.47 0.11,2.21 0.29,4.33 0.43,6.46 0.12,4.12 0.28,8.37 0.3,12.4 0,2.79 0,5.46 0,8.15 -0.72,-3.18 -2.26,-9.37 -2.44,-9.87 a 43.16,43.16 0 0 0 -13.13,-17.35 13.66,13.66 0 0 0 -1.05,-2.22 c -3.33,-5.57 -10.68,-7.76 -16.1,-3.73 -7.53,5.59 -7,22.51 -4.29,30.44 0.16,0.47 2.45,5.35 4,8.41 -1.16,-1.66 -2.26,-3.29 -3.46,-5 -2.37,-3.37 -4.83,-6.67 -7.47,-10.23 l -4,-5.07 c -1.31,-1.72 -2.91,-3.37 -4.38,-5.08 -3.48,-3.89 -7.19,-7.67 -11,-11.38 2.95,-2.08 13.32,-9.62 16.53,-15 3.21,-5.38 5.79,-13.11 3.3,-19.25 -2.49,-6.14 -9.37,-9.29 -15.35,-6.12 -8.29,4.39 -10.31,21.19 -8.85,29.44 0.09,0.51 1.81,6.31 2.81,9.48 -2.32,-2.22 -4.62,-4.44 -7,-6.61 -7,-6.26 -14.23,-12.38 -21.45,-18.51 -2.21,-1.88 -4.39,-3.77 -6.58,-5.67 1.06,-0.73 13.57,-9.42 17.18,-15.46 3.2,-5.38 5.79,-13.12 3.29,-19.25 -2.5,-6.13 -9.37,-9.29 -15.34,-6.13 -8.29,4.4 -10.32,21.19 -8.86,29.44 0.11,0.62 2.59,9 3.33,11.06 -4.82,-4.17 -9.59,-8.37 -14.12,-12.69 a 196.91,196.91 0 0 1 -17.26,-18.59 c 0.5,-0.34 13.6,-9.35 17.29,-15.54 3.21,-5.38 5.79,-13.11 3.3,-19.25 -2.49,-6.14 -9.38,-9.29 -15.35,-6.12 -8.29,4.39 -10.31,21.19 -8.85,29.43 0.11,0.65 2.79,9.63 3.39,11.22 -0.31,-0.38 -0.67,-0.74 -1,-1.13 A 143.55,143.55 0 0 1 421.47,314 c -2.21,-4.14 -4.09,-8.21 -5.83,-12.22 2.61,-1.43 14.48,-8.09 18.42,-13.29 3.77,-5 7.19,-12.4 5.39,-18.77 -1.8,-6.37 -8.3,-10.27 -14.58,-7.78 -8.73,3.46 -12.58,19.93 -12,28.29 0,0.46 0.85,5 1.49,8.38 -0.76,-1.82 -1.58,-3.69 -2.27,-5.45 -2.61,-6.59 -4.6,-12.79 -6.31,-18.3 -0.95,-3.14 -1.75,-6 -2.46,-8.68 1.83,-2.74 9.08,-13.87 10.15,-20.19 1.05,-6.17 0.67,-14.32 -3.86,-19.14 -4.53,-4.82 -12.1,-5.28 -16.53,-0.18 -6.15,7.09 -2,23.49 2.36,30.65 0.38,0.62 7.35,9.63 7.45,9.49 l 0.11,-0.16 c 0.64,2.59 1.35,5.37 2.2,8.38 1.59,5.55 3.45,11.82 5.93,18.49 a 196.55,196.55 0 0 0 9,21.17 144.78,144.78 0 0 0 13.35,22 l 0.2,0.24 c -2.23,-1.61 -8.62,-5.89 -9.14,-6.17 -7.44,-3.86 -24.08,-6.94 -30.74,-0.34 -4.8,4.76 -3.74,12.35 1.26,16.48 5,4.13 13.27,4.05 19.36,2.6 6.86,-1.64 18.94,-11 19.9,-11.79 a 196.17,196.17 0 0 0 17.4,19.62 c 3.61,3.6 7.36,7.11 11.16,10.59 -2,-1.33 -3.74,-2.5 -4,-2.64 -7.44,-3.86 -24.07,-6.94 -30.74,-0.34 -4.8,4.75 -3.74,12.35 1.27,16.47 5.01,4.12 13.26,4.06 19.35,2.6 6.09,-1.46 16.63,-9.27 19.37,-11.38 1.48,1.32 2.93,2.65 4.41,4 7.09,6.3 14.19,12.55 21,18.9 2.39,2.23 4.66,4.52 6.94,6.81 -1.76,-1.18 -3.24,-2.16 -3.48,-2.29 -7.44,-3.85 -24.08,-6.94 -30.74,-0.34 -4.81,4.76 -3.74,12.35 1.26,16.48 5,4.13 13.27,4.05 19.36,2.6 5.89,-1.41 15.61,-8.52 18.87,-11 2.27,2.41 4.54,4.82 6.63,7.26 1.39,1.69 2.84,3.23 4.14,5 l 3.92,5.15 c 2.38,3.37 4.85,6.83 7.09,10.18 1.57,2.31 3,4.54 4.5,6.79 -2.35,-2.25 -7.05,-6.57 -7.48,-6.88 -6.77,-4.94 -22.75,-10.51 -30.34,-5 -5.47,4 -5.57,11.65 -1.24,16.48 4.33,4.83 12.5,6 18.73,5.5 6.87,-0.56 19.74,-7.67 21.34,-8.57 2.37,3.69 4.69,7.3 6.83,10.81 z"
         id="path13" />
      <path
         d="m 547.56,249 c 0.17,0 -1.27,-11.28 -1.44,-12 -2,-8.14 -10.64,-22.69 -20,-23.35 -6.75,-0.48 -11.76,5.32 -11.56,11.8 0.2,6.48 5.69,12.65 10.79,16.28 6,4.27 22.2,7.27 22.21,7.27 z"
         id="path14" />
    </g>
  </g>
  <g
     id="freepik--Stairs--inject-36"
     transform="translate(-15.530001,-31.82068)">
    <rect
       x="55.34"
       y="338.48999"
       width="115.86"
       height="22.67"
       style="fill:#ffffff;stroke:#263238;stroke-linecap:round;stroke-linejoin:round"
       id="rect14" />
    <rect
       x="87.419998"
       y="314.67001"
       width="115.86"
       height="23.82"
       style="fill:#ffffff;stroke:#263238;stroke-linecap:round;stroke-linejoin:round"
       id="rect15" />
    <rect
       x="119.51"
       y="290.84"
       width="115.86"
       height="23.82"
       style="fill:#ffffff;stroke:#263238;stroke-linecap:round;stroke-linejoin:round"
       id="rect16" />
    <rect
       x="151.59"
       y="267.01999"
       width="115.86"
       height="23.82"
       style="fill:#ffffff;stroke:#263238;stroke-linecap:round;stroke-linejoin:round"
       id="rect17" />
    <polygon
       points="267.46,267.02 267.46,290.84 235.37,290.84 235.37,314.67 203.29,314.67 203.29,338.49 171.2,338.49 171.2,455.47 300.73,455.47 300.73,267.02 "
       style="fill:#263238;stroke:#263238;stroke-linecap:round;stroke-linejoin:round"
       id="polygon17" />
    <rect
       x="184.87"
       y="432.79001"
       width="115.86"
       height="22.67"
       style="fill:#ffffff;stroke:#263238;stroke-linecap:round;stroke-linejoin:round"
       id="rect18" />
    <rect
       x="152.78"
       y="408.97"
       width="115.86"
       height="23.82"
       transform="rotate(180,210.715,420.88)"
       style="fill:#ffffff;stroke:#263238;stroke-linecap:round;stroke-linejoin:round"
       id="rect19" />
    <rect
       x="120.69"
       y="385.14001"
       width="115.86"
       height="23.83"
       transform="rotate(180,178.625,397.055)"
       style="fill:#ffffff;stroke:#263238;stroke-linecap:round;stroke-linejoin:round"
       id="rect20" />
    <rect
       x="88.610001"
       y="361.32001"
       width="115.86"
       height="23.82"
       transform="rotate(180,146.54,373.23)"
       style="fill:#ffffff;stroke:#263238;stroke-linecap:round;stroke-linejoin:round"
       id="rect21" />
    <polygon
       points="88.61,361.32 88.61,385.14 120.69,385.14 120.69,408.97 152.78,408.97 152.78,432.79 184.87,432.79 184.87,455.47 55.34,455.47 55.34,361.32 "
       style="fill:#263238;stroke:#263238;stroke-linecap:round;stroke-linejoin:round"
       id="polygon21" />
  </g>
  <g
     id="freepik--character-2--inject-36"
     transform="translate(-15.530001,-31.82068)">
    <path
       d="M 648.54,312.31 641,337 624.28,324.15 a 47.74,47.74 0 0 0 -1,-4.76 c -0.33,-0.78 -2.32,-3.1 -2.77,-4 -0.45,-0.9 -1.1,-0.11 -1.1,0.56 0,0.67 1.55,2.88 1.55,2.88 l -0.78,0.77 -6.2,-2.95 a 0.6,0.6 0 0 0 -0.8,0.3 v 0 a 0.58,0.58 0 0 0 0.18,0.72 l 3.39,2.6 -0.44,0.88 -5.65,-2.32 a 0.57,0.57 0 0 0 -0.75,0.34 v 0 a 0.57,0.57 0 0 0 0.25,0.66 l 5.15,3 -3.36,0.66 a 0.57,0.57 0 0 0 -0.43,0.73 v 0 a 0.58,0.58 0 0 0 0.54,0.39 h 3.47 l -3,1.1 c 0,0 0.39,0.87 1,0.84 l 3.55,-0.17 5.21,0.33 c 0,0 16.93,17.75 17.49,18.29 0.56,0.54 3.88,1.75 4.54,1.09 0.66,-0.66 8.09,-9.64 8.09,-9.64 L 651.3,313.2 c 0,0 -1.1,-2.2 -2.76,-0.89 z"
       style="fill:#ffffff;stroke:#263238;stroke-linecap:round;stroke-linejoin:round"
       id="path21" />
    <path
       d="m 652.54,283.83 c 0,0 -3.23,0.22 -4.75,-5 -1.52,-5.22 2.38,-6.7 4.54,-7.13 2.16,-0.43 2.59,-5.18 6.26,-5.83 3.67,-0.65 7.55,2.38 8.42,5 0.87,2.62 6.48,-1.3 9.71,2.16 3.23,3.46 3,10.14 3,12.52 0,2.38 7.34,2.81 7.34,8.42 0,5.61 -0.87,8.42 -0.44,9.28 0.43,0.86 3.67,18.54 3.67,18.54 H 650 c 0,0 -1.29,-12.92 0.22,-16.16 1.51,-3.24 2.81,-3.46 3.45,-6.48 0.64,-3.02 0,-7.77 -0.43,-9.93 a 53.1,53.1 0 0 1 -0.7,-5.39 z"
       style="fill:#263238;stroke:#263238;stroke-linecap:round;stroke-linejoin:round"
       id="path22" />
    <polygon
       points="650.6,336.29 673.49,338.02 684.28,307.36 671.33,306.29 660.32,306.5 648.23,306.72 "
       style="fill:#263238;stroke:#263238;stroke-linecap:round;stroke-linejoin:round"
       id="polygon22" />
    <path
       d="m 656.43,276.92 c 0,0 -3.24,4.54 -3.89,6.91 A 18.06,18.06 0 0 0 652,292.3 c 0.65,3.24 2.49,8.59 3.78,9 1.29,0.41 4.75,0 4.75,0 l -0.21,5.18 h -1.73 l 0.21,7.77 8.21,0.43 4.32,-8.42 -2.16,-0.43 -1.51,-12.73 c 0,0 2.15,-2.38 2.37,-4.11 a 23,23 0 0 0 0.22,-2.59 c 0,0 -2.59,1.95 -4.75,0 -2.16,-1.95 -2.81,-4.1 -3.46,-6.26 -0.65,-2.16 -1.94,-3.88 -3,-3.88 a 8.42,8.42 0 0 0 -2.61,0.66 z"
       style="fill:#ffffff;stroke:#263238;stroke-linecap:round;stroke-linejoin:round"
       id="path23" />
    <polygon
       points="660.75,303.91 660.53,301.32 664.2,300.02 "
       style="fill:#263238;stroke:#263238;stroke-linecap:round;stroke-linejoin:round"
       id="polygon23" />
    <path
       d="m 650.6,336.29 -2.37,7.56 c 0,0 -8.64,9.28 -10.37,26.55 -1.73,17.27 1.08,34.33 1.95,41.24 0.87,6.91 9.19,37.45 9.19,37.45 h 5.62 c 0,0 -2.08,-28.38 -2.08,-31.19 v -15.76 l 15.87,43.64 5.19,0.22 c 0,0 -2.08,-20.61 -3.37,-29 a 141.07,141.07 0 0 0 -3.65,-16.34 c 0,0 11.42,-22.66 11.42,-38.24 0,-15.58 -3.89,-19 -3.89,-19 l -0.64,-5.4 z"
       style="fill:#bababa;stroke:#263238;stroke-linecap:round;stroke-linejoin:round"
       id="path24" />
    <path
       d="m 657.53,360 c 0.75,-3.37 1.27,-5.59 1.27,-5.59"
       style="fill:none;stroke:#263238;stroke-linecap:round;stroke-linejoin:round"
       id="path25" />
    <path
       d="m 652.54,402.14 c 0,0 -0.86,-4.32 -0.21,-13.6 0.38,-5.48 2.56,-16.36 4.29,-24.36"
       style="fill:none;stroke:#263238;stroke-linecap:round;stroke-linejoin:round"
       id="path26" />
    <path
       d="m 649,449.09 c 0,0 -10.14,4.75 -10.14,5.83 0,1.08 16.19,0 16.19,0 a 7.67,7.67 0 0 0 0.43,-3.24 7.78,7.78 0 0 0 -0.86,-2.59 z"
       style="fill:#ffffff;stroke:#263238;stroke-linecap:round;stroke-linejoin:round"
       id="path27" />
    <path
       d="m 668.41,445.78 c 0,0 -4.74,6.05 -6.26,7.56 -1.52,1.51 -1.08,2.59 0.22,2.59 1.3,0 8.64,-0.43 9.93,-1.29 a 8.41,8.41 0 0 0 1.94,-1.73 L 673.6,446 Z"
       style="fill:#ffffff;stroke:#263238;stroke-linecap:round;stroke-linejoin:round"
       id="path28" />
    <path
       d="m 683,311.25 c 0,0 1.95,28.71 0.22,31.74 -1.73,3.03 -6.69,1.29 -7.12,0 -0.43,-1.29 0.43,-12.53 0.43,-12.53 z"
       style="fill:#ffffff;stroke:#263238;stroke-linecap:round;stroke-linejoin:round"
       id="path29" />
    <rect
       x="549.95001"
       y="248.45"
       width="92.480003"
       height="160.11"
       transform="rotate(-8.29,595.96783,328.38215)"
       style="fill:#f4ad7f;stroke:#263238;stroke-linecap:round;stroke-linejoin:round"
       id="rect29" />
    <path
       d="m 624.82,266.56 a 11.15,11.15 0 0 1 -12.65,-9.43 12.81,12.81 0 0 1 -0.1,-1.38 l -52.55,7.65 a 10.15,10.15 0 0 1 0.3,1.35 11.17,11.17 0 0 1 -9.44,12.65 c -0.23,0 -0.45,0.05 -0.68,0.07 l 16.48,113.2 c 0.23,-0.05 0.45,-0.1 0.68,-0.13 a 11.15,11.15 0 0 1 12.65,9.46 10.69,10.69 0 0 1 0.11,1.38 l 52.54,-7.65 a 9.94,9.94 0 0 1 -0.29,-1.36 11.14,11.14 0 0 1 9.43,-12.64 10.69,10.69 0 0 1 1.38,-0.11 L 626.17,266.27 a 12,12 0 0 1 -1.35,0.29 z m -26,80 a 18.29,18.29 0 1 1 15.46,-20.74 18.29,18.29 0 0 1 -15.46,20.78 z"
       style="fill:#ffffff;stroke:#263238;stroke-linecap:round;stroke-linejoin:round"
       id="path30" />
    <rect
       x="542.08002"
       y="255.17"
       width="92.480003"
       height="160.11"
       transform="matrix(0.97,-0.26,0.26,0.97,-66.65,163.44)"
       style="fill:#f4ad7f;stroke:#263238;stroke-linecap:round;stroke-linejoin:round"
       id="rect30" />
    <path
       d="m 609.54,270.37 a 11.16,11.16 0 0 1 -13.66,-7.89 13.61,13.61 0 0 1 -0.27,-1.36 l -51.29,13.72 a 11.9,11.9 0 0 1 0.45,1.31 11.15,11.15 0 0 1 -7.9,13.66 c -0.22,0.06 -0.45,0.1 -0.67,0.15 l 29.56,110.51 0.66,-0.21 a 11.15,11.15 0 0 1 13.66,7.89 10.9,10.9 0 0 1 0.27,1.36 l 51.29,-13.72 a 11.9,11.9 0 0 1 -0.45,-1.31 11.16,11.16 0 0 1 7.9,-13.66 9.09,9.09 0 0 1 1.36,-0.27 l -29.6,-110.63 a 11.22,11.22 0 0 1 -1.31,0.45 z M 593,352.89 a 18.29,18.29 0 1 1 13,-22.39 18.28,18.28 0 0 1 -13,22.39 z"
       style="fill:#ffffff;stroke:#263238;stroke-linecap:round;stroke-linejoin:round"
       id="path31" />
    <path
       d="m 678,338.24 -32.17,-0.65 c 0,0 -6.48,-2.16 -7.56,-2.16 a 26.05,26.05 0 0 0 -4.46,1.13 0.59,0.59 0 0 0 -0.4,0.68 v 0 a 0.59,0.59 0 0 0 0.68,0.46 l 3.11,-0.54 0.86,0.64 -6.23,4 a 0.6,0.6 0 0 0 -0.2,0.79 v 0 a 0.6,0.6 0 0 0 0.78,0.26 l 4.68,-2.2 0.16,1.18 -5,2.61 a 0.73,0.73 0 0 0 -0.34,0.91 v 0 a 0.74,0.74 0 0 0 0.84,0.44 l 1.83,-0.42 v 0 a 1.72,1.72 0 0 0 1.79,0.57 l 3.41,-1 -2.16,1.38 a 0.62,0.62 0 0 0 -0.09,1 v 0 a 0.62,0.62 0 0 0 0.76,0 l 4.32,-2.95 3.7,-2.36 32.6,5.74 c 0,0 2.75,0.24 3.23,-0.31 0.48,-0.55 1.41,-5.75 1.49,-7.09"
       style="fill:#ffffff;stroke:#263238;stroke-linecap:round;stroke-linejoin:round"
       id="path32" />
    <line
       x1="634.59003"
       y1="345.39001"
       x2="639"
       y2="343.73999"
       style="fill:#ffffff;stroke:#263238;stroke-linecap:round;stroke-linejoin:round"
       id="line32" />
    <path
       d="m 655.43,286.66 c 0,0.74 -0.38,1.35 -0.86,1.35 -0.48,0 -0.86,-0.61 -0.86,-1.35 0,-0.74 0.39,-1.34 0.86,-1.34 0.47,0 0.86,0.6 0.86,1.34 z"
       style="fill:#263238"
       id="path33" />
    <path
       d="m 660.26,287.68 c 0,0.74 -0.39,1.34 -0.86,1.34 -0.47,0 -0.86,-0.6 -0.86,-1.34 0,-0.74 0.39,-1.34 0.86,-1.34 0.47,0 0.86,0.6 0.86,1.34 z"
       style="fill:#263238"
       id="path34" />
    <path
       d="m 653.5,283.61 c 0,0 0.86,-1.08 2.57,0.1"
       style="fill:none;stroke:#263238;stroke-linecap:round;stroke-linejoin:round"
       id="path35" />
    <path
       d="m 658.43,284.25 a 2.43,2.43 0 0 1 3.12,1.29"
       style="fill:none;stroke:#263238;stroke-linecap:round;stroke-linejoin:round"
       id="path36" />
    <path
       d="m 656.29,286.72 a 4.16,4.16 0 0 1 -0.11,1.93 c -0.32,0.75 -1.82,2.14 -1.71,2.47 0.11,0.33 0.85,0.53 0.85,0.53"
       style="fill:none;stroke:#263238;stroke-linecap:round;stroke-linejoin:round"
       id="path37" />
    <path
       d="m 654.36,294.23 c 0,0 3,1.39 5.36,-0.54"
       style="fill:none;stroke:#263238;stroke-linecap:round;stroke-linejoin:round"
       id="path38" />
  </g>
  <g
     id="freepik--character-1--inject-36"
     transform="translate(-15.530001,-31.82068)">
    <circle
       cx="320.62"
       cy="178.00999"
       r="34.459999"
       style="fill:#ffffff;stroke:#263238;stroke-linecap:round;stroke-linejoin:round"
       id="circle38" />
    <circle
       cx="324.10001"
       cy="178.00999"
       r="34.459999"
       style="fill:#ffffff;stroke:#263238;stroke-linecap:round;stroke-linejoin:round"
       id="circle39" />
    <circle
       cx="324.10001"
       cy="178.00999"
       r="29.24"
       transform="rotate(-45,324.10121,178.00288)"
       style="fill:#ffffff;stroke:#263238;stroke-linecap:round;stroke-linejoin:round"
       id="circle40" />
    <path
       d="m 324.43,198.57 v -3.85 q -4.26,-0.16 -6.37,-2.73 -2.11,-2.57 -2.28,-7.66 l 5.84,-1 a 17,17 0 0 0 0.43,3.45 4.29,4.29 0 0 0 1.06,2.07 2.48,2.48 0 0 0 1.82,0.69 1.87,1.87 0 0 0 1.76,-0.83 3.83,3.83 0 0 0 0.47,-1.91 6.11,6.11 0 0 0 -1,-3.53 14.9,14.9 0 0 0 -2.67,-2.88 l -3.51,-3 a 22.84,22.84 0 0 1 -2.16,-2.28 9.51,9.51 0 0 1 -1.51,-2.64 10.12,10.12 0 0 1 -0.56,-3.52 8.08,8.08 0 0 1 2.22,-6.06 9.19,9.19 0 0 1 5.94,-2.47 v -3.68 h 2 v 3.68 a 7.75,7.75 0 0 1 3.66,1 6.12,6.12 0 0 1 2.18,2.23 10.63,10.63 0 0 1 1.07,2.94 21.62,21.62 0 0 1 0.42,3.08 l -5.92,0.87 a 18.85,18.85 0 0 0 -0.25,-2.71 4.1,4.1 0 0 0 -0.74,-1.84 1.91,1.91 0 0 0 -1.66,-0.62 2.11,2.11 0 0 0 -1.76,0.91 3.36,3.36 0 0 0 -0.6,2 4.88,4.88 0 0 0 0.91,3.06 20.42,20.42 0 0 0 2.07,2.23 l 3.44,3 a 22.92,22.92 0 0 1 2.52,2.69 12.64,12.64 0 0 1 1.86,3.21 10.73,10.73 0 0 1 0.71,4 8.89,8.89 0 0 1 -0.89,4 7.33,7.33 0 0 1 -2.57,2.92 8.33,8.33 0 0 1 -3.95,1.33 v 3.89 z"
       style="fill:#ffffff;stroke:#263238;stroke-linecap:round;stroke-linejoin:round"
       id="path40" />
    <path
       d="m 237.54,173.75 1.09,50.52 -0.44,35.92 5.88,-0.87 c 0,0 6.32,-33.75 6.32,-35.71 0,-1.96 3.48,-27 3.48,-27 l 6.53,32.44 3.39,31.13 5.88,-0.87 c 0,0 0.75,-33.75 0.75,-39.84 0,-6.09 -0.3,-45.3 -0.3,-45.3 l -18.43,-4.78 z"
       style="fill:#263238;stroke:#263238;stroke-linecap:round;stroke-linejoin:round"
       id="path41" />
    <path
       d="m 244.07,259.32 c 0,0 8.71,5.66 7.41,7 -1.3,1.34 -8.5,0 -10.46,-0.22 a 6.6,6.6 0 0 1 -2.61,-0.65 l -0.22,-5.23 z"
       style="fill:#ffffff;stroke:#263238;stroke-linecap:round;stroke-linejoin:round"
       id="path42" />
    <path
       d="m 269.67,259.32 c 0,0 8.71,5.66 7.4,7 -1.31,1.34 -8.49,0 -10.45,-0.22 a 6.6,6.6 0 0 1 -2.61,-0.65 l -0.22,-5.23 z"
       style="fill:#ffffff;stroke:#263238;stroke-linecap:round;stroke-linejoin:round"
       id="path43" />
    <path
       d="m 314.56,142.51 7.85,-1.81 c 0,0 7.54,4 8.17,4.57 0.63,0.57 -0.63,0.63 -2,0.63 a 50.9,50.9 0 0 1 -6.37,-1.27 c 0,0 3.29,1 2.76,1.49 a 2.71,2.71 0 0 1 -2.12,0.53 c -0.53,-0.11 -2.55,-0.43 -2.55,-0.43 0,0 -3.5,-0.1 -4.56,-0.32 l -1.06,-0.21 z"
       style="fill:#ffffff;stroke:#263238;stroke-linecap:round;stroke-linejoin:round"
       id="path44" />
    <path
       d="m 263.78,111.38 c 0,0 -17.86,10 -20.16,12.87 -2.3,2.87 -3.07,17.28 -4.61,27.46 a 202.61,202.61 0 0 0 -1.73,22.85 c 0,0 12.87,1.73 20,1.54 a 55.54,55.54 0 0 0 12.87,-1.92 c 0,0 2.5,-12.87 3.07,-14.79 0.57,-1.92 5.19,-25 5.19,-25 l 14.21,11.33 h 21.94 v -3.25 c 0,0 -17.36,-4 -17.55,-4.63 -0.19,-0.63 -14.79,-21.51 -19.21,-24 -4.42,-2.49 -10.94,-4.77 -14.02,-2.46 z"
       style="fill:#f4ad7f;stroke:#263238;stroke-linecap:round;stroke-linejoin:round"
       id="path45" />
    <path
       d="m 265.51,105.81 -3.26,7.87 c 0,0 -1.54,0.39 -1.15,3.46 0.39,3.07 4.22,11.71 5.56,11.52 1.34,-0.19 5.57,-11.66 5.57,-11.66 z"
       style="fill:#ffffff;stroke:#263238;stroke-linecap:round;stroke-linejoin:round"
       id="path46" />
    <polygon
       points="271.27,119.83 267.35,114.5 268.71,124.99 "
       style="fill:#263238;stroke:#263238;stroke-linecap:round;stroke-linejoin:round"
       id="polygon46" />
    <path
       d="m 283.76,101.2 a 4,4 0 0 0 4.6,0.39 c 2.89,-1.35 4.23,-4.23 1.73,-6.53 -2.5,-2.3 -3.84,0.19 -4.61,-2.88 -0.77,-3.07 -3.84,-5.18 -6.48,-4.42 -2.64,0.76 -1.72,1.73 -3.64,2.3 -1.92,0.57 -4.42,-1.15 -6.92,1.35 -2.5,2.5 -2.88,8.45 -3.45,11.14 -0.57,2.69 1.92,3.45 4,3.26 2.08,-0.19 3.84,-4.61 5.57,-6 1.73,-1.39 9.2,1.39 9.2,1.39 z"
       style="fill:#263238;stroke:#263238;stroke-linecap:round;stroke-linejoin:round"
       id="path47" />
    <path
       d="m 265.13,106.58 c 0,0 0.19,4.22 1,5.57 0.81,1.35 4,7.68 5.18,7.68 a 10.49,10.49 0 0 0 3.65,-0.39 c 0.77,-0.38 3.84,-4.41 5.76,-7.87 1.92,-3.46 3.08,-10.37 3.08,-10.37 0,0 -9.22,-5.76 -9.8,-4.61 -0.58,1.15 -0.38,2.88 -1.34,3.07 -0.96,0.19 -3.07,0.39 -3.07,0.39 0,0 0.57,2.69 -0.2,3.26 -0.77,0.57 -2.69,-0.57 -2.69,-0.57 0,0 -2.34,0.38 -1.57,3.84 z"
       style="fill:#ffffff;stroke:#263238;stroke-linecap:round;stroke-linejoin:round"
       id="path48" />
    <path
       d="m 275.81,107.26 c -0.17,0.73 -0.64,1.25 -1,1.16 -0.36,-0.09 -0.6,-0.77 -0.43,-1.5 0.17,-0.73 0.64,-1.26 1.05,-1.16 0.41,0.1 0.57,0.77 0.38,1.5 z"
       style="fill:#263238"
       id="path49" />
    <path
       d="m 280.83,108.66 c -0.18,0.74 -0.64,1.25 -1.05,1.16 -0.41,-0.09 -0.6,-0.77 -0.43,-1.5 0.17,-0.73 0.64,-1.26 1,-1.16 0.36,0.1 0.65,0.77 0.48,1.5 z"
       style="fill:#263238"
       id="path50" />
    <path
       d="m 273.71,104.51 c 0,0 0.76,-0.61 3,0"
       style="fill:none;stroke:#263238;stroke-linecap:round;stroke-linejoin:round"
       id="path51" />
    <path
       d="m 280.08,105.88 a 2.8,2.8 0 0 1 2,1.21"
       style="fill:none;stroke:#263238;stroke-linecap:round;stroke-linejoin:round"
       id="path52" />
    <polyline
       points="278.41 108.61 277.65 112.7 275.23 112.4"
       style="fill:none;stroke:#263238;stroke-linecap:round;stroke-linejoin:round"
       id="polyline52" />
    <path
       d="m 274.47,114.82 c 0,0 -2.28,0 -3,-3.18"
       style="fill:none;stroke:#263238;stroke-linecap:round;stroke-linejoin:round"
       id="path53" />
    <path
       d="m 267.62,104.47 c 0,0 -0.38,-4.42 -2.11,-4.42 -1.73,0 -3.26,4 -2.3,5.76 0.96,1.76 3.45,2.3 3.45,2.3"
       style="fill:#ffffff;stroke:#263238;stroke-linecap:round;stroke-linejoin:round"
       id="path54" />
    <path
       d="m 252.3,127.69 3.33,27.6 28,9.57 0.44,3.24 -37.44,-5.1 -6,-31.06 c -0.73,-3.77 1.21,-7.86 3.9,-10.15 2.69,-2.29 6.91,-2.41 6.91,-2.41"
       style="fill:#f4ad7f;stroke:#263238;stroke-linecap:round;stroke-linejoin:round"
       id="path55" />
    <path
       d="m 283.59,164.86 c 0,0 4.46,-1.25 5,-1.36 0.54,-0.11 3.57,2.24 4.17,2.32 0.6,0.08 1.62,0.27 1.57,1.06 -0.05,0.79 -0.31,1.43 -1.77,0.93 a 17,17 0 0 1 -2.42,-1 48.39,48.39 0 0 0 4.36,3.95 7.48,7.48 0 0 1 1.5,1.24 0.63,0.63 0 0 1 -0.19,1 10.56,10.56 0 0 1 -3.81,1 c -2.14,0 -8,-5.89 -8,-5.89 z"
       style="fill:#ffffff;stroke:#263238;stroke-linecap:round;stroke-linejoin:round"
       id="path56" />
  </g>
  <g
     id="freepik--piggy-bank--inject-36"
     transform="translate(-15.530001,-31.82068)">
    <path
       d="m 458.2,246.76 c 0,0 28.62,-16.14 32.79,-14.58 4.17,1.56 -3.65,33.31 -4.69,35.39 -1.04,2.08 -28.1,-20.81 -28.1,-20.81 z"
       style="fill:#f4ad7f;stroke:#263238;stroke-linecap:round;stroke-linejoin:round"
       id="path57" />
    <path
       d="m 489.42,236.35 c 0,0 -1.24,1.93 -2.82,4.71 -2.76,4.86 -6.54,12.32 -6.54,16.63 0,6.76 4.16,6.24 5.2,1 l 3.64,-15.1"
       style="fill:none;stroke:#263238;stroke-linecap:round;stroke-linejoin:round"
       id="path58" />
    <ellipse
       cx="248.86"
       cy="312.94"
       rx="14.21"
       ry="18.5"
       style="fill:#f4ad7f;stroke:#263238;stroke-linecap:round;stroke-linejoin:round"
       id="ellipse58" />
    <ellipse
       cx="377.66"
       cy="331.06"
       rx="135.39999"
       ry="114.63"
       style="fill:#f4ad7f;stroke:#263238;stroke-linecap:round;stroke-linejoin:round"
       id="ellipse59" />
    <path
       d="m 465.6,410.08 c -23,18.32 -53.9,29.55 -87.94,29.55 -60.75,0 -111.64,-35.77 -124.88,-83.79"
       style="fill:#f4ad7f;stroke:#263238;stroke-width:2px;stroke-linecap:round;stroke-linejoin:round"
       id="path59" />
    <path
       d="m 249.5,334.66 c -0.05,-1.19 -0.07,-2.39 -0.07,-3.6 a 93.72,93.72 0 0 1 8.06,-38"
       style="fill:#f4ad7f;stroke:#263238;stroke-width:2px;stroke-linecap:round;stroke-linejoin:round"
       id="path60" />
    <path
       d="m 337,229.05 a 149.78,149.78 0 0 1 81.5,0"
       style="fill:none;stroke:#263238;stroke-width:5px;stroke-linecap:round;stroke-linejoin:round"
       id="path61" />
    <path
       d="m 505.56,295.68 c 0,0 17.18,-5.73 19.78,-2.6 2.6,3.13 2.6,39.55 0.52,46.32 -2.08,6.77 -16.14,5.2 -26,-2.08 a 20.81,20.81 0 0 1 -8.84,-17.7"
       style="fill:#f4ad7f;stroke:#263238;stroke-linecap:round;stroke-linejoin:round"
       id="path62" />
    <line
       x1="495.14999"
       y1="318.06"
       x2="484.73999"
       y2="319.62"
       style="fill:none;stroke:#263238;stroke-linecap:round;stroke-linejoin:round"
       id="line62" />
    <path
       d="m 492.55,329.51 c 0,0 -2.6,18.22 0.52,18.74 3.12,0.52 8.33,-8.85 8.33,-8.85 0,0 -7.29,-8.33 -8.85,-9.89 z"
       style="fill:#263238;stroke:#263238;stroke-linecap:round;stroke-linejoin:round"
       id="path63" />
    <path
       d="m 483.08,286.84 c 1,3.75 0.39,7.15 -1.28,7.58 -1.67,0.43 -3.8,-2.27 -4.77,-6 -0.97,-3.73 -0.39,-7.15 1.28,-7.58 1.67,-0.43 3.81,2.24 4.77,6 z"
       style="fill:#263238"
       id="path64" />
    <path
       d="m 428.39,236.4 c 0,0 32.75,-32.75 39.14,-26.36 6.39,6.39 4,34.35 4,38.35 v 11.18"
       style="fill:#f4ad7f;stroke:#263238;stroke-linecap:round;stroke-linejoin:round"
       id="path65" />
    <path
       d="m 468.61,217.09 c 0,0 0.52,-8.33 -3.13,-3.12 -3.65,5.21 -14.05,41.11 -10.93,45.28 3.12,4.17 12,2.08 14.06,-5.73 2.06,-7.81 0.52,-30.19 0.52,-30.19"
       style="fill:none;stroke:#263238;stroke-linecap:round;stroke-linejoin:round"
       id="path66" />
    <polyline
       points="289.34 407.04 307.26 455.47 327.04 455.47 335.88 430.48"
       style="fill:#f4ad7f;stroke:#263238;stroke-linecap:round;stroke-linejoin:round"
       id="polyline66" />
    <polyline
       points="454.55 413.31 437.38 455.47 417.6 455.47 408.75 430.48"
       style="fill:#f4ad7f;stroke:#263238;stroke-linecap:round;stroke-linejoin:round"
       id="polyline67" />
    <path
       d="m 371.05,387.84 v -10.11 q -11.19,-0.44 -16.73,-7.17 -5.54,-6.73 -6,-20.1 l 15.33,-2.61 a 44.24,44.24 0 0 0 1.14,9.07 11.2,11.2 0 0 0 2.77,5.43 6.55,6.55 0 0 0 4.78,1.8 c 2.24,0 3.78,-0.72 4.62,-2.18 a 9.83,9.83 0 0 0 1.25,-5 16.13,16.13 0 0 0 -2.56,-9.29 39.12,39.12 0 0 0 -7,-7.55 l -9.24,-7.94 a 61.29,61.29 0 0 1 -5.65,-6 24.3,24.3 0 0 1 -4,-7 26.27,26.27 0 0 1 -1.47,-9.24 q 0,-10.2 5.82,-15.91 5.82,-5.71 15.59,-6.47 V 278 h 5.3 v 9.67 a 20.16,20.16 0 0 1 9.61,2.66 16.18,16.18 0 0 1 5.71,5.87 27.37,27.37 0 0 1 2.82,7.72 55.11,55.11 0 0 1 1.06,8.08 l -15.54,2.28 a 49.38,49.38 0 0 0 -0.65,-7.12 10.43,10.43 0 0 0 -2,-4.83 5,5 0 0 0 -4.34,-1.63 5.51,5.51 0 0 0 -4.62,2.39 8.78,8.78 0 0 0 -1.58,5.11 12.62,12.62 0 0 0 2.4,8 51,51 0 0 0 5.43,5.87 l 9,7.82 a 60.59,60.59 0 0 1 6.7,7.11 33.06,33.06 0 0 1 4.89,8.43 28.15,28.15 0 0 1 1.83,10.57 23.28,23.28 0 0 1 -2.34,10.48 19.32,19.32 0 0 1 -6.73,7.67 22,22 0 0 1 -10.38,3.47 v 10.22 z"
       style="fill:#263238"
       id="path67" />
    <ellipse
       cx="409.48999"
       cy="298.22"
       rx="32.560001"
       ry="31.530001"
       style="opacity:0.35;fill:#ffffff"
       id="ellipse67" />
  </g>
  <g
     id="freepik--Floor--inject-36"
     transform="translate(-15.530001,-31.82068)">
    <line
       x1="16.030001"
       y1="455.47"
       x2="737.35999"
       y2="455.47"
       style="fill:none;stroke:#263238;stroke-linecap:round;stroke-linejoin:round"
       id="line67" />
  </g>
</svg>
