<?xml version="1.0" encoding="UTF-8" standalone="no"?>
<svg
   viewBox="0 0 500 372.56"
   version="1.1"
   id="svg162"
   width="500"
   height="372.56"
   xmlns="http://www.w3.org/2000/svg"
   xmlns:svg="http://www.w3.org/2000/svg">
  <defs
     id="defs162" />
  <rect
     style="fill:#999999;stroke-width:0.147402"
     id="rect162"
     width="510.80051"
     height="385.00635"
     x="-6.35324"
     y="-6.35324" />
  <g
     id="freepik--background-complete--inject-45"
     transform="translate(0,-55)">
    <rect
       y="382.39999"
       width="500"
       height="0.25"
       style="fill:#ebebeb"
       id="rect1"
       x="0" />
    <rect
       x="410.76999"
       y="391.92001"
       width="33.119999"
       height="0.25"
       style="fill:#ebebeb"
       id="rect2" />
    <rect
       x="131.47"
       y="395.31"
       width="49.860001"
       height="0.25"
       style="fill:#ebebeb"
       id="rect3" />
    <rect
       x="380.23999"
       y="401.20999"
       width="29.530001"
       height="0.25"
       style="fill:#ebebeb"
       id="rect4" />
    <rect
       x="52.459999"
       y="399.53"
       width="21.6"
       height="0.25"
       style="fill:#ebebeb"
       id="rect5" />
    <rect
       x="82.959999"
       y="399.53"
       width="38.369999"
       height="0.25"
       style="fill:#ebebeb"
       id="rect6" />
    <rect
       x="237.53999"
       y="389.20999"
       width="93.68"
       height="0.25"
       style="fill:#ebebeb"
       id="rect7" />
    <path
       d="M 237,337.8 H 43.91 a 5.71,5.71 0 0 1 -5.7,-5.71 V 60.66 A 5.71,5.71 0 0 1 43.91,55 H 237 a 5.71,5.71 0 0 1 5.71,5.71 V 332.09 A 5.71,5.71 0 0 1 237,337.8 Z M 43.91,55.2 a 5.46,5.46 0 0 0 -5.45,5.46 v 271.43 a 5.46,5.46 0 0 0 5.45,5.46 H 237 a 5.47,5.47 0 0 0 5.46,-5.46 V 60.66 A 5.47,5.47 0 0 0 237,55.2 Z"
       style="fill:#ebebeb"
       id="path7" />
    <path
       d="m 453.31,337.8 h -193.1 a 5.72,5.72 0 0 1 -5.71,-5.71 V 60.66 A 5.72,5.72 0 0 1 260.21,55 h 193.1 a 5.71,5.71 0 0 1 5.69,5.66 v 271.43 a 5.71,5.71 0 0 1 -5.69,5.71 z M 260.21,55.2 a 5.47,5.47 0 0 0 -5.46,5.46 v 271.43 a 5.47,5.47 0 0 0 5.46,5.46 h 193.1 a 5.47,5.47 0 0 0 5.46,-5.46 V 60.66 a 5.47,5.47 0 0 0 -5.46,-5.46 z"
       style="fill:#ebebeb"
       id="path8" />
    <rect
       x="108.71"
       y="82.199997"
       width="271.20999"
       height="132.46001"
       transform="rotate(180,244.315,148.425)"
       style="fill:#e6e6e6"
       id="rect8" />
    <rect
       x="103.63"
       y="82.199997"
       width="273.92001"
       height="132.46001"
       transform="rotate(180,240.59,148.425)"
       style="fill:#f0f0f0"
       id="rect9" />
    <rect
       x="108.71"
       y="214.66"
       width="271.20999"
       height="9.4399996"
       transform="rotate(180,244.315,219.375)"
       style="fill:#e6e6e6"
       id="rect10" />
    <rect
       x="95.169998"
       y="214.66"
       width="273.92001"
       height="9.4399996"
       transform="rotate(180,232.125,219.375)"
       style="fill:#f0f0f0"
       id="rect11" />
    <rect
       x="181.47"
       y="18.58"
       width="118.24"
       height="259.70001"
       transform="rotate(90,240.59,148.43)"
       style="fill:#fafafa"
       id="rect12" />
    <polygon
       points="151.09,89.31 162.47,207.55 182.17,207.55 170.79,89.31 "
       style="fill:#ffffff"
       id="polygon12" />
    <polygon
       points="302.73,89.31 314.12,207.55 333.82,207.55 322.43,89.31 "
       style="fill:#ffffff"
       id="polygon13" />
    <path
       d="m 367.15,167.47 a 0.55,0.55 0 0 0 0.54,-0.55 v -73 a 0.55,0.55 0 1 0 -1.09,0 v 73 a 0.55,0.55 0 0 0 0.55,0.55 z"
       style="fill:#f0f0f0"
       id="path13" />
    <polygon
       points="139.17,89.31 150.56,207.55 158.24,207.55 146.85,89.31 "
       style="fill:#ffffff"
       id="polygon14" />
    <rect
       x="52.07"
       y="147.98"
       width="118.24"
       height="0.89999998"
       transform="rotate(90,111.19,148.43)"
       style="fill:#e6e6e6"
       id="rect14" />
    <polygon
       points="373.81,92.07 102.6,92.07 101.95,102.2 373.16,102.2 "
       style="opacity:0.5;fill:#e0e0e0"
       id="polygon15" />
    <polygon
       points="373.81,108.72 102.6,108.72 101.95,118.85 373.16,118.85 "
       style="opacity:0.5;fill:#e0e0e0"
       id="polygon16" />
    <polygon
       points="373.81,125.37 102.6,125.37 101.95,135.5 373.16,135.5 "
       style="opacity:0.5;fill:#e0e0e0"
       id="polygon17" />
    <polygon
       points="373.81,142.02 102.6,142.02 101.95,152.15 373.16,152.15 "
       style="opacity:0.5;fill:#e0e0e0"
       id="polygon18" />
    <polygon
       points="373.81,158.67 102.6,158.67 101.95,168.8 373.16,168.8 "
       style="opacity:0.5;fill:#e0e0e0"
       id="polygon19" />
    <polygon
       points="373.81,175.32 102.6,175.32 101.95,185.45 373.16,185.45 "
       style="opacity:0.5;fill:#e0e0e0"
       id="polygon20" />
    <rect
       x="264.64001"
       y="268.35001"
       width="17.059999"
       height="114.04"
       transform="rotate(180,273.17,325.375)"
       style="fill:#e6e6e6"
       id="rect20" />
    <polygon
       points="264.64,366.87 273.83,366.87 269.12,382.4 264.64,382.4 "
       style="fill:#f0f0f0"
       id="polygon21" />
    <rect
       x="421.95999"
       y="268.35001"
       width="17.059999"
       height="114.04"
       transform="rotate(180,430.495,325.375)"
       style="fill:#e6e6e6"
       id="rect21" />
    <rect
       x="264.64001"
       y="268.35001"
       width="161.24001"
       height="104.51"
       transform="rotate(180,345.255,320.61)"
       style="fill:#f0f0f0"
       id="rect22" />
    <rect
       x="268.12"
       y="272.98999"
       width="154.28"
       height="28.66"
       transform="rotate(180,345.255,287.315)"
       style="fill:#e6e6e6"
       id="rect23" />
    <path
       d="m 295,281.89 h 97.5 c 4.38,0 8.56,-3.53 11.57,-9.78 H 283.43 c 3.01,6.25 7.19,9.78 11.57,9.78 z"
       style="fill:#f0f0f0"
       id="path23" />
    <polygon
       points="425.88,366.87 416.69,366.87 421.39,382.4 425.88,382.4 "
       style="fill:#f0f0f0"
       id="polygon23" />
    <rect
       x="268.12"
       y="306.28"
       width="154.28"
       height="28.66"
       transform="rotate(180,345.255,320.61)"
       style="fill:#e6e6e6"
       id="rect24" />
    <path
       d="m 295,315.19 h 97.5 c 4.38,0 8.56,-3.54 11.57,-9.78 H 283.43 c 3.01,6.24 7.19,9.78 11.57,9.78 z"
       style="fill:#f0f0f0"
       id="path24" />
    <rect
       x="268.12"
       y="339.57001"
       width="154.28"
       height="28.66"
       transform="rotate(180,345.255,353.905)"
       style="fill:#e6e6e6"
       id="rect25" />
    <path
       d="m 295,348.48 h 97.5 c 4.38,0 8.56,-3.54 11.57,-9.78 H 283.43 c 3.01,6.24 7.19,9.78 11.57,9.78 z"
       style="fill:#f0f0f0"
       id="path25" />
    <rect
       x="127.99"
       y="233.17"
       width="28.860001"
       height="16.68"
       rx="4.54"
       style="fill:#f5f5f5"
       id="rect26" />
    <rect
       x="164.10001"
       y="233.17"
       width="28.860001"
       height="16.68"
       rx="4.54"
       style="fill:#f5f5f5"
       id="rect27" />
    <path
       d="m 82.48,229.83 c 0,0 0.69,20 27.07,20 26.38,0 27.06,-20 27.06,-20 z"
       style="fill:#f0f0f0"
       id="path27" />
    <rect
       x="195.92999"
       y="256.14001"
       width="29.040001"
       height="119.73"
       transform="rotate(180,210.45,316.01)"
       style="fill:#f0f0f0"
       id="rect28" />
    <rect
       x="76.190002"
       y="375.88"
       width="143.2"
       height="6.52"
       transform="rotate(180,147.795,379.14)"
       style="fill:#f0f0f0"
       id="rect29" />
    <rect
       x="70.620003"
       y="256.14001"
       width="125.31"
       height="119.73"
       style="fill:#f5f5f5"
       id="rect30" />
    <rect
       x="82.040001"
       y="302.20999"
       width="102.48"
       height="27.6"
       style="fill:#f0f0f0"
       id="rect31" />
    <rect
       x="82.040001"
       y="335.97"
       width="102.48"
       height="27.6"
       style="fill:#f0f0f0"
       id="rect32" />
    <path
       d="m 121.25,305.91 h 24.05 a 2.32,2.32 0 0 0 2.31,-2.31 v 0 a 2.32,2.32 0 0 0 -2.31,-2.32 h -24.05 a 2.32,2.32 0 0 0 -2.31,2.32 v 0 a 2.32,2.32 0 0 0 2.31,2.31 z"
       style="fill:#f5f5f5"
       id="path32" />
    <rect
       x="82.040001"
       y="268.45999"
       width="102.48"
       height="27.6"
       style="fill:#f0f0f0"
       id="rect33" />
    <path
       d="m 121.25,272.16 h 24.05 a 2.32,2.32 0 0 0 2.31,-2.32 v 0 a 2.32,2.32 0 0 0 -2.31,-2.31 h -24.05 a 2.32,2.32 0 0 0 -2.31,2.31 v 0 a 2.32,2.32 0 0 0 2.31,2.32 z"
       style="fill:#f5f5f5"
       id="path33" />
    <rect
       x="118.94"
       y="335.04001"
       width="28.67"
       height="4.6300001"
       rx="2.3099999"
       transform="rotate(180,133.275,337.35)"
       style="fill:#f5f5f5"
       id="rect34" />
    <rect
       x="66.75"
       y="249.85001"
       width="129.17999"
       height="6.3000002"
       transform="rotate(180,131.34,252.995)"
       style="fill:#f0f0f0"
       id="rect35" />
    <rect
       x="195.92999"
       y="249.85001"
       width="33.099998"
       height="6.3000002"
       style="fill:#e6e6e6"
       id="rect36" />
    <path
       d="m 389.76,183.19 -7.17,-10.86 c 0.25,62.86 1.31,66.48 1.28,77.3 h 5.75 c 0.8,-52.63 3.02,-52.94 0.14,-66.44 z"
       style="fill:#e0e0e0"
       id="path36" />
    <path
       d="m 387,268.35 v 0 c 16.49,0 30.4,-6.69 33.78,-15.74 a 30.23,30.23 0 0 1 3.52,-7 l 0.26,-0.37 h -75.14 l 0.26,0.37 a 29.89,29.89 0 0 1 3.53,7 c 3.38,9.05 17.29,15.74 33.79,15.74 z"
       style="fill:#fafafa"
       id="path37" />
    <path
       d="m 349.27,247.48 h 75.44 a 4.61,4.61 0 0 0 4.45,-3.45 v 0 a 4.6,4.6 0 0 0 -4.45,-5.74 h -75.44 a 4.59,4.59 0 0 0 -4.45,5.74 v 0 a 4.59,4.59 0 0 0 4.45,3.45 z"
       style="fill:#f0f0f0"
       id="path38" />
    <path
       d="m 387.59,174.44 c -1.43,-17 -18.92,-18.68 -51.64,-26.69 C 352,194 393,238.47 387.59,174.44 Z"
       style="fill:#e0e0e0"
       id="path39" />
    <path
       d="m 382.85,165.51 c -2.42,-13.5 0.11,-27.81 38,-26.41 -9.49,37.17 -26.74,89.09 -38,26.41 z"
       style="fill:#e0e0e0"
       id="path40" />
    <path
       d="m 384.57,198.47 c 1.15,-15.55 13.13,-34 52.35,-20.73 -17.44,30.18 -55.13,58.26 -52.35,20.73 z"
       style="fill:#e0e0e0"
       id="path41" />
  </g>
  <g
     id="freepik--Shadow--inject-45"
     transform="translate(0,-55)">
    <ellipse
       id="freepik--path--inject-45"
       cx="250"
       cy="416.23999"
       rx="193.89"
       ry="11.32"
       style="fill:#f5f5f5" />
  </g>
  <g
     id="freepik--Table--inject-45"
     transform="translate(0,-55)">
    <rect
       x="134.75999"
       y="269.62"
       width="122.71"
       height="6.6199999"
       transform="rotate(180,196.11,272.93)"
       style="fill:#8656d7"
       id="rect41" />
    <rect
       x="134.75999"
       y="269.62"
       width="122.71"
       height="6.6199999"
       transform="rotate(180,196.11,272.93)"
       style="opacity:0.5;fill:#ffffff"
       id="rect42" />
    <rect
       x="78.559998"
       y="269.62"
       width="56.189999"
       height="6.6199999"
       style="fill:#8656d7"
       id="rect43" />
    <rect
       x="78.559998"
       y="269.62"
       width="56.189999"
       height="6.6199999"
       style="opacity:0.5;fill:#ffffff"
       id="rect44" />
    <rect
       x="78.559998"
       y="269.62"
       width="56.189999"
       height="6.6199999"
       style="opacity:0.2"
       id="rect45" />
    <polygon
       points="255.15,276.24 80.88,276.24 82.36,283.3 253.68,283.3 "
       style="fill:#8656d7"
       id="polygon45" />
    <polygon
       points="255.15,276.24 80.88,276.24 82.36,283.3 253.68,283.3 "
       style="opacity:0.6"
       id="polygon46" />
    <polygon
       points="232.02,412.53 227.14,283.3 235.89,283.3 235.89,412.53 "
       style="fill:#8656d7"
       id="polygon47" />
    <polygon
       points="232.02,412.53 227.14,283.3 235.89,283.3 235.89,412.53 "
       style="opacity:0.5;fill:#ffffff"
       id="polygon48" />
    <polygon
       points="186.28,412.53 181.4,283.3 190.15,283.3 190.15,412.53 "
       style="fill:#8656d7"
       id="polygon49" />
    <polygon
       points="186.28,412.53 181.4,283.3 190.15,283.3 190.15,412.53 "
       style="opacity:0.5;fill:#ffffff"
       id="polygon50" />
    <polygon
       points="94.86,412.53 99.74,283.3 90.99,283.3 90.99,412.53 "
       style="fill:#8656d7"
       id="polygon51" />
    <polygon
       points="94.86,412.53 99.74,283.3 90.99,283.3 90.99,412.53 "
       style="opacity:0.5;fill:#ffffff"
       id="polygon52" />
    <polygon
       points="140.6,412.53 145.48,283.3 136.73,283.3 136.73,412.53 "
       style="fill:#8656d7"
       id="polygon53" />
    <polygon
       points="140.6,412.53 145.48,283.3 136.73,283.3 136.73,412.53 "
       style="opacity:0.5;fill:#ffffff"
       id="polygon54" />
  </g>
  <g
     id="freepik--character-3--inject-45"
     transform="translate(0,-55)">
    <path
       d="m 397.31,186.54 c 2.19,4.27 4.2,8.53 6.13,12.89 1.93,4.36 3.72,8.77 5.37,13.31 0.39,1.16 0.81,2.28 1.17,3.47 l 0.28,0.88 0.15,0.44 c 0,0.15 0.15,0.52 0.21,0.77 a 10.46,10.46 0 0 1 0.22,3 15.26,15.26 0 0 1 -1.19,4.68 24.66,24.66 0 0 1 -1.89,3.66 49.91,49.91 0 0 1 -9.89,11.25 l -3.69,-3.38 a 81.57,81.57 0 0 0 6.51,-11.51 23,23 0 0 0 1,-2.77 6.53,6.53 0 0 0 0.27,-2.18 0.94,0.94 0 0 0 -0.11,-0.45 c 0,0 0,0.05 -0.05,-0.07 l -0.15,-0.39 -0.31,-0.78 c -0.4,-1 -0.87,-2.08 -1.31,-3.13 -1.8,-4.19 -3.75,-8.38 -5.74,-12.57 l -6,-12.55 z"
       style="fill:#ff8b7b"
       id="path54" />
    <path
       d="m 395.28,236.3 -4.53,1.94 4.51,6.25 c 0,0 3.28,-1.84 3.69,-5.05 z"
       style="fill:#ff8b7b"
       id="path55" />
    <polygon
       points="395.26,244.49 390.75,238.24 384.62,241.36 389.61,246.04 "
       style="fill:#ff8b7b"
       id="polygon55" />
    <path
       d="m 366.07,155.19 c -0.11,0.53 -0.47,0.9 -0.82,0.83 -0.35,-0.07 -0.53,-0.56 -0.43,-1.08 0.1,-0.52 0.48,-0.9 0.82,-0.83 0.34,0.07 0.54,0.55 0.43,1.08 z"
       style="fill:#263238"
       id="path56" />
    <path
       d="m 365.65,156.1 a 19.33,19.33 0 0 1 -3.44,4 3.09,3.09 0 0 0 2.42,1 z"
       style="fill:#ed847e"
       id="path57" />
    <path
       d="m 368.6,152.66 a 0.34,0.34 0 0 1 -0.24,-0.11 2.53,2.53 0 0 0 -2.11,-0.85 0.31484123,0.31484123 0 1 1 -0.11,-0.62 3.13,3.13 0 0 1 2.69,1 0.32,0.32 0 0 1 -0.23,0.53 z"
       style="fill:#263238"
       id="path58" />
    <path
       d="m 381.08,162.6 c -1,4.88 -1.91,13.81 1.5,17.07 0,0 -1.33,4.94 -10.39,4.94 -10,0 -4.76,-4.94 -4.76,-4.94 5.43,-1.3 5.29,-5.34 4.35,-9.13 z"
       style="fill:#ff8b7b"
       id="path59" />
    <path
       d="m 384.92,181.22 c 0.73,-1.56 1.55,-3.35 -0.28,-3.83 -2,-0.53 -12.95,-0.76 -16.67,0.52 -3.72,1.28 -2.53,4.34 -2.53,4.34 z"
       style="fill:#8656d7"
       id="path60" />
    <path
       d="m 364.85,409 c -0.85,0 -1.68,-0.12 -2,-0.51 a 0.61,0.61 0 0 1 0,-0.69 0.81,0.81 0 0 1 0.5,-0.37 c 1.11,-0.3 3.44,1 3.53,1.09 a 0.15,0.15 0 0 1 0.08,0.16 0.16,0.16 0 0 1 -0.12,0.13 12.22,12.22 0 0 1 -1.99,0.19 z m -1.05,-1.3 a 1,1 0 0 0 -0.31,0 0.46,0.46 0 0 0 -0.31,0.22 c -0.11,0.2 -0.07,0.29 0,0.35 0.31,0.43 2,0.44 3.23,0.26 a 7.23,7.23 0 0 0 -2.61,-0.79 z"
       style="fill:#8656d7"
       id="path61" />
    <path
       d="m 366.87,408.85 h -0.07 c -0.8,-0.36 -2.4,-1.81 -2.28,-2.56 0,-0.18 0.16,-0.4 0.59,-0.44 a 1.18,1.18 0 0 1 0.88,0.27 4.43,4.43 0 0 1 1,2.57 0.15,0.15 0 0 1 -0.06,0.14 z m -1.63,-2.7 h -0.1 c -0.28,0 -0.3,0.14 -0.3,0.18 -0.08,0.45 1,1.59 1.83,2.08 a 3.82,3.82 0 0 0 -0.88,-2.06 0.89,0.89 0 0 0 -0.55,-0.2 z"
       style="fill:#8656d7"
       id="path62" />
    <polygon
       points="366.87,393.26 373.53,393.26 374.2,408.69 367.53,408.69 "
       style="fill:#ff8b7b"
       id="polygon62" />
    <polygon
       points="410.61,387.07 417.24,386.35 422.24,401.34 415.61,402.06 "
       style="fill:#ff8b7b"
       id="polygon63" />
    <path
       d="m 412.58,403.57 c -0.83,0.22 -1.66,0.31 -2,0 a 0.59,0.59 0 0 1 -0.16,-0.67 0.78,0.78 0 0 1 0.4,-0.48 c 1,-0.57 3.58,0.14 3.69,0.17 a 0.17,0.17 0 0 1 0.12,0.14 0.17,0.17 0 0 1 -0.09,0.16 11,11 0 0 1 -1.96,0.68 z m -1.34,-1 a 1.6,1.6 0 0 0 -0.29,0.11 0.48,0.48 0 0 0 -0.24,0.29 c -0.06,0.22 0,0.3 0.05,0.35 0.41,0.34 2.05,-0.07 3.2,-0.54 a 7.05,7.05 0 0 0 -2.72,-0.2 z"
       style="fill:#8656d7"
       id="path63" />
    <path
       d="m 414.49,402.9 c 0,0 -0.05,0 -0.07,0 -0.87,-0.15 -2.77,-1.15 -2.83,-1.91 0,-0.18 0.05,-0.43 0.46,-0.58 a 1.16,1.16 0 0 1 0.91,0 c 1,0.47 1.61,2.16 1.64,2.23 a 0.15,0.15 0 0 1 0,0.16 z m -2.24,-2.22 h -0.1 c -0.26,0.1 -0.25,0.21 -0.25,0.25 0,0.45 1.37,1.28 2.29,1.56 a 3.66,3.66 0 0 0 -1.36,-1.77 0.8,0.8 0 0 0 -0.58,-0.04 z"
       style="fill:#8656d7"
       id="path64" />
    <path
       d="m 415.23,401.44 7.19,-2.09 a 0.57,0.57 0 0 1 0.67,0.28 L 426,405 a 1,1 0 0 1 -0.61,1.41 c -2.52,0.69 -3.78,0.9 -6.94,1.81 -1.95,0.57 -5.9,1.94 -8.59,2.72 -2.69,0.78 -3.81,-1.78 -2.78,-2.34 4.62,-2.51 6.05,-4.54 7.21,-6.41 a 1.63,1.63 0 0 1 0.94,-0.75 z"
       style="fill:#263238"
       id="path65" />
    <path
       d="m 367.57,407.92 h 7.28 a 0.58,0.58 0 0 1 0.57,0.46 l 1.32,5.92 a 1,1 0 0 1 -1,1.19 c -2.63,-0.05 -6.42,-0.2 -9.72,-0.2 -3.86,0 -6,0.21 -10.49,0.21 -2.74,0 -3.49,-2.77 -2.35,-3 5.22,-1.14 8.24,-1.26 12.75,-4 a 3.1,3.1 0 0 1 1.64,-0.58 z"
       style="fill:#263238"
       id="path66" />
    <path
       d="m 362.77,191.75 c -0.88,2.34 -1.83,4.39 -2.85,6.53 -1.02,2.14 -2.11,4.19 -3.28,6.25 a 67.28,67.28 0 0 1 -8.41,11.8 c -0.43,0.46 -0.87,0.92 -1.33,1.37 -0.22,0.22 -0.45,0.45 -0.69,0.67 l -0.78,0.71 a 6.43,6.43 0 0 1 -2.61,1.42 5.55,5.55 0 0 1 -2.17,0.13 5.28,5.28 0 0 1 -1.06,-0.25 6.35,6.35 0 0 1 -0.88,-0.39 6.11,6.11 0 0 1 -1.95,-1.7 8.05,8.05 0 0 1 -0.86,-1.37 18.52,18.52 0 0 1 -1.4,-4.14 c -0.27,-1.26 -0.45,-2.46 -0.61,-3.65 a 79.1,79.1 0 0 1 -0.4,-14 l 5,-0.36 c 1,4.31 2,8.71 3.12,12.79 0.28,1 0.61,2 0.94,2.92 a 9.63,9.63 0 0 0 1,2.16 c 0.06,0.08 0.12,0.12 0.08,0 a 1.84,1.84 0 0 0 -0.7,-0.59 3.15,3.15 0 0 0 -0.49,-0.22 3.25,3.25 0 0 0 -0.65,-0.16 3.6,3.6 0 0 0 -1.33,0.07 3.12,3.12 0 0 0 -1.18,0.57 l 0.43,-0.48 c 0.17,-0.17 0.33,-0.35 0.49,-0.54 0.32,-0.36 0.63,-0.75 0.94,-1.13 a 71.07,71.07 0 0 0 6.69,-10.56 c 1,-1.88 2,-3.82 2.91,-5.76 0.91,-1.94 1.83,-4 2.63,-5.82 z"
       style="fill:#ff8b7b"
       id="path67" />
    <path
       d="m 394.52,181.17 c 6.25,1.44 12.56,19.7 12.56,19.7 l -12.86,9.23 c 0,0 -3.59,-8.51 -7.13,-15.95 -3.7,-7.8 1.04,-14.44 7.43,-12.98 z"
       style="fill:#263238"
       id="path68" />
    <path
       d="m 357.17,181.52 c 0,0 -7.09,8 -0.39,57.61 h 35.65 c 0.25,-5.47 -3.19,-32.17 2.09,-58 a 93.5,93.5 0 0 0 -11.94,-1.5 129.69,129.69 0 0 0 -15.15,0 66.85,66.85 0 0 0 -10.26,1.89 z"
       style="fill:#263238"
       id="path69" />
    <path
       d="m 366,188.27 c 2.24,6 -8,21.88 -8,21.88 L 342.78,201 a 72.88,72.88 0 0 0 9.91,-14.5 c 4.93,-10.26 11.51,-3.06 13.31,1.77 z"
       style="fill:#263238"
       id="path70" />
    <path
       d="m 335.2,198.09 -6.39,-2.69 3.33,-5.21 c 0,0 4.53,0.48 6.2,3.46 a 2,2 0 0 1 -0.62,2.61 z"
       style="fill:#ff8b7b"
       id="path71" />
    <polygon
       points="332.14,190.19 328.81,195.4 323.62,191.5 329.2,187.81 "
       style="fill:#ff8b7b"
       id="polygon71" />
    <polygon
       points="373.88,401.22 373.54,393.26 366.87,393.26 367.21,401.22 "
       style="opacity:0.2"
       id="polygon72" />
    <polygon
       points="413.39,395.39 419.82,394.08 417.24,386.36 410.61,387.08 "
       style="opacity:0.2"
       id="polygon73" />
    <path
       d="m 383.87,157.64 c -1.71,6.39 -2.39,10.22 -6.33,12.88 -5.93,4 -13.32,-0.59 -13.55,-7.36 -0.21,-6.1 2.63,-15.53 9.49,-16.81 a 9,9 0 0 1 10.39,11.29 z"
       style="fill:#ff8b7b"
       id="path73" />
    <path
       d="m 388.05,153.88 c 0.88,0.21 2.67,0.08 4.28,-3.56 2.23,-5 -7.56,-3.6 -7.56,-3.6 0,0 9,-4.08 1.32,-8 -5,-2.55 -6.88,-0.19 -7.56,1.75 0.2,-2 -0.29,-4.66 -4.88,-3.25 -7,2.14 -1.95,7.68 -1.95,7.68 a 3.87,3.87 0 0 0 -4.94,0.37 c -2.24,2 -0.48,4.83 1.68,7.35 -1.29,1.82 -1.85,4 1.61,4.81 v 0 a 2.72,2.72 0 0 1 2.23,2.63 c 0,3.41 0.13,6.19 2.5,8.37 2.37,2.18 10.63,-0.93 10.21,-5.8 a 11,11 0 0 0 5.53,-2.21 c 4.26,-3.33 -0.74,-5.83 -2.47,-6.54 z"
       style="fill:#263238"
       id="path74" />
    <path
       d="m 374.76,157.75 a 7.49,7.49 0 0 1 -3.29,3.5 c -1.92,1 -3,-0.46 -2.56,-2.38 0.39,-1.73 1.86,-4.33 3.83,-4.54 1.97,-0.21 2.81,1.61 2.02,3.42 z"
       style="fill:#ff8b7b"
       id="path75" />
    <path
       d="m 369.43,239.13 c 0,0 7.56,50.95 11.71,70 4.55,20.9 28.47,84.89 28.47,84.89 l 12,-2.21 c 0,0 -17.88,-60.09 -20.48,-80.78 -2.81,-22.46 -8.71,-71.93 -8.71,-71.93 z"
       style="fill:#8656d7"
       id="path76" />
    <path
       d="M 374.21,257.28 C 383,259 382,291.62 381,308.4 c -2.53,-11.86 -6.22,-34.68 -8.74,-50.88 a 3,3 0 0 1 1.95,-0.24 z"
       style="opacity:0.2"
       id="path77" />
    <path
       d="m 356.78,239.13 c 0,0 -0.92,49.84 -0.19,70.17 0.75,21.14 8.13,90.38 8.13,90.38 H 376 c 0,0 0.41,-68 0.91,-88.77 0.55,-22.63 3.29,-71.78 3.29,-71.78 z"
       style="fill:#8656d7"
       id="path78" />
    <path
       d="m 406.88,390 c -0.05,0 2.09,4.38 2.09,4.38 l 13.51,-2.48 -1,-4.07 z"
       style="fill:#263238"
       id="path79" />
    <path
       d="m 362.55,395.18 c -0.05,0 0.64,4.69 0.64,4.69 h 13.74 l 0.37,-4.19 z"
       style="fill:#263238"
       id="path80" />
  </g>
  <g
     id="freepik--character-2--inject-45"
     transform="translate(0,-55)">
    <polygon
       points="256.51,391.84 249.36,391.84 249.4,408.4 256.56,408.4 "
       style="fill:#7f3e3b"
       id="polygon80" />
    <polygon
       points="220.92,391.84 213.76,391.84 211.4,408.4 218.55,408.4 "
       style="fill:#7f3e3b"
       id="polygon81" />
    <path
       d="m 219,407.58 h -8 a 0.56,0.56 0 0 0 -0.57,0.49 l -0.94,6.35 a 1.15,1.15 0 0 0 1.14,1.28 c 2.81,-0.05 4.16,-0.22 7.69,-0.22 2.18,0 6.67,0.23 9.67,0.23 3,0 3.18,-3 1.93,-3.24 -5.6,-1.2 -7.8,-2.87 -9.69,-4.45 A 1.81,1.81 0 0 0 219,407.58 Z"
       style="fill:#263238"
       id="path81" />
    <path
       d="m 256.47,407.58 h -7.81 a 0.59,0.59 0 0 0 -0.59,0.49 l -1.07,6.35 a 1.1,1.1 0 0 0 1,1.28 c 2.81,-0.05 6.88,-0.22 10.42,-0.22 4.14,0 7.73,0.23 12.58,0.23 2.94,0 3.62,-3 2.38,-3.24 -5.65,-1.22 -10.23,-1.35 -15.2,-4.34 a 3.47,3.47 0 0 0 -1.71,-0.55 z"
       style="fill:#263238"
       id="path82" />
    <path
       d="m 251,182.14 9.77,-3.13 c 0,0 9,24.68 11.6,27.29 3.52,3.55 8.56,13 11.34,18.24 -0.32,1.17 -2,3.89 -3,4.4 -6.89,-4.94 -16.05,-14.36 -18,-18.51 C 258.27,201 251,182.14 251,182.14 Z"
       style="fill:#7f3e3b"
       id="path83" />
    <path
       d="m 248.74,176.76 c -3.28,6 8.28,26.14 8.28,26.14 l 14.59,-6.76 c 0,0 -3.34,-9.41 -7.23,-17.47 -3.7,-7.67 -12,-8.55 -15.64,-1.91 z"
       style="fill:#8656d7"
       id="path84" />
    <path
       d="m 283.09,223.54 7.36,4.47 -5.45,7.48 a 31.83,31.83 0 0 1 -5.66,-7.82 z"
       style="fill:#7f3e3b"
       id="path85" />
    <polygon
       points="285.01,235.49 290.45,228.01 295.84,234.31 291.09,237.73 "
       style="fill:#7f3e3b"
       id="polygon85" />
    <polygon
       points="249.38,400.38 249.35,391.84 256.51,391.84 256.53,400.38 "
       style="opacity:0.2"
       id="polygon86" />
    <polygon
       points="219.7,400.38 212.54,400.38 213.76,391.84 220.92,391.84 "
       style="opacity:0.2"
       id="polygon87" />
    <path
       d="m 258.09,172.7 c 0,0 9,24.59 1.94,64.82 h -38.26 c -0.41,-5.88 2.58,-37.51 -3.77,-65.18 a 98.46,98.46 0 0 1 12.77,-1.62 140.08,140.08 0 0 1 16.27,0 73.5,73.5 0 0 1 11.05,1.98 z"
       style="fill:#8656d7"
       id="path87" />
    <path
       d="m 237.93,172.84 c 0,0 6.46,8.42 5.1,64.68 h 7.1 c 0,0 2.69,-48.16 -5.24,-65.17 a 41.49,41.49 0 0 0 -6.96,0.49 z"
       style="fill:#ffffff"
       id="path88" />
    <path
       d="m 226.48,179.17 c 0.75,4.55 -0.42,15.45 -4.45,28 A 183.32,183.32 0 0 0 218.6,175.05 V 175 c 2.51,-0.22 7.17,-0.1 7.88,4.17 z"
       style="opacity:0.2"
       id="path89" />
    <path
       d="m 232.52,155.51 c 1.16,5.23 1.83,11.72 -1.75,15.21 0,0 2.23,5.31 12,5.31 8.89,0 4.31,-5.31 4.31,-5.31 -5.87,-1.39 -5.75,-8.61 -4.83,-12.68 z"
       style="fill:#7f3e3b"
       id="path90" />
    <path
       d="M 230.77,170.27 A 24.64,24.64 0 0 0 242,176 c -1.71,1.16 -3.91,5.32 -3.91,5.32 0,0 -8.26,-3.15 -9.88,-10.67 0.79,-0.17 2.56,-0.38 2.56,-0.38 z"
       style="fill:#8656d7"
       id="path91" />
    <path
       d="M 230.77,170.27 A 24.64,24.64 0 0 0 242,176 c -1.71,1.16 -3.91,5.32 -3.91,5.32 0,0 -8.26,-3.15 -9.88,-10.67 0.79,-0.17 2.56,-0.38 2.56,-0.38 z"
       style="opacity:0.3"
       id="path92" />
    <path
       d="m 246.29,170.07 c 0,0 2.27,4.77 -1.89,5.88 a 12.34,12.34 0 0 1 5,4.62 c 0,0 2.94,-5.87 -0.59,-10.1 -0.76,-0.19 -2.52,-0.4 -2.52,-0.4 z"
       style="fill:#8656d7"
       id="path93" />
    <path
       d="m 246.29,170.07 c 0,0 2.27,4.77 -1.89,5.88 a 12.34,12.34 0 0 1 5,4.62 c 0,0 2.94,-5.87 -0.59,-10.1 -0.76,-0.19 -2.52,-0.4 -2.52,-0.4 z"
       style="opacity:0.3"
       id="path94" />
    <path
       d="m 242.22,158.05 a 15.59,15.59 0 0 0 0.25,8.59 4.64,4.64 0 0 1 -2.67,0.4 c -2.14,-0.43 -3.43,-1.41 -5.21,-5 -0.15,-0.92 -1.87,-5.61 -2.06,-6.49 z"
       style="opacity:0.2"
       id="path95" />
    <path
       d="m 250.05,150.15 a 6.53,6.53 0 0 1 -1.48,4.88 c -1.51,1.78 -3.63,0.73 -4.34,-1.4 -0.65,-1.91 -0.64,-5.15 1.43,-6.15 a 3.1,3.1 0 0 1 4.39,2.67 z"
       style="fill:#7f3e3b"
       id="path96" />
    <path
       d="m 250.05,150.15 a 6.53,6.53 0 0 1 -1.48,4.88 c -1.51,1.78 -3.63,0.73 -4.34,-1.4 -0.65,-1.91 -0.64,-5.15 1.43,-6.15 a 3.1,3.1 0 0 1 4.39,2.67 z"
       style="opacity:0.2"
       id="path97" />
    <path
       d="m 227.71,149.89 c 2.92,6.54 3.35,10.21 7.66,13 6.49,4.23 14.22,-0.8 14.21,-8.1 0,-6.56 -3.4,-16.56 -10.76,-18 -8.05,-1.51 -14.82,4.75 -11.11,13.1 z"
       style="fill:#7f3e3b"
       id="path98" />
    <path
       d="m 226.6,156 a 7.83,7.83 0 0 0 4.23,2.63 c 2,0.42 2.35,-1.53 1.19,-3.45 -1.05,-1.73 -2.9,-5.09 -5.13,-3.57 -1.48,1.05 -1.72,2.75 -0.29,4.39 z"
       style="fill:#7f3e3b"
       id="path99" />
    <path
       d="m 250.22,154.83 c 0.22,4.42 4.64,10 -3.29,11.27 a 16.9,16.9 0 0 1 -11.88,-2.55 c -3.47,-2.15 -4.5,-8.21 -7.19,-12.27 -0.12,-0.15 -0.06,-0.33 0.08,-0.51 a 1.52,1.52 0 0 1 2.48,0.28 c 0.9,1.57 2.58,3.86 4.84,4 3.46,0.27 14.74,-4.74 14.96,-0.22 z"
       style="fill:#263238"
       id="path100" />
    <path
       d="m 234.88,237.52 c 0,0 1,9 2.17,21.19 1.4,13.81 3.13,31.75 4.23,45.42 a 1,1 0 0 0 0,0.18 c 0.21,2.6 0.39,5 0.55,7.26 1.55,22.29 5.16,87.16 5.16,87.16 h 12.12 c 0,0 4.7,-66.2 4.48,-88.89 C 263.39,288 260,237.52 260,237.52 Z"
       style="fill:#263238"
       id="path101" />
    <path
       d="m 246,394.47 c -0.06,0 0.18,4.51 0.18,4.51 h 14 l 0.38,-5.07 z"
       style="fill:#8656d7"
       id="path102" />
    <path
       d="m 237.05,258.71 c 1.4,13.81 3.13,31.75 4.23,45.42 a 1,1 0 0 0 0,0.18 c 2.69,-12.95 5.15,-24.75 2.51,-44 z"
       style="opacity:0.2"
       id="path103" />
    <path
       d="m 246.45,237.52 c 0,0 -4.17,51.69 -7.1,72.17 -3.21,22.43 -16.44,89 -16.44,89 H 209.8 c 0,0 7.11,-64.8 8.24,-87 1.23,-24.1 3.72,-74.2 3.72,-74.2 z"
       style="fill:#263238"
       id="path104" />
    <path
       d="m 209.43,394.33 c -0.05,0 -0.26,4.65 -0.26,4.65 h 14.4 l 1,-4.79 z"
       style="fill:#8656d7"
       id="path105" />
    <path
       d="m 239,148.81 c 0.14,0.56 0.54,1 0.91,0.88 0.37,-0.12 0.55,-0.61 0.42,-1.17 -0.13,-0.56 -0.54,-1 -0.91,-0.88 -0.37,0.12 -0.55,0.6 -0.42,1.17 z"
       style="fill:#263238"
       id="path106" />
    <path
       d="m 245.32,147.43 c 0.14,0.57 0.54,1 0.91,0.88 0.37,-0.12 0.55,-0.6 0.42,-1.17 -0.13,-0.57 -0.54,-1 -0.91,-0.88 -0.37,0.12 -0.55,0.6 -0.42,1.17 z"
       style="fill:#263238"
       id="path107" />
    <path
       d="m 243.38,148.15 a 21.52,21.52 0 0 0 3.82,4.26 3.23,3.23 0 0 1 -2.55,1.09 z"
       style="fill:#630f0f"
       id="path108" />
    <path
       d="m 243.4,157.37 a 0.17,0.17 0 0 0 0.12,-0.21 0.18,0.18 0 0 0 -0.21,-0.12 4.6,4.6 0 0 1 -4.06,-0.85 0.16,0.16 0 0 0 -0.23,0 0.16,0.16 0 0 0 0,0.24 4.88,4.88 0 0 0 4.38,0.94 z"
       style="fill:#7f3e3b"
       id="path109" />
    <path
       d="m 236.61,147.16 a 0.34,0.34 0 0 0 0.23,-0.19 2.59,2.59 0 0 1 1.84,-1.57 0.34,0.34 0 0 0 0.32,-0.4 0.35,0.35 0 0 0 -0.39,-0.29 3.19,3.19 0 0 0 -2.35,2 0.35,0.35 0 0 0 0.17,0.45 0.42,0.42 0 0 0 0.18,0 z"
       style="fill:#263238"
       id="path110" />
    <path
       d="m 247.63,144.55 a 0.46,0.46 0 0 0 0.13,-0.08 0.34,0.34 0 0 0 0,-0.48 3.41,3.41 0 0 0 -2.87,-1.18 0.34,0.34 0 0 0 -0.28,0.39 0.36,0.36 0 0 0 0.39,0.29 v 0 a 2.7,2.7 0 0 1 2.27,0.95 0.36,0.36 0 0 0 0.36,0.11 z"
       style="fill:#263238"
       id="path111" />
    <path
       d="m 213.86,181.7 9.49,4.39 c 0,0 -9.15,23.32 -7.59,26.61 2.13,4.49 3.8,14.46 7.27,19.28 -0.18,1.17 -1.58,4 -2.51,4.59 -7.59,-4.09 -15.08,-19 -15.49,-23.48 -0.94,-10.21 8.83,-31.39 8.83,-31.39 z"
       style="fill:#7f3e3b"
       id="path112" />
    <path
       d="m 218,172.34 c -6.74,1 -13.92,24.43 -13.92,24.43 l 16.41,7.23 c 0,0 4,-10.35 6.88,-18.64 3.02,-8.67 -2.13,-14.08 -9.37,-13.02 z"
       style="fill:#8656d7"
       id="path113" />
    <path
       d="m 221.46,408.83 a 2.06,2.06 0 0 0 1.35,-0.37 0.93,0.93 0 0 0 0.28,-0.89 0.55,0.55 0 0 0 -0.32,-0.48 c -0.82,-0.41 -3,1 -3.27,1.17 a 0.17,0.17 0 0 0 -0.07,0.17 0.2,0.2 0 0 0 0.14,0.14 8.62,8.62 0 0 0 1.89,0.26 z m 0.95,-1.48 a 0.53,0.53 0 0 1 0.23,0 0.24,0.24 0 0 1 0.12,0.2 0.66,0.66 0 0 1 -0.19,0.61 3.34,3.34 0 0 1 -2.53,0.13 6.31,6.31 0 0 1 2.37,-0.94 z"
       style="fill:#8656d7"
       id="path114" />
    <path
       d="m 219.61,408.57 a 0.12,0.12 0 0 0 0.08,0 c 0.71,-0.4 2,-2 1.81,-2.76 a 0.6,0.6 0 0 0 -0.57,-0.45 0.88,0.88 0 0 0 -0.71,0.22 c -0.78,0.68 -0.79,2.74 -0.79,2.83 a 0.19,0.19 0 0 0 0.09,0.16 z m 1.23,-2.9 h 0.07 c 0.23,0 0.25,0.13 0.26,0.17 0.13,0.47 -0.69,1.66 -1.39,2.21 a 3.84,3.84 0 0 1 0.68,-2.24 0.55,0.55 0 0 1 0.38,-0.14 z"
       style="fill:#8656d7"
       id="path115" />
    <path
       d="m 259.5,408.83 a 2.63,2.63 0 0 0 1.72,-0.44 0.92,0.92 0 0 0 0.28,-0.83 0.57,0.57 0 0 0 -0.3,-0.45 c -0.89,-0.49 -3.7,1 -4,1.14 a 0.18,0.18 0 0 0 -0.08,0.18 0.17,0.17 0 0 0 0.14,0.14 12.33,12.33 0 0 0 2.24,0.26 z m 1.23,-1.48 a 0.73,0.73 0 0 1 0.32,0.06 0.21,0.21 0 0 1 0.11,0.18 0.57,0.57 0 0 1 -0.18,0.54 c -0.42,0.4 -1.59,0.46 -3.18,0.2 a 8.89,8.89 0 0 1 2.93,-0.98 z"
       style="fill:#8656d7"
       id="path116" />
    <path
       d="m 257.28,408.57 h 0.06 c 0.85,-0.39 2.49,-1.93 2.32,-2.74 0,-0.19 -0.18,-0.43 -0.65,-0.48 a 1.23,1.23 0 0 0 -0.93,0.29 c -0.87,0.75 -1,2.68 -1,2.76 a 0.18,0.18 0 0 0 0.08,0.15 0.17,0.17 0 0 0 0.12,0.02 z m 1.61,-2.9 h 0.1 c 0.31,0 0.33,0.15 0.34,0.19 0.1,0.49 -1,1.7 -1.86,2.23 a 3.75,3.75 0 0 1 0.84,-2.2 0.85,0.85 0 0 1 0.58,-0.22 z"
       style="fill:#8656d7"
       id="path117" />
    <path
       d="m 222.18,231.85 6.75,1 -5,6.59 c 0,0 -5.87,-1.06 -5.95,-5.75 z"
       style="fill:#7f3e3b"
       id="path118" />
    <polygon
       points="223.95,239.43 228.93,232.84 233.65,237.43 228.85,243.16 "
       style="fill:#7f3e3b"
       id="polygon118" />
  </g>
  <g
     id="freepik--character-1--inject-45"
     transform="translate(0,-55)">
    <path
       d="m 158.18,177.78 c 0,0 -6.5,-2.78 -11.71,0.55 -5.21,3.33 -0.93,3.92 -6.65,6.53 -5.72,2.61 0.67,6.17 0,9.53 -0.8,4 -7.51,5.72 -3.72,10.39 3.79,4.67 32.33,7.06 35.44,1.25 3.11,-5.81 -4,-5.77 -2.27,-10.71 1.73,-4.94 2.62,-8.12 -2.17,-11.21 -4.79,-3.09 -3.5,-8.61 -8.92,-6.33 z"
       style="fill:#263238"
       id="path119" />
    <path
       d="m 178.17,220 c 0.28,1.62 0.63,3.46 1,5.18 0.37,1.72 0.8,3.5 1.29,5.22 a 84.14,84.14 0 0 0 3.49,10.1 c 0.33,0.83 0.72,1.61 1.08,2.41 l 0.1,0.22 v 0.07 c 0,0 0,0 -0.05,0 a 1,1 0 0 0 -0.62,-0.19 c -0.17,0 -0.12,0.08 0.05,0 a 3.46,3.46 0 0 0 0.71,-0.31 12.07,12.07 0 0 0 1.84,-1.32 63.94,63.94 0 0 0 7.27,-7.78 l 3,1.83 a 43.67,43.67 0 0 1 -6.39,9.89 16.46,16.46 0 0 1 -2.46,2.26 9.74,9.74 0 0 1 -1.75,1 6,6 0 0 1 -2.68,0.52 5.18,5.18 0 0 1 -3.13,-1.27 6.71,6.71 0 0 1 -1,-1.07 c -0.13,-0.18 -0.24,-0.35 -0.34,-0.52 -0.1,-0.17 -0.17,-0.3 -0.23,-0.41 -0.46,-0.87 -1,-1.73 -1.37,-2.61 a 70.61,70.61 0 0 1 -4.26,-10.89 c -0.57,-1.85 -1.09,-3.72 -1.51,-5.61 -0.42,-1.89 -0.81,-3.74 -1.08,-5.8 z"
       style="fill:#ffb573"
       id="path120" />
    <path
       d="m 175.44,212.2 c 2.89,0.54 5.61,12.1 5.61,12.1 l -7.49,5.81 c 0,0 -8.24,-11.31 -6.25,-14.57 1.99,-3.26 3.92,-4.13 8.13,-3.34 z"
       style="fill:#263238"
       id="path121" />
    <polygon
       points="174.06,229.72 175.35,214.82 178.27,226.46 "
       style="opacity:0.2"
       id="polygon121" />
    <path
       d="m 197.17,231.89 5.63,-0.95 -3.29,6.19 c 0,0 -4.43,0.07 -5.82,-2.44 l 0.33,-0.59 a 4.51,4.51 0 0 1 3.15,-2.21 z"
       style="fill:#ffb573"
       id="path122" />
    <polygon
       points="199.51,237.13 202.8,230.94 207.66,232.6 205.71,238.16 "
       style="fill:#ffb573"
       id="polygon122" />
    <polygon
       points="192.09,391.53 185.43,393.36 189.21,408.89 195.87,407.06 "
       style="fill:#ffb573"
       id="polygon123" />
    <path
       d="m 195.87,405.89 -7.44,2.16 a 0.55,0.55 0 0 0 -0.4,0.61 l 0.86,6.13 a 1.11,1.11 0 0 0 1.41,0.87 c 2.58,-0.8 3.79,-1.31 7.06,-2.26 2,-0.59 7.86,-2.06 10.64,-2.87 2.78,-0.81 2.13,-3.6 0.9,-3.51 -5.52,0.39 -9.63,-0.08 -11.8,-1 a 1.8,1.8 0 0 0 -1.23,-0.13 z"
       style="fill:#263238"
       id="path123" />
    <g
       style="opacity:0.2"
       id="g124">
      <polygon
         points="187.38,401.37 185.43,393.36 192.09,391.54 194.03,399.54 "
         id="polygon124" />
    </g>
    <path
       d="m 175.44,212.2 c 0,0 3.36,1 -0.67,41.77 l -28,1.76 c -0.24,-11.41 -0.67,-18.43 -7.58,-41.45 A 82.78,82.78 0 0 1 151,212 a 89.17,89.17 0 0 1 12.7,-0.8 c 5.48,0.12 11.74,1 11.74,1 z"
       style="fill:#8656d7"
       id="path124" />
    <g
       style="opacity:0.4"
       id="g125">
      <path
         d="m 175.44,212.2 c 0,0 3.36,1 -0.67,41.77 l -28,1.76 c -0.24,-11.41 -0.67,-18.43 -7.58,-41.45 A 82.78,82.78 0 0 1 151,212 a 89.17,89.17 0 0 1 12.7,-0.8 c 5.48,0.12 11.74,1 11.74,1 z"
         style="fill:#263238"
         id="path125" />
    </g>
    <path
       d="m 151.35,197.59 c 1.06,4 2.33,11.47 -0.36,14.38 0,0 1.38,4.07 9,3.6 8.35,-0.53 3.73,-4.4 3.73,-4.4 -4.62,-0.8 -4.72,-4.19 -4.13,-7.41 z"
       style="fill:#ffb573"
       id="path126" />
    <path
       d="m 151,212 a 89,89 0 0 1 12.69,-0.8 h 0.84 c 1.13,1.86 1.58,4.8 -0.58,9.28 0,0 -11.42,-3.78 -14.62,-8.29 z"
       style="fill:#ffb573"
       id="path127" />
    <path
       d="m 154.7,200.11 4.86,3.64 a 13.94,13.94 0 0 0 -0.25,2.28 c -1.75,-0.14 -4.52,-1.8 -4.82,-3.61 a 3.82,3.82 0 0 1 0.21,-2.31 z"
       style="opacity:0.2"
       id="path128" />
    <path
       d="m 146.5,190.79 c 2,6.55 2.67,9.37 6.84,12 6.26,3.95 13.88,0.09 13.9,-6.93 0,-6.31 -3.22,-16 -10.35,-17.08 a 9.33,9.33 0 0 0 -10.39,12.01 z"
       style="fill:#ffb573"
       id="path129" />
    <path
       d="m 158.16,178.39 c 0.83,3.17 -6.73,14.33 -10.95,17.39 -4,-4.39 -3.78,-10.06 -2.05,-12.95 1.73,-2.89 5.84,-6 13,-4.44 z"
       style="fill:#263238"
       id="path130" />
    <path
       d="m 158.7,178.49 c 3.35,0.95 6.86,4.92 5,4.76 -1.86,-0.16 -9.94,-3.74 -5,-4.76 z"
       style="fill:#263238"
       id="path131" />
    <path
       d="m 174.77,254 c 0,0 7.86,50.25 10.53,71.12 2.77,21.72 9.59,72.2 9.59,72.2 l -9,2.6 c 0,0 -13.37,-49.47 -17.37,-70.61 -4.35,-23 -14.27,-74 -14.27,-74 z"
       style="fill:#8656d7"
       id="path132" />
    <g
       style="opacity:0.2"
       id="g133">
      <path
         d="m 174.77,254 c 0,0 7.86,50.25 10.53,71.12 2.77,21.72 9.59,72.2 9.59,72.2 l -9,2.6 c 0,0 -13.37,-49.47 -17.37,-70.61 -4.35,-23 -14.27,-74 -14.27,-74 z"
         id="path133" />
    </g>
    <polygon
       points="195.55,393.81 183.66,396.82 185.24,400.44 195.75,397.38 "
       style="fill:#263238"
       id="polygon133" />
    <polygon
       points="177.27,393.27 170.37,393.27 168.85,405.92 175.49,407.77 "
       style="fill:#ffb573"
       id="polygon134" />
    <polygon
       points="177.27,393.27 170.37,393.27 169.5,400.48 176.21,401.94 "
       style="opacity:0.2"
       id="polygon135" />
    <path
       d="m 175.79,407.1 -7.6,-2.09 a 0.62,0.62 0 0 0 -0.7,0.29 l -2.34,5.55 a 1,1 0 0 0 0.68,1.44 c 2.67,0.68 3.42,0.79 6.77,1.71 2.05,0.56 6.94,2.94 12.24,2.94 2.83,0 2.53,-3 1.34,-3.25 -5.33,-1.16 -8.12,-4 -9.4,-5.89 a 1.77,1.77 0 0 0 -0.99,-0.7 z"
       style="fill:#263238"
       id="path135" />
    <path
       d="m 168.41,254.35 c 0,0 26.92,57.5 24.55,75.53 -2.89,21.95 -15.24,68.19 -15.24,68.19 l -9.41,-1.86 c 0,0 5,-46.42 6.94,-67.92 2.14,-23.43 -26.86,-41.61 -28.69,-72.54 z"
       style="fill:#8656d7"
       id="path136" />
    <polygon
       points="179.45,397.05 167.59,394.41 167.41,398.38 178.4,400.8 "
       style="fill:#263238"
       id="polygon136" />
    <path
       d="m 178.05,408.91 a 2.81,2.81 0 0 0 1.78,0.06 1,1 0 0 0 0.6,-0.66 0.44,0.44 0 0 0 -0.1,-0.48 c -0.63,-0.66 -3.83,-0.09 -4.19,0 a 0.21,0.21 0 0 0 -0.15,0.14 0.14,0.14 0 0 0 0.07,0.16 10.68,10.68 0 0 0 1.99,0.78 z m 1.75,-1 a 0.62,0.62 0 0 1 0.27,0.13 0.2,0.2 0 0 1 0,0.2 0.67,0.67 0 0 1 -0.39,0.43 c -0.55,0.24 -1.67,0 -3.05,-0.65 a 9.74,9.74 0 0 1 3.17,-0.1 z"
       style="fill:#8656d7"
       id="path137" />
    <path
       d="m 176.09,408.11 h 0.07 c 0.94,-0.13 3.09,-1.07 3.28,-1.83 0,-0.18 0,-0.43 -0.41,-0.6 a 1.36,1.36 0 0 0 -1,0 5.31,5.31 0 0 0 -2,2.19 0.15,0.15 0 0 0 0,0.16 z m 2.68,-2.15 h 0.1 c 0.27,0.11 0.24,0.22 0.23,0.26 -0.11,0.46 -1.63,1.25 -2.64,1.49 a 4.38,4.38 0 0 1 1.69,-1.74 1,1 0 0 1 0.62,0.03 z"
       style="fill:#8656d7"
       id="path138" />
    <path
       d="m 157.52,190.05 c 0.13,0.55 0.52,0.92 0.87,0.83 0.35,-0.09 0.54,-0.59 0.41,-1.13 -0.13,-0.54 -0.51,-0.91 -0.87,-0.83 -0.36,0.08 -0.54,0.59 -0.41,1.13 z"
       style="fill:#263238"
       id="path139" />
    <path
       d="m 163.64,188.61 c 0.13,0.54 0.52,0.91 0.88,0.83 0.36,-0.08 0.53,-0.59 0.41,-1.13 -0.12,-0.54 -0.52,-0.92 -0.88,-0.83 -0.36,0.09 -0.53,0.59 -0.41,1.13 z"
       style="fill:#263238"
       id="path140" />
    <path
       d="m 163.91,187.55 1.21,-0.69 c 0,0 -0.43,1.14 -1.21,0.69 z"
       style="fill:#263238"
       id="path141" />
    <path
       d="m 162,190 a 14.82,14.82 0 0 0 2.74,3 2.37,2.37 0 0 1 -1.84,0.82 z"
       style="fill:#ed893e"
       id="path142" />
    <path
       d="m 160.43,196.67 a 5.14,5.14 0 0 0 0.82,-0.13 0.17,0.17 0 0 0 0.12,-0.2 0.17,0.17 0 0 0 -0.2,-0.12 4.4,4.4 0 0 1 -3.89,-0.85 0.17,0.17 0 0 0 -0.23,0 0.17,0.17 0 0 0 0,0.24 4.64,4.64 0 0 0 3.38,1.06 z"
       style="fill:#263238"
       id="path143" />
    <path
       d="m 146.13,197.31 a 5,5 0 0 0 3.18,2.12 c 1.73,0.33 2.44,-1.24 1.84,-2.79 -0.54,-1.4 -2.09,-3.25 -3.76,-2.88 a 2.25,2.25 0 0 0 -1.26,3.55 z"
       style="fill:#ffb573"
       id="path144" />
    <path
       d="m 154.77,189.39 a 0.32,0.32 0 0 0 0.29,-0.25 3.89,3.89 0 0 1 2.18,-2.21 0.33,0.33 0 0 0 0.18,-0.43 0.32,0.32 0 0 0 -0.42,-0.18 4.45,4.45 0 0 0 -2.57,2.66 0.32,0.32 0 0 0 0.24,0.4 z"
       style="fill:#263238"
       id="path145" />
    <path
       d="m 164.82,185.35 a 0.36,0.36 0 0 0 0.27,-0.18 0.34,0.34 0 0 0 -0.15,-0.44 3.23,3.23 0 0 0 -3,0 0.32,0.32 0 0 0 -0.11,0.44 0.33,0.33 0 0 0 0.45,0.12 v 0 a 2.6,2.6 0 0 1 2.36,0 0.47,0.47 0 0 0 0.18,0.06 z"
       style="fill:#263238"
       id="path146" />
    <path
       d="m 143.47,223.61 c -0.61,3.66 -1.21,7.41 -1.77,11.12 -0.56,3.71 -1.06,7.43 -1.35,11.11 l -0.1,1.32 a 4.56,4.56 0 0 0 0,0.87 20.87,20.87 0 0 0 0.46,2.4 c 0.44,1.69 1,3.45 1.61,5.2 1.19,3.52 2.6,7.05 4,10.57 l -3.08,1.64 a 94.12,94.12 0 0 1 -5.85,-10.13 52.24,52.24 0 0 1 -2.37,-5.53 21.87,21.87 0 0 1 -0.89,-3.16 10.33,10.33 0 0 1 -0.2,-2 v -1.53 q 0.15,-5.92 0.85,-11.69 c 0.44,-3.86 1,-7.66 1.75,-11.51 z"
       style="fill:#ffb573"
       id="path147" />
    <path
       d="m 139.22,214.28 c -2.75,1 -5.51,10.89 -5.51,10.89 l 11.36,7.09 c 0,0 3.46,-8.31 2.05,-11.85 -1.46,-3.7 -4.77,-7.3 -7.9,-6.13 z"
       style="fill:#263238"
       id="path148" />
    <path
       d="m 198.7,406.32 a 2.61,2.61 0 0 0 1.48,-0.87 0.94,0.94 0 0 0 0.07,-0.85 0.55,0.55 0 0 0 -0.39,-0.34 c -0.94,-0.21 -3.19,1.91 -3.45,2.15 a 0.17,0.17 0 0 0 0,0.19 0.15,0.15 0 0 0 0.16,0.09 11,11 0 0 0 2.13,-0.37 z m 0.78,-1.71 a 0.69,0.69 0 0 1 0.31,0 0.21,0.21 0 0 1 0.15,0.14 0.61,0.61 0 0 1 0,0.56 c -0.3,0.48 -1.37,0.86 -2.91,1 a 8.79,8.79 0 0 1 2.45,-1.7 z"
       style="fill:#8656d7"
       id="path149" />
    <path
       d="m 196.57,406.69 c 0,0 0.05,0 0.06,0 0.69,-0.58 1.84,-2.46 1.5,-3.18 -0.08,-0.17 -0.27,-0.35 -0.72,-0.27 a 1.19,1.19 0 0 0 -0.79,0.52 4.58,4.58 0 0 0 -0.25,2.84 0.17,0.17 0 0 0 0.1,0.13 z m 0.8,-3.15 h 0.1 c 0.29,0 0.34,0.06 0.36,0.09 0.21,0.43 -0.53,1.86 -1.19,2.58 a 3.71,3.71 0 0 1 0.25,-2.29 0.86,0.86 0 0 1 0.48,-0.38 z"
       style="fill:#8656d7"
       id="path150" />
    <path
       d="m 157.78,189 1.22,-0.68 c 0,0 -0.43,1.16 -1.22,0.68 z"
       style="fill:#263238"
       id="path151" />
    <path
       d="m 146.28,254.11 -0.55,2.55 c -0.09,0.2 0.15,0.39 0.48,0.37 L 175,255.21 c 0.25,0 0.45,-0.15 0.46,-0.31 l 0.09,-2.52 c 0,-0.17 -0.22,-0.31 -0.5,-0.29 l -28.32,1.79 a 0.53,0.53 0 0 0 -0.45,0.23 z"
       style="fill:#263238"
       id="path152" />
    <path
       d="m 150.29,257 h -0.76 c -0.15,0 -0.27,-0.06 -0.27,-0.16 l 0.15,-3.27 c 0,-0.1 0.13,-0.18 0.28,-0.19 l 0.76,-0.05 c 0.15,0 0.27,0.06 0.27,0.16 l -0.15,3.27 c -0.01,0.24 -0.13,0.24 -0.28,0.24 z"
       style="fill:#8656d7"
       id="path153" />
    <path
       d="m 172.87,255.62 h -0.75 c -0.16,0 -0.28,-0.07 -0.27,-0.16 l 0.15,-3.28 c 0,-0.09 0.13,-0.18 0.28,-0.19 h 0.76 c 0.15,0 0.27,0.06 0.27,0.15 l -0.15,3.28 c -0.01,0.1 -0.16,0.19 -0.29,0.2 z"
       style="fill:#8656d7"
       id="path154" />
    <path
       d="m 161.58,256.33 -0.76,0.05 c -0.15,0 -0.27,-0.06 -0.27,-0.16 l 0.16,-3.27 c 0,-0.1 0.13,-0.19 0.28,-0.2 h 0.76 c 0.15,0 0.27,0.06 0.26,0.15 l -0.15,3.28 c 0,0.05 -0.13,0.14 -0.28,0.15 z"
       style="fill:#8656d7"
       id="path155" />
    <path
       d="m 146.14,265.53 5.67,4.84 -6.93,1.14 c 0,0 -2.73,-3.48 -1.58,-6.11 z"
       style="fill:#ffb573"
       id="path156" />
    <polygon
       points="144.88,271.51 151.81,270.37 152.96,276.06 147.11,276.7 "
       style="fill:#ffb573"
       id="polygon156" />
  </g>
  <g
     id="freepik--Brainstorm--inject-45"
     transform="translate(0,-55)">
    <circle
       cx="304.39001"
       cy="115.97"
       r="49.799999"
       style="fill:#8656d7"
       id="circle156" />
    <path
       d="m 203.69,96.18 -0.66,-0.75 a 22,22 0 0 1 14.63,-5.58 v 1 a 21,21 0 0 0 -13.97,5.33 z"
       style="fill:#8656d7"
       id="path157" />
    <path
       d="m 198,104.49 -0.94,-0.35 a 21.85,21.85 0 0 1 2.29,-4.46 l 0.83,0.56 a 21.32,21.32 0 0 0 -2.18,4.25 z"
       style="fill:#8656d7"
       id="path158" />
    <circle
       cx="217.66"
       cy="111.87"
       r="18.52"
       transform="rotate(-45,217.65562,111.86409)"
       style="fill:#8656d7"
       id="circle158" />
    <circle
       cx="180.42"
       cy="148.97"
       r="11.36"
       style="fill:#8656d7"
       id="circle159" />
    <circle
       cx="380.64001"
       cy="116.22"
       r="9.0100002"
       style="fill:#8656d7"
       id="circle160" />
    <path
       d="m 330.89,107.33 a 26.5,26.5 0 1 0 -37.39,24.14 v 4.69 h 21.78 v -4.69 a 26.48,26.48 0 0 0 15.61,-24.14 z"
       style="fill:#ffffff"
       id="path160" />
    <polygon
       points="293.5,136.16 315.28,136.16 313.4,148.97 295.38,148.97 "
       style="opacity:0.2"
       id="polygon160" />
    <polygon
       points="299.02,148.97 309.76,148.97 308.84,151.1 299.94,151.1 "
       style="opacity:0.4"
       id="polygon161" />
    <path
       d="m 301.56,113.37 a 11.81,11.81 0 0 0 -3,-4.68 c -3.13,-3.12 -7,-4.17 -8.75,-2.39 -0.9,0.9 -1.11,2.35 -0.58,4.07 a 11.77,11.77 0 0 0 3,4.67 c 2.09,2.1 4.51,3.26 6.42,3.26 a 3.7,3.7 0 0 0 1.3,-0.22 l 1.77,18.14 a 0.66,0.66 0 0 0 0.66,0.6 h 0.06 a 0.66,0.66 0 0 0 0.6,-0.73 l -1.85,-18.91 a 4.09,4.09 0 0 0 0.37,-3.81 z m -8.39,0.73 a 10.58,10.58 0 0 1 -2.65,-4.12 2.77,2.77 0 0 1 0.26,-2.75 1.94,1.94 0 0 1 1.41,-0.48 c 1.43,0 3.51,0.93 5.46,2.88 a 10.43,10.43 0 0 1 2.65,4.12 2.75,2.75 0 0 1 -0.26,2.75 c -1.04,1.08 -4.04,0.37 -6.87,-2.4 z"
       style="fill:#8656d7"
       id="path161" />
    <path
       d="m 318.94,106.3 c -0.91,-0.91 -2.35,-1.12 -4.07,-0.59 a 12.82,12.82 0 0 0 -7.65,7.66 4.11,4.11 0 0 0 0.36,3.81 l -1.85,18.91 a 0.67,0.67 0 0 0 0.6,0.73 h 0.06 a 0.66,0.66 0 0 0 0.66,-0.6 l 1.77,-18.14 a 3.71,3.71 0 0 0 1.31,0.22 c 1.9,0 4.32,-1.16 6.41,-3.26 a 11.77,11.77 0 0 0 3,-4.67 c 0.51,-1.72 0.3,-3.17 -0.6,-4.07 z m -0.68,3.68 a 10.47,10.47 0 0 1 -2.65,4.12 c -2.77,2.77 -5.79,3.48 -6.87,2.4 a 2.75,2.75 0 0 1 -0.26,-2.75 10.54,10.54 0 0 1 2.65,-4.12 v 0 a 10.46,10.46 0 0 1 4.13,-2.65 4.66,4.66 0 0 1 1.35,-0.23 2,2 0 0 1 1.39,0.48 2.75,2.75 0 0 1 0.26,2.77 z"
       style="fill:#8656d7"
       id="path162" />
  </g>
</svg>
