<?xml version="1.0" encoding="UTF-8" standalone="no"?>
<svg
   viewBox="0 0 427.23999 411.29999"
   version="1.1"
   id="svg138"
   width="427.23999"
   height="411.29999"
   xmlns="http://www.w3.org/2000/svg"
   xmlns:svg="http://www.w3.org/2000/svg">
  <defs
     id="defs138" />
  <rect
     style="fill:#999999;stroke-width:0.147402"
     id="rect138"
     width="437.10294"
     height="431.38501"
     x="-5.082592"
     y="-6.988564" />
  <g
     id="freepik--background-complete--inject-25"
     transform="translate(-41.25,-57.23)">
    <rect
       x="389.66"
       y="123.02"
       width="54.810001"
       height="69.199997"
       transform="rotate(-0.23,423.16998,160.28152)"
       style="fill:#ffffff"
       id="rect1" />
    <path
       d="m 389.8,192.33 h 1 2.94 l 11.12,-0.1 39.73,-0.28 -0.21,0.22 c -0.09,-19.76 -0.21,-43.57 -0.33,-69.19 v 0 l 0.26,0.26 -54.81,0.2 0.23,-0.23 c 0,20.51 0.07,37.78 0.09,49.94 v 14.18 c 0,1.63 0,2.89 0,3.76 0,0.42 0,0.74 0,1 0,0.26 0,0.33 0,0.33 0,0 0,-0.1 0,-0.31 v -1 c 0,-0.86 0,-2.1 0,-3.72 0,-3.28 -0.07,-8.06 -0.12,-14.12 -0.08,-12.19 -0.19,-29.51 -0.32,-50.09 v -0.24 h 0.24 l 54.81,-0.25 h 0.26 v 0.26 0 c 0.09,25.62 0.17,49.43 0.24,69.19 v 0.22 h -0.21 -39.88 -11.17 -2.89 c -0.65,-0.01 -0.98,-0.03 -0.98,-0.03 z"
       style="fill:#e0e0e0"
       id="path1" />
    <rect
       x="413.75"
       y="190.67"
       width="7.5999999"
       height="1.85"
       transform="rotate(-0.24,410.22415,189.45833)"
       style="fill:#e0e0e0"
       id="rect2" />
    <rect
       x="409.10999"
       y="147.23"
       width="16.629999"
       height="24.01"
       transform="rotate(-0.23,425.65609,162.77764)"
       style="fill:#e0e0e0"
       id="rect3" />
    <rect
       x="414.54001"
       y="122.08"
       width="7.5999999"
       height="1.58"
       transform="rotate(-0.24,410.36915,120.22603)"
       style="fill:#e0e0e0"
       id="rect4" />
    <polygon
       points="86.88,143.5 136.41,144.74 136.41,78.91 86.88,78.91 "
       style="fill:#e0e0e0"
       id="polygon4" />
    <polygon
       points="89.81,139.79 133.15,141.25 133.15,81.21 89.81,81.21 "
       style="fill:#ffffff"
       id="polygon5" />
    <polygon
       points="96.8,131.7 125.56,131.7 125.56,91.85 96.8,90.76 "
       style="fill:#e0e0e0"
       id="polygon6" />
    <polygon
       points="96.8,90.76 96.8,131.7 125.56,110.67 "
       style="fill:#f5f5f5"
       id="polygon7" />
    <polygon
       points="62.99,222.34 96.8,223.19 96.8,178.26 62.99,178.26 "
       style="fill:#e0e0e0"
       id="polygon8" />
    <polygon
       points="64.99,219.81 94.57,220.81 94.57,179.83 64.99,179.83 "
       style="fill:#ffffff"
       id="polygon9" />
    <polygon
       points="69.76,214.29 89.39,214.29 89.39,187.1 69.76,186.35 "
       style="fill:#e0e0e0"
       id="polygon10" />
    <polygon
       points="69.76,186.35 69.76,214.29 89.39,199.94 "
       style="fill:#f5f5f5"
       id="polygon11" />
    <path
       d="m 388.47,422.32 c -1.33,-1.14 -4.29,-4.73 -2,-8.91 0.84,-1.53 2.62,-2.29 4.23,-3 a 17,17 0 0 0 4.64,-2.39 c 2.51,-2.13 3.21,-5.66 4.87,-8.5 1.92,-3.26 5.5,-5.71 9.27,-5.53 4.33,0.19 7.94,3.71 9.57,7.72 1.63,4.01 1.69,8.46 1.73,12.79 0,2.4 -0.09,5.09 -1.86,6.71 -1.77,1.62 -4.08,1.51 -6.28,1.44 L 389,422"
       style="fill:#f5f5f5"
       id="path11" />
    <path
       d="m 429.88,366.18 h -56.53 l 10.19,60.43 a 6.74,6.74 0 0 0 4.82,5.38 l 0.2,0.06 c 0.17,0 0.33,0.1 0.5,0.13 a 8.8,8.8 0 0 0 1.15,0.13 v 0.06 l 0.28,-0.05 h 25.19 a 7.12,7.12 0 0 0 1.39,-0.13 6.79,6.79 0 0 0 5.71,-5.91 l 4.91,-41.64 0.22,-1.66 v 0 l 1.94,-16.49 z m -10.67,38.55 h -5.8 L 414,387.19 h 6.72 z m 2.07,-17.54 h 5.56 l -2.07,17.54 h -5 z m -16.57,37 -0.35,-15.23 h 8.35 l -0.51,15.23 z m -9,-15.23 h 8.12 l 0.35,15.23 h -7.28 z m 0.63,15.23 h -6.84 c -0.64,-4.11 -1.49,-9.46 -2.4,-15.23 h 8 z m -1,-19.44 -1.34,-17.56 h 9.31 l 0.41,17.54 z m 8.91,0 -0.4,-17.54 h 9.58 l -0.59,17.54 z m -0.5,-21.75 -0.38,-16.24 h 10.74 L 413.58,383 Z m -0.56,0 h -9.55 l -1.26,-16.24 h 10.43 z m -10.11,0 H 383 c -0.36,-2.24 -0.7,-4.36 -1,-6.27 -1.05,-6.57 -1.45,-9 -1.67,-10 h 11.5 z m 0.33,4.21 1.37,17.54 h -8.35 c -0.28,-1.78 -0.57,-3.58 -0.85,-5.38 -0.65,-4.14 -1.31,-8.28 -1.93,-12.16 z m -7.55,17.54 h -5.45 l -3,-17.54 h 5.64 c 0.95,5.4 1.86,11.43 2.82,17.52 z m 0.67,4.21 c 0.83,5.27 1.65,10.47 2.39,15.23 h -5.24 l -2.56,-15.23 z m 26.23,15.23 0.5,-15.23 h 5.58 l -1.3,15.23 z m 1.38,-41.19 0.54,-16.24 h 7.8 l -1.4,16.24 z m -34.35,-16.24 c 0.22,1.18 1.26,7.57 2.64,16.24 h -5.68 L 374,366.74 Z m 42.69,57.43 h -4.37 l 1.31,-15.23 h 4.85 z M 427.33,383 h -5.69 l 1.4,-16.24 h 6.21 z"
       style="fill:#e0e0e0"
       id="path12" />
  </g>
  <g
     id="freepik--Floor--inject-25"
     transform="translate(-41.25,-57.23)">
    <path
       d="m 468.49,432.75 c 0,0.21 -95.65,0.38 -213.61,0.38 -117.96,0 -213.63,-0.13 -213.63,-0.38 0,-0.25 95.63,-0.38 213.63,-0.38 118,0 213.61,0.17 213.61,0.38 z"
       style="fill:#263238"
       id="path13" />
  </g>
  <g
     id="freepik--Sketches--inject-25"
     transform="translate(-41.25,-57.23)">
    <rect
       x="179.87"
       y="107.81"
       width="61.84"
       height="86.290001"
       transform="rotate(0.22,206.02868,148.05297)"
       style="fill:#f5f5f5"
       id="rect13" />
    <path
       d="m 193.89,168.31 h 0.92 2.63 9.85 l -0.14,0.15 c 0,-4.36 -0.05,-9.76 -0.08,-15.94 v -0.2 h 0.19 l 9.65,-0.17 h 0.22 v 0.22 c 0.1,4.92 0.21,10.34 0.33,16.05 l -0.25,-0.24 13.74,0.09 -0.25,0.27 c -0.13,-4.67 -0.25,-9.53 -0.38,-14.5 -0.1,-3.75 -0.2,-7.45 -0.29,-11.06 l 0.1,0.2 L 211,128.29 h 0.3 l -17.67,16 0.06,-0.14 c 0.09,7.44 0.16,13.46 0.21,17.65 0,2.07 0,3.69 0,4.82 v 1.27 a 3,3 0 0 1 0,0.44 1.87,1.87 0 0 1 0,-0.4 c 0,-0.3 0,-0.71 0,-1.23 0,-1.13 -0.07,-2.73 -0.13,-4.79 -0.09,-4.21 -0.23,-10.27 -0.4,-17.75 v -0.08 l 0.06,-0.06 17.57,-16.09 0.14,-0.13 0.16,0.12 19.2,14.74 0.09,0.08 v 0.12 q 0.13,5.41 0.29,11.06 c 0.12,5 0.25,9.83 0.37,14.49 v 0.27 H 231 l -13.74,-0.12 H 217 v -0.24 c -0.1,-5.71 -0.2,-11.13 -0.28,-16 l 0.22,0.22 -9.64,0.13 0.19,-0.2 c 0,6.18 0,11.58 0,15.94 v 0.14 h -0.14 l -9.94,-0.11 h -2.59 -0.66 z"
       style="fill:#263238"
       id="path14" />
    <path
       d="m 183.74,110.43 h 3.83 l 11,0.08 39.93,0.36 h 0.2 v 0.21 c 0,21.94 0,49.39 0,79.11 v 0.26 h -0.67 l -54.15,0.33 h -0.24 V 132.7 c 0,-7 0,-12.61 0,-16.44 0,-1.89 0,-3.35 0,-4.35 0,-0.48 0,-0.85 0,-1.11 0,-0.26 0,-0.37 0,-0.37 0,0 0,0.14 0,0.4 v 1.13 c 0,1 0,2.49 0,4.4 0,3.84 0.06,9.43 0.1,16.49 0.06,14.12 0.14,34.12 0.23,57.69 l -0.23,-0.24 54.15,-0.37 h 0.41 l -0.26,0.26 c 0,-29.72 0,-57.17 0,-79.11 l 0.21,0.21 -39.79,-0.58 -11,-0.19 h -2.9 z"
       style="fill:#263238"
       id="path15" />
    <polygon
       points="246.22,114.64 233.12,102.89 230.92,104.67 243.94,117.59 "
       style="fill:#455a64"
       id="polygon15" />
    <polygon
       points="190.45,196.4 177.34,184.66 175.15,186.43 188.16,199.35 "
       style="fill:#455a64"
       id="polygon16" />
    <path
       d="m 238.47,186.2 a 24.73,24.73 0 0 1 -3.49,0.21 c -2.16,0.06 -5.15,0.11 -8.45,0.14 -3.07,0 -5.88,0 -8,0 l 0.19,-0.2 c 0,1.23 0,2.22 0,2.91 a 4.46,4.46 0 0 1 -0.06,1.07 4,4 0 0 1 -0.15,-1.07 c -0.06,-0.68 -0.13,-1.67 -0.19,-2.89 v -0.2 h 0.21 c 2.09,-0.06 4.89,-0.11 8,-0.13 3.3,0 6.28,0 8.44,0 a 21.72,21.72 0 0 1 3.5,0.16 z"
       style="fill:#263238"
       id="path16" />
    <rect
       x="283.13"
       y="127.11"
       width="43.27"
       height="60.369999"
       transform="rotate(-11.87,304.71518,157.25361)"
       style="fill:#ebebeb"
       id="rect16" />
    <path
       d="m 295.75,171.65 0.16,-0.05 0.47,-0.11 1.8,-0.41 6.71,-1.5 -0.1,0.17 c -0.66,-3 -1.48,-6.67 -2.41,-10.89 v -0.19 h 0.19 l 6.57,-1.53 0.21,-0.05 0.05,0.21 c 0.79,3.35 1.67,7 2.58,10.93 l -0.28,-0.18 9.41,-2 -0.2,0.31 c -0.76,-3.17 -1.56,-6.48 -2.38,-9.86 -0.62,-2.55 -1.22,-5.06 -1.82,-7.52 l 0.14,0.17 -15.27,-7.31 0.29,-0.07 -9.76,13.52 v -0.15 l 2.69,12 c 0.31,1.41 0.55,2.52 0.72,3.31 l 0.19,0.87 a 2.8,2.8 0 0 1 0.05,0.31 c 0,0 0,-0.08 -0.08,-0.27 -0.08,-0.19 -0.13,-0.49 -0.22,-0.83 l -0.8,-3.24 c -0.69,-2.89 -1.68,-7 -2.91,-12.1 v -0.08 -0.07 l 9.68,-13.58 0.11,-0.16 0.18,0.09 15.3,7.27 h 0.11 v 0.12 c 0.59,2.45 1.2,5 1.81,7.52 0.82,3.38 1.62,6.69 2.38,9.86 l 0.06,0.26 -0.26,0.06 -9.42,1.93 h -0.23 v -0.23 c -0.9,-3.89 -1.76,-7.58 -2.54,-10.94 l 0.27,0.17 -6.58,1.59 0.15,-0.24 c 0.89,4.23 1.66,7.93 2.29,10.92 v 0.14 h -0.14 l -6.83,1.36 -1.78,0.34 z"
       style="fill:#263238"
       id="path17" />
    <path
       d="m 280.33,133.54 0.65,-0.16 1.95,-0.42 7.52,-1.57 27.38,-5.63 0.2,-0.05 v 0.21 l 11.68,54.08 0.05,0.25 -0.25,0.06 -0.28,0.06 -37,8.15 h -0.24 l -0.05,-0.23 c -3.45,-16.18 -6.37,-29.9 -8.44,-39.61 -1,-4.8 -1.81,-8.61 -2.37,-11.24 -0.26,-1.29 -0.47,-2.28 -0.61,-3 -0.06,-0.32 -0.11,-0.56 -0.15,-0.75 -0.04,-0.19 0,-0.26 0,-0.25 a 1.23,1.23 0 0 1 0.07,0.27 c 0.05,0.19 0.11,0.45 0.19,0.78 0.16,0.7 0.38,1.71 0.68,3 0.58,2.64 1.43,6.46 2.5,11.28 2.12,9.65 5.11,23.31 8.64,39.4 l -0.29,-0.18 37,-8.2 0.28,-0.06 -0.2,0.31 c -4.33,-20.33 -8.33,-39.11 -11.54,-54.13 l 0.25,0.16 -27.29,5.39 -7.66,1.54 -2,0.38 z"
       style="fill:#263238"
       id="path18" />
    <polygon
       points="323.69,127.26 313.01,121.15 311.76,122.68 322.56,129.61 "
       style="fill:#455a64"
       id="polygon18" />
    <polygon
       points="297.51,191.37 286.82,185.26 285.58,186.79 296.38,193.72 "
       style="fill:#455a64"
       id="polygon19" />
    <path
       d="m 328.87,177.36 a 11.8,11.8 0 0 1 -2.35,0.71 c -1.46,0.37 -3.5,0.85 -5.75,1.35 -2.1,0.47 -4,0.87 -5.46,1.15 l 0.15,-0.24 a 14.34,14.34 0 0 1 0.49,2.74 14.59,14.59 0 0 1 -0.87,-2.64 l -0.05,-0.19 0.2,-0.05 c 1.41,-0.36 3.33,-0.81 5.43,-1.28 2.1,-0.47 4.3,-0.92 5.78,-1.2 a 11.62,11.62 0 0 1 2.43,-0.35 z"
       style="fill:#263238"
       id="path19" />
    <rect
       x="292.5"
       y="55.82"
       width="37.189999"
       height="51.889999"
       transform="rotate(-80.56,311.11143,81.761813)"
       style="fill:#ebebeb"
       id="rect19" />
    <path
       d="m 301.34,90.86 h 0.45 L 303,91 l 4.63,0.58 -0.16,0.12 c 0.27,-2.07 0.6,-4.61 1,-7.52 v -0.19 h 0.19 l 4.56,0.54 h 0.22 v 0.22 c -0.27,2.32 -0.57,4.88 -0.88,7.58 l -0.21,-0.27 6.47,0.93 -0.29,0.23 c 0.24,-2.21 0.5,-4.51 0.76,-6.85 0.2,-1.78 0.4,-3.53 0.59,-5.23 l 0.08,0.21 -8.06,-8.23 h 0.3 l -9.39,6.36 0.08,-0.13 c -0.46,3.46 -0.83,6.28 -1.1,8.29 -0.14,0.95 -0.24,1.71 -0.32,2.28 -0.08,0.57 -0.13,0.81 -0.14,0.82 a 4,4 0 0 1 0.05,-0.76 l 0.23,-2.25 c 0.22,-2 0.53,-4.91 0.92,-8.43 v -0.08 h 0.07 l 9.32,-6.44 0.17,-0.11 0.14,0.14 8.08,8.19 0.09,0.09 v 0.12 c -0.19,1.71 -0.39,3.46 -0.59,5.23 -0.26,2.35 -0.52,4.65 -0.77,6.86 v 0.26 h -0.27 l -6.46,-1 h -0.24 v -0.24 c 0.33,-2.69 0.65,-5.25 0.93,-7.58 l 0.19,0.25 -4.55,-0.58 0.22,-0.17 c -0.42,2.9 -0.78,5.43 -1.08,7.5 v 0.14 h -0.14 l -4.69,-0.75 -1.21,-0.2 a 1.61,1.61 0 0 1 -0.4,-0.07 z"
       style="fill:#263238"
       id="path20" />
    <path
       d="m 284.43,93.92 c 0,0 0,-0.19 0.08,-0.57 0.08,-0.38 0.15,-1 0.27,-1.69 0.25,-1.52 0.62,-3.71 1.08,-6.51 1,-5.68 2.35,-13.81 4,-23.69 v -0.21 h 0.2 l 47,7.58 h 0.25 v 0.26 0.24 c -1.79,11.47 -3.5,22.38 -5,32.18 v 0.24 h -0.23 l -34.36,-5.63 -9.75,-1.62 -2.56,-0.44 -0.66,-0.12 h -0.21 0.25 l 0.68,0.1 2.62,0.39 9.82,1.51 34.09,5.37 -0.27,0.2 c 1.52,-9.81 3.21,-20.72 5,-32.19 v -0.24 l 0.21,0.29 -46.88,-7.67 0.24,-0.17 c -1.76,9.81 -3.21,17.88 -4.22,23.53 l -1.19,6.53 -0.33,1.73 c -0.07,0.39 -0.13,0.6 -0.13,0.6 z"
       style="fill:#263238"
       id="path21" />
    <polygon
       points="292.95,57.23 284.72,63.88 285.56,65.36 294.48,58.87 "
       style="fill:#455a64"
       id="polygon21" />
    <polygon
       points="336.11,98.22 327.88,104.87 328.72,106.35 337.64,99.86 "
       style="fill:#455a64"
       id="polygon22" />
    <path
       d="m 334.68,68.73 a 48.55,48.55 0 0 1 -0.83,7.14 c -0.29,1.83 -0.57,3.49 -0.8,4.73 l -0.17,-0.22 a 10.13,10.13 0 0 1 2.34,0.48 10.14,10.14 0 0 1 -2.39,-0.1 h -0.19 v -0.2 c 0.15,-1.25 0.38,-2.92 0.66,-4.75 a 51.39,51.39 0 0 1 1.38,-7.08 z"
       style="fill:#263238"
       id="path22" />
  </g>
  <g
     id="freepik--Desk--inject-25"
     transform="translate(-41.25,-57.23)">
    <path
       d="m 192.6,277.19 c -0.18,1 0,155.56 0,155.56 h -6.86 V 277.19 Z"
       style="fill:#455a64"
       id="path23" />
    <path
       d="m 311.36,290.78 c -0.18,1 0,141.69 0,141.69 H 304.5 V 290.78 Z"
       style="fill:#455a64"
       id="path24" />
    <path
       d="m 345.86,265 c -0.17,1 0,167.5 0,167.5 H 339 V 265 Z"
       style="fill:#455a64"
       id="path25" />
    <path
       d="m 343.38,219.13 c 0.56,-0.93 0,50.31 0,50.31 l -6.32,1 1.5,-50.67 z"
       style="fill:#455a64"
       id="path26" />
    <path
       d="m 307.7,293.84 c -0.47,1.42 51,-94.19 51,-94.19 L 357.75,195.33 232.58,188.1 185,278.67 Z"
       style="fill:#263238"
       id="path27" />
    <path
       d="M 307.18,290.43 C 307.06,288 357.75,195 357.75,195 L 230,183.25 183.11,275 Z"
       style="fill:#455a64"
       id="path28" />
    <polygon
       points="320.12,197.67 256.75,189.87 225,261.59 247.81,264.43 291.87,269.03 "
       style="fill:#f5f5f5"
       id="polygon28" />
    <path
       d="m 288.26,208.08 a 6.34,6.34 0 0 1 1.05,0.28 10.31,10.31 0 0 1 2.76,1.42 12.1,12.1 0 0 1 3.35,3.59 10.94,10.94 0 0 1 1.61,6.28 12.27,12.27 0 0 1 -2.9,7.29 10.12,10.12 0 0 1 -3.51,2.72 c -1.38,0.64 -2.87,1.11 -4.36,1.64 -0.75,0.27 -1.5,0.54 -2.25,0.85 -0.37,0.15 -0.73,0.32 -1.1,0.49 l -0.54,0.28 a 2.57,2.57 0 0 0 -0.41,0.36 8.53,8.53 0 0 0 -1.41,2 c -0.38,0.72 -0.6,1.56 -1,2.36 a 4.67,4.67 0 0 1 -1.79,2.06 4.74,4.74 0 0 1 -2.74,0.38 l -5.4,-0.63 c -0.91,-0.12 -1.82,-0.25 -2.72,-0.43 a 5.49,5.49 0 0 1 -2.58,-1.11 1.61,1.61 0 0 1 -0.54,-1.41 4.83,4.83 0 0 1 0.5,-1.31 c 0.39,-0.8 0.81,-1.56 1.23,-2.32 l 1.24,-2.25 0.29,-0.56 0.14,-0.28 a 0.54,0.54 0 0 0 0.05,-0.21 4,4 0 0 0 -0.16,-1.16 c -0.41,-1.59 -1,-3.13 -1.29,-4.71 a 12.14,12.14 0 0 1 1.81,-8.79 15.21,15.21 0 0 1 5.76,-5.37 18.53,18.53 0 0 1 6.17,-2 20.6,20.6 0 0 1 4.92,0 c 1.34,0.15 2.37,0.33 3.06,0.45 l 0.79,0.15 a 0.78,0.78 0 0 1 0.27,0.07 h -0.27 l -0.8,-0.1 c -0.7,-0.08 -1.74,-0.23 -3.07,-0.35 a 21.15,21.15 0 0 0 -4.86,0.08 18.54,18.54 0 0 0 -6,2.09 14.74,14.74 0 0 0 -5.56,5.27 11.69,11.69 0 0 0 -1.71,8.46 c 0.31,1.54 0.87,3.06 1.3,4.69 a 4.58,4.58 0 0 1 0.18,1.32 1.07,1.07 0 0 1 -0.1,0.39 l -0.14,0.29 -0.3,0.56 -1.23,2.19 c -0.42,0.76 -0.84,1.52 -1.22,2.3 a 4.69,4.69 0 0 0 -0.45,1.16 1.07,1.07 0 0 0 0.39,1 5.1,5.1 0 0 0 2.33,1 c 0.87,0.18 1.77,0.31 2.68,0.43 l 5.38,0.63 a 4.37,4.37 0 0 0 2.45,-0.32 4.17,4.17 0 0 0 1.57,-1.84 c 0.39,-0.74 0.61,-1.58 1,-2.36 a 9.16,9.16 0 0 1 1.49,-2.11 3.44,3.44 0 0 1 0.53,-0.44 l 0.56,-0.29 1.14,-0.51 c 0.76,-0.31 1.52,-0.58 2.27,-0.84 1.5,-0.52 3,-1 4.33,-1.61 a 9.49,9.49 0 0 0 3.37,-2.58 12,12 0 0 0 2.87,-7 10.68,10.68 0 0 0 -1.5,-6.11 12,12 0 0 0 -3.22,-3.58 11.28,11.28 0 0 0 -2.68,-1.49 c -0.67,-0.34 -1.03,-0.44 -1.03,-0.46 z"
       style="fill:#8656d7"
       id="path29" />
    <path
       d="m 279.61,236.9 a 7.21,7.21 0 0 1 -0.51,1.32 c -0.36,0.83 -0.9,2 -1.52,3.52 -0.31,0.75 -0.63,1.57 -0.95,2.47 a 6.93,6.93 0 0 1 -1.5,2.73 6.31,6.31 0 0 1 -3.11,1.51 13.81,13.81 0 0 1 -3.66,0.28 13.6,13.6 0 0 1 -3.6,-0.7 8.15,8.15 0 0 1 -3,-1.65 3.67,3.67 0 0 1 -1.26,-2.88 6.64,6.64 0 0 1 0.93,-2.55 c 0.73,-1.36 1.34,-2.5 1.82,-3.38 a 7,7 0 0 1 0.73,-1.21 7.17,7.17 0 0 1 -0.55,1.3 c -0.44,0.9 -1,2.07 -1.67,3.46 a 6.39,6.39 0 0 0 -0.83,2.41 3.3,3.3 0 0 0 1.15,2.5 8.15,8.15 0 0 0 2.86,1.52 13.53,13.53 0 0 0 7,0.4 6,6 0 0 0 2.89,-1.35 6.69,6.69 0 0 0 1.43,-2.54 c 0.34,-0.89 0.68,-1.72 1,-2.46 0.67,-1.49 1.26,-2.66 1.67,-3.47 a 8.4,8.4 0 0 1 0.68,-1.23 z"
       style="fill:#8656d7"
       id="path30" />
    <path
       d="m 277.74,241.42 a 10.81,10.81 0 0 1 -2.36,0.06 c -1.45,0 -3.45,-0.1 -5.66,-0.21 -2.21,-0.11 -4.2,-0.25 -5.65,-0.37 a 9.89,9.89 0 0 1 -2.34,-0.31 10.68,10.68 0 0 1 2.35,-0.06 c 1.45,0 3.46,0.1 5.67,0.22 2.21,0.12 4.21,0.24 5.65,0.36 a 9.77,9.77 0 0 1 2.34,0.31 z"
       style="fill:#8656d7"
       id="path31" />
    <path
       d="m 276.2,244.61 a 58,58 0 0 1 -7.68,0.24 55.33,55.33 0 0 1 -7.67,-0.28 57.78,57.78 0 0 1 7.67,-0.24 57.49,57.49 0 0 1 7.68,0.28 z"
       style="fill:#8656d7"
       id="path32" />
    <path
       d="m 270.09,248.43 c 0.05,0 -0.08,0.51 -0.69,1 a 4.09,4.09 0 0 1 -2.83,0.69 4.39,4.39 0 0 1 -1.59,-0.34 1.78,1.78 0 0 1 -1,-1 1.2,1.2 0 0 1 0,-0.93 c 0.1,-0.21 0.21,-0.27 0.24,-0.25 a 1.58,1.58 0 0 0 0.08,1 c 0.25,0.61 1.18,0.94 2.25,1 a 4.38,4.38 0 0 0 2.58,-0.47 c 0.65,-0.36 0.87,-0.75 0.96,-0.7 z"
       style="fill:#8656d7"
       id="path33" />
    <path
       d="m 272.34,239.48 a 5.59,5.59 0 0 1 0.58,-1.17 l 1.75,-3.07 c 0.78,-1.32 1.68,-2.84 2.66,-4.52 a 6,6 0 0 0 1.17,-2.67 2,2 0 0 0 -1.95,-1.85 3.63,3.63 0 0 0 -2.77,1.19 16,16 0 0 0 -1.83,2.42 c -1.09,1.64 -2,3.18 -2.66,4.49 -0.66,1.31 -1.2,2.41 -1.55,3.17 a 6,6 0 0 1 -0.58,1.16 5.87,5.87 0 0 1 0.39,-1.24 c 0.3,-0.78 0.76,-1.91 1.41,-3.25 a 44.23,44.23 0 0 1 2.59,-4.59 16.13,16.13 0 0 1 1.87,-2.53 4.13,4.13 0 0 1 3.17,-1.34 2.55,2.55 0 0 1 2.41,2.32 3.31,3.31 0 0 1 -0.48,1.62 c -0.26,0.47 -0.53,0.88 -0.79,1.31 l -2.73,4.5 -1.9,3 a 7.36,7.36 0 0 1 -0.76,1.05 z"
       style="fill:#8656d7"
       id="path34" />
    <path
       d="m 274.75,219.9 a 9.86,9.86 0 0 1 0.55,3.11 9.66,9.66 0 0 1 0,3.15 9.86,9.86 0 0 1 -0.55,-3.11 9.34,9.34 0 0 1 0,-3.15 z"
       style="fill:#8656d7"
       id="path35" />
    <path
       d="m 274.28,219.33 c 0.06,0 0,0.19 0.12,0.34 0.12,0.15 0.26,0.24 0.42,0.08 0.16,-0.16 0.1,-0.31 -0.07,-0.42 -0.17,-0.11 -0.3,-0.07 -0.34,-0.13 -0.04,-0.06 0.08,-0.27 0.44,-0.22 a 0.64,0.64 0 0 1 0.5,0.36 0.72,0.72 0 0 1 -0.94,0.94 0.67,0.67 0 0 1 -0.36,-0.51 c -0.05,-0.36 0.19,-0.5 0.23,-0.44 z"
       style="fill:#8656d7"
       id="path36" />
    <path
       d="m 285,222.44 a 12.41,12.41 0 0 1 -3,2.56 12.62,12.62 0 0 1 -3.49,1.9 19.89,19.89 0 0 1 3.2,-2.33 19.15,19.15 0 0 1 3.29,-2.13 z"
       style="fill:#8656d7"
       id="path37" />
    <path
       d="m 285.32,221.66 c -0.06,0 0.16,-0.3 0.6,-0.18 a 0.73,0.73 0 0 1 0.49,0.6 0.81,0.81 0 0 1 -1.4,0.66 0.67,0.67 0 0 1 -0.11,-0.79 0.47,0.47 0 0 1 0.49,-0.23 c 0.12,0 0.16,0.11 0.14,0.14 -0.02,0.03 -0.25,0 -0.3,0.25 a 0.31,0.31 0 0 0 0.12,0.29 0.37,0.37 0 0 0 0.39,0.06 0.35,0.35 0 0 0 0.19,-0.33 0.34,0.34 0 0 0 -0.16,-0.31 c -0.21,-0.15 -0.42,-0.09 -0.45,-0.16 z"
       style="fill:#8656d7"
       id="path38" />
    <path
       d="m 285.23,221.77 a 52.59,52.59 0 0 1 -10.12,-2.14 50.26,50.26 0 0 1 10.12,2.14 z"
       style="fill:#8656d7"
       id="path39" />
    <path
       d="m 253.25,234 c 0.06,0.14 -0.8,0.62 -1.9,1.09 a 4.88,4.88 0 0 1 -2.11,0.6 c -0.06,-0.13 0.8,-0.62 1.9,-1.08 a 4.84,4.84 0 0 1 2.11,-0.61 z"
       style="fill:#263238"
       id="path40" />
    <path
       d="m 265.08,203.08 c 0.14,0.06 -4.35,10.55 -10,23.42 -5.65,12.87 -10.38,23.27 -10.51,23.22 -0.13,-0.05 4.36,-10.55 10,-23.43 5.64,-12.88 10.43,-23.29 10.51,-23.21 z"
       style="fill:#263238"
       id="path41" />
    <path
       d="m 286,204.7 c 0.13,0.06 -4.6,11.09 -10.56,24.63 -5.96,13.54 -10.91,24.48 -11,24.42 -0.09,-0.06 4.59,-11.08 10.56,-24.63 5.97,-13.55 10.83,-24.48 11,-24.42 z"
       style="fill:#263238"
       id="path42" />
    <path
       d="m 279.35,251.56 c 0,0.14 -8.15,-0.76 -18.16,-2 -10.01,-1.24 -18.11,-2.39 -18.09,-2.53 0.02,-0.14 8.14,0.75 18.16,2 10.02,1.25 18.11,2.38 18.09,2.53 z"
       style="fill:#263238"
       id="path43" />
    <path
       d="m 285,239.11 a 6.79,6.79 0 0 1 -1.44,-0.08 l -3.89,-0.4 c -3.29,-0.37 -7.82,-0.91 -12.83,-1.53 -5.01,-0.62 -9.53,-1.23 -12.81,-1.68 l -3.87,-0.57 a 8.94,8.94 0 0 1 -1.42,-0.28 6.78,6.78 0 0 1 1.44,0.08 l 3.9,0.4 c 3.28,0.37 7.82,0.9 12.83,1.53 5.01,0.63 9.53,1.22 12.8,1.68 l 3.88,0.57 a 7.69,7.69 0 0 1 1.41,0.28 z"
       style="fill:#263238"
       id="path44" />
    <path
       d="m 298.88,209.24 a 7.1,7.1 0 0 1 -1.44,-0.07 l -3.89,-0.41 c -3.29,-0.36 -7.83,-0.9 -12.83,-1.53 -5,-0.63 -9.54,-1.22 -12.81,-1.68 L 264,205 a 6.75,6.75 0 0 1 -1.41,-0.28 9.06,9.06 0 0 1 1.44,0.08 l 3.89,0.4 c 3.29,0.37 7.83,0.91 12.83,1.53 5,0.62 9.54,1.23 12.81,1.69 l 3.88,0.56 a 8.94,8.94 0 0 1 1.44,0.26 z"
       style="fill:#263238"
       id="path45" />
    <path
       d="m 266.28,203.79 c 0.08,0.12 -0.6,0.64 -1.51,1.16 -0.91,0.52 -1.7,0.83 -1.77,0.71 -0.07,-0.12 0.6,-0.65 1.51,-1.16 0.91,-0.51 1.7,-0.84 1.77,-0.71 z"
       style="fill:#263238"
       id="path46" />
    <path
       d="m 248,246.29 a 6.17,6.17 0 0 1 -2.23,1.24 6.6,6.6 0 0 1 -2.44,0.76 6.34,6.34 0 0 1 2.23,-1.24 6.55,6.55 0 0 1 2.44,-0.76 z"
       style="fill:#263238"
       id="path47" />
    <path
       d="m 266.69,250.86 a 6.88,6.88 0 0 1 0.25,-1.67 l 0.18,0.29 c -0.46,0 -1,-0.11 -1.57,-0.19 l 0.28,-0.18 v 0 c -0.19,0.58 -0.37,1.12 -0.53,1.57 l -0.18,-0.29 a 6.39,6.39 0 0 1 1.57,0.45 c 0.06,0.07 -0.57,0.09 -1.64,0 h -0.25 l 0.07,-0.27 c 0.12,-0.46 0.28,-1 0.46,-1.59 v 0 l 0.07,-0.21 h 0.22 l 1.57,0.26 0.26,0.06 -0.08,0.23 c -0.37,1.04 -0.64,1.62 -0.68,1.54 z"
       style="fill:#263238"
       id="path48" />
    <polygon
       points="324.25,263.5 307.7,293.84 358.7,263.5 "
       style="fill:#263238"
       id="polygon48" />
    <polygon
       points="323.05,203.44 314.29,192.53 309.78,193.88 320.92,207.56 "
       style="fill:#263238"
       id="polygon49" />
    <polygon
       points="327.52,257.46 313.48,283.37 358.7,263.5 358.7,258.12 "
       style="fill:#263238"
       id="polygon50" />
  </g>
  <g
     id="freepik--Character--inject-25"
     transform="translate(-41.25,-57.23)">
    <rect
       x="218.08"
       y="370.45999"
       width="5.48"
       height="98.07"
       style="fill:#455a64"
       id="rect50" />
    <path
       d="m 264,362.71 c 0,7.23 -18.09,13.08 -40.42,13.08 -22.33,0 -40.42,-5.85 -40.42,-13.08 0,-2.26 -1,-7 0.44,-11.55 2.49,-7.57 24.65,-1.52 40,-1.52 16.46,0 37.21,-3 39.84,4.28 1.14,3.29 0.56,6.9 0.56,8.79 z"
       style="fill:#263238"
       id="path50" />
    <ellipse
       cx="223.56"
       cy="353.10001"
       rx="40.419998"
       ry="13.08"
       style="fill:#455a64"
       id="ellipse50" />
    <path
       d="m 223.46,419.21 c 0,0 30.63,-2.1 32,40.61 h -5 c 0,0 2.5,-35.05 -27.08,-36.05 V 420"
       style="fill:#455a64"
       id="path51" />
    <path
       d="m 219.8,419.21 c 0,0 -30.63,-2.1 -32,40.61 h 5 c 0,0 -2.5,-35.05 27.08,-36.05 V 420"
       style="fill:#455a64"
       id="path52" />
    <rect
       x="244.33"
       y="203.85001"
       width="48.389999"
       height="5.5900002"
       transform="matrix(0.99,-0.13,0.13,0.99,-24.6,36.69)"
       style="fill:#8656d7"
       id="rect52" />
    <path
       d="m 259,417.84 4.66,-9.75 -18.21,-8.85 -7,14.19 1.09,0.62 c 4.89,2.73 25.05,13.5 28.91,14.11 4.31,0.69 -9.45,-10.32 -9.45,-10.32 z"
       style="fill:#8656d7"
       id="path53" />
    <g
       style="opacity:0.3"
       id="g54">
      <path
         d="m 245.13,416.5 a 7,7 0 0 0 -0.44,-5 6.85,6.85 0 0 0 -3.61,-3.4 l -2.48,5.09 z"
         style="fill:#ffffff"
         id="path54" />
    </g>
    <path
       d="m 265.58,423.49 c 0,0 4.66,4.2 3.55,4.76 -1.11,0.56 -21.9,-9.55 -30.67,-14.82 l 0.22,-0.39 24.15,12 c 0,0 1.67,-2.04 2.75,-1.55 z"
       style="opacity:0.3;fill:#ffffff"
       id="path55" />
    <path
       d="m 238.4,412.89 0.3,0.19 0.87,0.49 3.24,1.75 c 2.75,1.46 6.57,3.43 10.83,5.51 4.26,2.08 8.17,3.88 11,5.15 l 3.38,1.47 0.92,0.39 0.33,0.11 -0.31,-0.16 -0.9,-0.43 -3.34,-1.54 c -2.83,-1.31 -6.72,-3.13 -11,-5.21 -4.28,-2.08 -8.09,-4 -10.86,-5.44 l -3.27,-1.69 -0.9,-0.45 a 1.3,1.3 0 0 0 -0.29,-0.14 z"
       style="fill:#263238"
       id="path56" />
    <path
       d="m 262.68,425.33 a 8.79,8.79 0 0 1 1.39,-1.28 7.78,7.78 0 0 1 1.75,-0.71 2.66,2.66 0 0 0 -1.88,0.51 2.74,2.74 0 0 0 -1.26,1.48 z"
       style="fill:#263238"
       id="path57" />
    <path
       d="m 258.64,420 c 0,0.06 0.45,-0.13 0.91,-0.42 0.46,-0.29 0.83,-0.57 0.79,-0.63 a 2.17,2.17 0 0 0 -0.91,0.42 c -0.43,0.28 -0.83,0.56 -0.79,0.63 z"
       style="fill:#263238"
       id="path58" />
    <path
       d="m 257.55,418.49 c 0,0.07 0.4,0 0.85,-0.11 0.45,-0.11 0.8,-0.29 0.78,-0.35 -0.02,-0.06 -0.4,0 -0.85,0.11 -0.45,0.11 -0.8,0.29 -0.78,0.35 z"
       style="fill:#263238"
       id="path59" />
    <path
       d="m 257.45,416.32 c 0,0.06 0.37,0.32 0.89,0.59 a 2.37,2.37 0 0 0 1,0.36 c 0,-0.06 -0.37,-0.32 -0.89,-0.58 a 2.31,2.31 0 0 0 -1,-0.37 z"
       style="fill:#263238"
       id="path60" />
    <path
       d="m 257.72,415 c -0.05,0.05 0.32,0.48 0.91,0.83 a 2.08,2.08 0 0 0 1.17,0.39 6.14,6.14 0 0 0 -1.05,-0.6 6.52,6.52 0 0 0 -1.03,-0.62 z"
       style="fill:#263238"
       id="path61" />
    <path
       d="m 260,418.7 a 3.7,3.7 0 0 0 1.17,0.57 8.25,8.25 0 0 0 1.38,0.33 3.94,3.94 0 0 0 0.86,0 0.76,0.76 0 0 0 0.47,-0.22 0.54,0.54 0 0 0 0,-0.56 2.39,2.39 0 0 0 -3,-0.66 2.18,2.18 0 0 0 -0.76,0.6 c -0.15,0.17 -0.2,0.29 -0.19,0.3 a 3.64,3.64 0 0 1 1,-0.74 2.33,2.33 0 0 1 1.32,-0.17 2,2 0 0 1 1.34,0.78 c 0.12,0.23 -0.06,0.41 -0.32,0.43 a 3.58,3.58 0 0 1 -0.8,0 8.46,8.46 0 0 1 -1.35,-0.27 c -0.62,-0.21 -1.07,-0.42 -1.12,-0.39 z"
       style="fill:#263238"
       id="path62" />
    <path
       d="m 260.31,418.91 c 0,0 0.32,-0.19 0.53,-0.75 a 2.16,2.16 0 0 0 0.09,-1 1.3,1.3 0 0 0 -0.68,-1.07 0.51,0.51 0 0 0 -0.62,0.37 1.34,1.34 0 0 0 -0.06,0.62 3.67,3.67 0 0 0 0.21,1 c 0.19,0.54 0.41,0.82 0.44,0.8 0.03,-0.02 -0.13,-0.32 -0.28,-0.85 a 4.06,4.06 0 0 1 -0.14,-0.94 c 0,-0.32 0.06,-0.82 0.38,-0.73 0.32,0.09 0.46,0.55 0.53,0.87 a 2.14,2.14 0 0 1 0,0.92 5.58,5.58 0 0 1 -0.4,0.76 z"
       style="fill:#263238"
       id="path63" />
    <path
       d="m 241.2,408.09 c 0,0 0.55,0.2 1.32,0.7 a 6.58,6.58 0 0 1 2.35,2.64 6.51,6.51 0 0 1 0.57,3.48 c -0.1,0.92 -0.33,1.46 -0.29,1.47 0.04,0.01 0.09,-0.12 0.18,-0.37 a 4.74,4.74 0 0 0 0.28,-1.07 6.14,6.14 0 0 0 -3,-6.3 5.75,5.75 0 0 0 -1,-0.46 c -0.26,-0.08 -0.41,-0.11 -0.41,-0.09 z"
       style="fill:#263238"
       id="path64" />
    <path
       d="m 246.78,401.43 a 33,33 0 0 0 -2,3.66 34.23,34.23 0 0 0 -1.76,3.78 37,37 0 0 0 2,-3.67 36,36 0 0 0 1.76,-3.77 z"
       style="fill:#263238"
       id="path65" />
    <path
       d="m 248.28,415.84 a 16.47,16.47 0 0 0 5.3,2.64 c 0,-0.07 -1.2,-0.57 -2.66,-1.3 -1.46,-0.73 -2.6,-1.4 -2.64,-1.34 z"
       style="fill:#263238"
       id="path66" />
    <path
       d="m 244.72,414.1 c -0.07,0 0,0.3 0,0.63 0,0.33 -0.06,0.6 0,0.63 0.06,0.03 0.24,-0.24 0.25,-0.62 0.01,-0.38 -0.19,-0.67 -0.25,-0.64 z"
       style="fill:#263238"
       id="path67" />
    <path
       d="m 244.19,411.77 c -0.07,0 0,0.27 0.05,0.55 0.05,0.28 0.23,0.49 0.29,0.47 0.06,-0.02 0,-0.27 -0.05,-0.55 -0.05,-0.28 -0.23,-0.49 -0.29,-0.47 z"
       style="fill:#263238"
       id="path68" />
    <path
       d="m 242.64,410.07 c 0,0.07 0.22,0.18 0.44,0.41 0.22,0.23 0.35,0.46 0.42,0.44 0.07,-0.02 0,-0.35 -0.24,-0.62 -0.24,-0.27 -0.61,-0.3 -0.62,-0.23 z"
       style="fill:#263238"
       id="path69" />
    <path
       d="m 241.44,409 c -0.05,0 0,0.19 0.13,0.32 0.13,0.13 0.27,0.2 0.32,0.16 0.05,-0.04 0,-0.19 -0.14,-0.32 -0.14,-0.13 -0.26,-0.16 -0.31,-0.16 z"
       style="fill:#263238"
       id="path70" />
    <path
       d="m 259.51,428 5.86,-9.09 -17,-11.08 -8.71,13.2 1,0.76 c 4.5,3.32 23.14,16.55 26.89,17.64 4.24,1.26 -8.04,-11.43 -8.04,-11.43 z"
       style="fill:#8656d7"
       id="path71" />
    <g
       style="opacity:0.3"
       id="g72">
      <path
         d="m 245.94,425 a 7,7 0 0 0 0.2,-5 6.83,6.83 0 0 0 -3.14,-3.9 l -3.1,4.73 z"
         style="fill:#ffffff"
         id="path72" />
    </g>
    <path
       d="m 265.35,434.46 c 0,0 4.09,4.76 2.92,5.18 -1.17,0.42 -20.52,-12.24 -28.56,-18.58 l 0.27,-0.36 22.44,15 c 0,0 1.91,-1.84 2.93,-1.24 z"
       style="opacity:0.3;fill:#ffffff"
       id="path73" />
    <path
       d="m 239.72,420.52 0.27,0.22 0.81,0.6 3,2.15 c 2.54,1.79 6.08,4.23 10.05,6.83 3.97,2.6 7.62,4.88 10.27,6.49 l 3.17,1.89 0.87,0.5 a 1.6,1.6 0 0 0 0.31,0.16 1.88,1.88 0 0 0 -0.29,-0.2 l -0.84,-0.54 -3.12,-1.95 c -2.64,-1.65 -6.27,-3.95 -10.24,-6.55 -3.97,-2.6 -7.52,-5 -10.08,-6.78 l -3,-2.08 -0.83,-0.56 a 1.15,1.15 0 0 0 -0.35,-0.18 z"
       style="fill:#263238"
       id="path74" />
    <path
       d="m 262.24,435.93 a 8,8 0 0 1 1.54,-1.1 8.84,8.84 0 0 1 1.82,-0.49 2.76,2.76 0 0 0 -1.93,0.27 2.7,2.7 0 0 0 -1.43,1.32 z"
       style="fill:#263238"
       id="path75" />
    <path
       d="m 258.9,430.12 a 2.27,2.27 0 0 0 1,-0.3 c 0.51,-0.23 0.89,-0.47 0.86,-0.53 a 2.27,2.27 0 0 0 -1,0.3 c -0.5,0.23 -0.88,0.47 -0.86,0.53 z"
       style="fill:#263238"
       id="path76" />
    <path
       d="m 258,428.49 c 0,0.07 0.39,0.07 0.85,0 0.46,-0.07 0.84,-0.19 0.83,-0.25 -0.01,-0.06 -0.4,-0.07 -0.86,0 -0.46,0.07 -0.82,0.19 -0.82,0.25 z"
       style="fill:#263238"
       id="path77" />
    <path
       d="m 258.19,426.33 c 0,0.05 0.32,0.36 0.81,0.69 a 2.64,2.64 0 0 0 0.94,0.49 c 0,-0.06 -0.32,-0.37 -0.81,-0.7 -0.49,-0.33 -0.91,-0.54 -0.94,-0.48 z"
       style="fill:#263238"
       id="path78" />
    <path
       d="m 258.63,425 c -0.06,0 0.25,0.52 0.8,0.94 a 2,2 0 0 0 1.1,0.53 c 0,-0.07 -0.44,-0.33 -0.95,-0.73 A 8.1,8.1 0 0 0 258.63,425 Z"
       style="fill:#263238"
       id="path79" />
    <path
       d="m 260.45,429 a 3.68,3.68 0 0 0 1.09,0.7 7.16,7.16 0 0 0 1.33,0.5 3.47,3.47 0 0 0 0.84,0.17 0.75,0.75 0 0 0 0.49,-0.17 0.52,0.52 0 0 0 0.12,-0.54 2.38,2.38 0 0 0 -2.85,-1 2.2,2.2 0 0 0 -0.83,0.49 c -0.17,0.16 -0.24,0.27 -0.22,0.28 a 3.74,3.74 0 0 1 1.1,-0.61 2.4,2.4 0 0 1 1.33,0 2,2 0 0 1 1.23,0.94 c 0.09,0.24 -0.11,0.4 -0.37,0.39 a 5.22,5.22 0 0 1 -0.79,-0.14 8.64,8.64 0 0 1 -1.31,-0.45 c -0.73,-0.31 -1.14,-0.56 -1.16,-0.56 z"
       style="fill:#263238"
       id="path80" />
    <path
       d="m 260.69,429.25 c 0,0 0.35,-0.15 0.62,-0.67 a 2.22,2.22 0 0 0 0.23,-1 1.33,1.33 0 0 0 -0.55,-1.15 0.52,0.52 0 0 0 -0.66,0.29 1.23,1.23 0 0 0 -0.13,0.6 3.82,3.82 0 0 0 0.08,1 2,2 0 0 0 0.33,0.85 c 0,0 -0.09,-0.34 -0.16,-0.88 a 4.15,4.15 0 0 1 0,-0.95 c 0,-0.33 0.17,-0.81 0.48,-0.68 0.31,0.13 0.39,0.6 0.41,0.93 a 2.12,2.12 0 0 1 -0.15,0.91 4.15,4.15 0 0 1 -0.5,0.75 z"
       style="fill:#263238"
       id="path81" />
    <path
       d="m 243.1,416.11 c 0,0 0.52,0.27 1.23,0.86 a 6.59,6.59 0 0 1 2,2.92 6.49,6.49 0 0 1 0.13,3.52 c -0.22,0.9 -0.51,1.4 -0.47,1.42 a 1.11,1.11 0 0 0 0.22,-0.34 5.49,5.49 0 0 0 0.42,-1 6.24,6.24 0 0 0 -0.07,-3.65 6.17,6.17 0 0 0 -2.11,-3 5.18,5.18 0 0 0 -0.95,-0.59 1.28,1.28 0 0 0 -0.4,-0.14 z"
       style="fill:#263238"
       id="path82" />
    <path
       d="m 249.48,410.21 a 33.84,33.84 0 0 0 -2.43,3.38 36.63,36.63 0 0 0 -2.22,3.52 33.36,33.36 0 0 0 2.42,-3.38 36.61,36.61 0 0 0 2.23,-3.52 z"
       style="fill:#263238"
       id="path83" />
    <path
       d="m 249.15,424.69 a 11.88,11.88 0 0 0 2.32,1.87 11.4,11.4 0 0 0 2.6,1.42 c 0,-0.06 -1.11,-0.72 -2.47,-1.63 -1.36,-0.91 -2.4,-1.71 -2.45,-1.66 z"
       style="fill:#263238"
       id="path84" />
    <path
       d="m 245.84,422.51 c -0.07,0 -0.07,0.3 -0.12,0.63 -0.05,0.33 -0.14,0.59 -0.08,0.62 0.06,0.03 0.27,-0.21 0.32,-0.59 0.05,-0.38 -0.06,-0.67 -0.12,-0.66 z"
       style="fill:#263238"
       id="path85" />
    <path
       d="m 245.6,420.14 c -0.06,0 -0.07,0.26 0,0.55 0.07,0.29 0.16,0.52 0.23,0.51 0.07,-0.01 0.07,-0.27 0,-0.56 -0.07,-0.29 -0.16,-0.52 -0.23,-0.5 z"
       style="fill:#263238"
       id="path86" />
    <path
       d="m 244.28,418.25 c 0,0.07 0.2,0.21 0.39,0.46 0.19,0.25 0.29,0.51 0.36,0.5 0.07,-0.01 0.08,-0.34 -0.16,-0.65 -0.24,-0.31 -0.57,-0.37 -0.59,-0.31 z"
       style="fill:#263238"
       id="path87" />
    <path
       d="m 243.23,417.08 c -0.06,0 0,0.19 0.09,0.34 0.09,0.15 0.23,0.23 0.29,0.19 0.06,-0.04 0,-0.19 -0.09,-0.33 -0.09,-0.14 -0.24,-0.28 -0.29,-0.2 z"
       style="fill:#263238"
       id="path88" />
    <polygon
       points="262.02,424.13 244.93,412.79 243.89,414.73 260.98,425.74 "
       style="opacity:0.2"
       id="polygon88" />
    <polygon
       points="259.16,412.07 284.83,353.1 261.42,339.51 241.43,405.19 "
       style="fill:#263238"
       id="polygon89" />
    <path
       d="m 219.92,355.69 c 0,0 69.38,-17.28 71.27,-18.12 0,0 7.74,-22.41 -8.49,-30.89 -15.45,-8.08 -66.79,19.25 -66.79,19.25 z"
       style="fill:#263238"
       id="path89" />
    <path
       d="m 197.9,351.23 c 7.92,1.21 16.84,4 22,4.46 14,1.28 20.67,-4.45 32.31,-1.33 0.06,-8.5 -0.57,-24.25 -0.57,-24.25 l -64.77,-8.59 c 0,0 1.2,22.57 11.03,29.71 z"
       style="fill:#263238"
       id="path90" />
    <path
       d="m 315.86,350.15 v 0 c 1.87,-3.48 3.26,-7.62 2.48,-11.57 -1.55,-7.85 -10.95,-8.71 -20.76,-9.89 -22.05,-2.66 -50.67,-6.43 -50.67,-6.43 l 5.36,32.11 26.11,1.89 -35.69,55.07 25.45,17.07 46.38,-76 c 0.28,-0.44 0.56,-0.91 0.84,-1.38 z"
       style="fill:#263238"
       id="path91" />
    <path
       d="m 295.54,328.44 a 13.22,13.22 0 0 1 -1.78,-0.06 c -1.15,-0.07 -2.81,-0.2 -4.85,-0.4 -4.09,-0.38 -9.73,-1.06 -15.94,-1.88 -6.21,-0.82 -11.84,-1.55 -15.92,-2 l -4.83,-0.56 a 10.23,10.23 0 0 1 -1.76,-0.26 13.22,13.22 0 0 1 1.78,0.06 c 1.15,0.07 2.81,0.2 4.85,0.4 4.09,0.38 9.73,1.06 15.94,1.88 6.21,0.82 11.84,1.55 15.92,2 l 4.83,0.56 a 10.23,10.23 0 0 1 1.76,0.26 z"
       style="fill:#455a64"
       id="path92" />
    <path
       d="m 279.24,325.34 c 0.07,0.13 -0.14,0.39 -0.42,0.66 -0.28,0.27 -0.56,0.47 -0.68,0.39 -0.12,-0.08 0,-0.45 0.32,-0.77 0.32,-0.32 0.71,-0.4 0.78,-0.28 z"
       style="fill:#455a64"
       id="path93" />
    <path
       d="m 279.56,353.37 a 2.7,2.7 0 0 1 -0.33,0.57 l -1.05,1.59 -3.9,5.78 c -3.29,4.89 -7.79,11.67 -12.62,19.25 -4.83,7.58 -9.1,14.51 -12.15,19.55 -1.5,2.48 -2.72,4.5 -3.6,6 l -1,1.61 a 2.65,2.65 0 0 1 -0.38,0.55 4.76,4.76 0 0 1 0.29,-0.6 c 0.23,-0.43 0.54,-1 0.91,-1.66 0.8,-1.44 2,-3.51 3.47,-6.06 3,-5.09 7.18,-12.06 12,-19.65 4.82,-7.59 9.39,-14.33 12.76,-19.16 1.68,-2.42 3.06,-4.37 4,-5.7 l 1.13,-1.53 a 3.77,3.77 0 0 1 0.47,-0.54 z"
       style="fill:#455a64"
       id="path94" />
    <path
       d="m 277.58,356.2 a 24.42,24.42 0 0 1 -3.48,0 c -2.15,-0.07 -5.11,-0.17 -8.39,-0.36 -3.28,-0.19 -6.24,-0.48 -8.37,-0.76 -1.07,-0.14 -1.93,-0.27 -2.52,-0.38 a 3.25,3.25 0 0 1 -0.92,-0.22 26.88,26.88 0 0 1 3.48,0.23 c 2.14,0.19 5.09,0.42 8.36,0.61 3.27,0.19 6.24,0.35 8.38,0.51 a 22.84,22.84 0 0 1 3.46,0.37 z"
       style="fill:#455a64"
       id="path95" />
    <path
       d="m 297.41,229 c 0,0 1.16,-1.54 2.49,-0.55 1.33,0.99 7.19,5.73 7.19,5.73 l 4,10.84 -5.69,10.39 -9.82,-4.21 a 46.12,46.12 0 0 1 2.14,-7.12 c 0,0 -6.59,-5.1 -4.54,-7.11 0,0 0.54,-1 3.34,1.32 l 2.79,2.32 c 0,0 -4.9,-6.84 -4.59,-8.4 0,0 0,0 0,0 a 1.92,1.92 0 0 1 2.42,-1.7 v 0 z"
       style="fill:#ffbe9d"
       id="path96" />
    <path
       d="m 291.24,231.68 4.05,1 17.6,15.55 a 1.54,1.54 0 0 1 0.15,2.17 v 0 a 1.54,1.54 0 0 1 -2.19,0.17 l -17.54,-15.13 z"
       style="fill:#8656d7"
       id="path97" />
    <path
       d="m 310.54,250.29 1.94,-2.44 0.66,0.65 a 1.54,1.54 0 0 1 0.09,2.07 v 0 a 1.53,1.53 0 0 1 -2.21,0.15 z"
       style="opacity:0.4;fill:#ffffff"
       id="path98" />
    <path
       d="m 291.91,232.8 0.68,-0.8 2.76,0.71 a 0.93,0.93 0 0 1 0,0.93 c -0.27,0.35 -0.79,0.06 -0.79,0.06 a 1.1,1.1 0 0 1 0,1 c -0.25,0.36 -0.87,0.21 -0.87,0.21 a 0.51,0.51 0 0 1 -0.07,0.78 l -0.25,-0.22 z"
       style="opacity:0.4;fill:#ffffff"
       id="path99" />
    <path
       d="m 294.51,233.7 17.49,14.67 -0.92,1.15 -17.45,-14.61 a 0.84,0.84 0 0 0 0.89,-0.29 0.92,0.92 0 0 0 -0.01,-0.92 z"
       style="opacity:0.4"
       id="path100" />
    <path
       d="m 296.2,248.21 a 39.2,39.2 0 0 0 1.87,-4.87 c 0.22,-1.21 -1.89,-9.08 1.26,-9.7 l 1,0.47 2.67,12.66 -5.23,5 z"
       style="fill:#ffbe9d"
       id="path101" />
    <path
       d="m 303.64,239.14 c -0.09,0 -0.26,-0.73 -0.81,-1.83 a 10.18,10.18 0 0 0 -2.92,-3.67 11.22,11.22 0 0 1 -2.11,-1.72 2.86,2.86 0 0 1 -0.78,-2.15 1.9,1.9 0 0 1 0.78,-1.34 c 0.32,-0.21 0.54,-0.19 0.54,-0.17 0,0.02 -0.18,0.1 -0.41,0.33 a 1.78,1.78 0 0 0 -0.54,1.21 2.64,2.64 0 0 0 0.77,1.81 13.55,13.55 0 0 0 2.06,1.61 9.4,9.4 0 0 1 2.95,3.94 4.66,4.66 0 0 1 0.47,1.98 z"
       style="fill:#eb996e"
       id="path102" />
    <path
       d="m 302.37,244.81 a 5.8,5.8 0 0 1 -0.26,-1 c -0.14,-0.65 -0.42,-1.56 -0.73,-2.71 A 15.71,15.71 0 0 1 301,239.17 c -0.09,-0.7 -0.13,-1.45 -0.25,-2.21 a 7.39,7.39 0 0 0 -0.26,-1.13 7.48,7.48 0 0 0 -0.44,-1.09 0.34,0.34 0 0 0 -0.33,-0.17 1.79,1.79 0 0 0 -0.52,0.18 2.1,2.1 0 0 0 -0.83,0.84 4.7,4.7 0 0 0 -0.56,2.41 11.66,11.66 0 0 0 0.3,2.39 9.37,9.37 0 0 1 0.25,2.26 5.07,5.07 0 0 1 -0.52,1.94 7.57,7.57 0 0 0 -0.92,2.59 6.36,6.36 0 0 0 0.05,1 1.51,1.51 0 0 1 -0.25,-1 7,7 0 0 1 0.78,-2.73 5,5 0 0 0 0.43,-1.8 9.45,9.45 0 0 0 -0.29,-2.15 11.43,11.43 0 0 1 -0.34,-2.49 5,5 0 0 1 0.63,-2.68 3.48,3.48 0 0 1 0.43,-0.58 1.79,1.79 0 0 1 0.61,-0.45 1.91,1.91 0 0 1 0.72,-0.23 0.84,0.84 0 0 1 0.77,0.38 5.85,5.85 0 0 1 0.5,1.24 6.91,6.91 0 0 1 0.26,1.21 c 0.11,0.8 0.14,1.55 0.21,2.23 a 15.54,15.54 0 0 0 0.31,1.89 c 0.26,1.15 0.49,2.1 0.57,2.76 a 3.42,3.42 0 0 1 0.06,1.03 z"
       style="fill:#eb996e"
       id="path103" />
    <polygon
       points="245.7,219.5 217.57,252.98 204.94,235.28 231.92,209.16 "
       style="fill:#8656d7"
       id="polygon103" />
    <polygon
       points="245.7,219.5 217.57,252.98 204.94,235.28 231.92,209.16 "
       style="opacity:0.4"
       id="polygon104" />
    <path
       d="m 248.19,206.48 12.22,-1.61 c -0.89,-0.75 -3.8,-2.72 -11,-4 -9.1,-1.58 -16.8,8.76 -16.8,8.76 l 11.18,8.46 4.17,-4.16 c 0,0 6.46,-0.94 10,-1.75 a 3.12,3.12 0 0 0 2,-1.62 h -0.18 c -5.27,-0.37 -9.97,-1.78 -11.59,-4.08 z"
       style="fill:#ffbe9d"
       id="path104" />
    <path
       d="m 253.11,209.46 a 8.62,8.62 0 0 1 -5.74,-4.38 c 0.12,-0.09 1.12,1.21 2.7,2.4 1.58,1.19 3.09,1.84 3.04,1.98 z"
       style="fill:#eb996e"
       id="path105" />
    <path
       d="m 204.06,179.93 -0.15,47.71 20.47,1 L 225,217 c 0,0 7.28,1.45 9.15,-5.31 1.2,-4.31 0.9,-37.65 0.9,-37.65 z"
       style="fill:#ffbe9d"
       id="path106" />
    <path
       d="m 233.85,166.66 c -6.23,2 -7.73,2.69 -10.53,2.91 -2.8,0.22 -21.75,0.23 -23.48,10.92 l -0.13,1.31 v -0.05 c 0,0.05 -4.09,-1.65 -3,5.75 0.56,3.86 2.14,7.42 3.61,11.66 1,6.28 -2.57,7.85 -5.52,9.92 -0.73,0.52 -1.61,1.16 -1.49,2 0.12,0.84 1,1.22 1.81,1.35 a 6.74,6.74 0 0 0 4.93,-1.14 28.46,28.46 0 0 1 -1.4,2.68 c -0.4,0.93 -0.36,2.22 0.53,2.7 a 2.28,2.28 0 0 0 1.63,0.08 8.31,8.31 0 0 0 4.29,-2.57 1.82,1.82 0 0 0 0.69,2.32 4.32,4.32 0 0 0 2.56,0.55 c 4,-0.06 8.93,0 12.66,-4.14 3.45,-3.84 4.27,-6.3 4.64,-11.61 0,0 -4.07,-0.67 -3.6,-3.94 0.66,-4.52 4.12,-4.64 6.69,-2.62 l 3,-7.95 c 0,0 7.51,-4.93 7.94,-8.07 0.43,-3.14 0.39,-14.08 -5.83,-12.06 z"
       style="fill:#263238"
       id="path107" />
    <path
       d="m 258.6,288 c -6.16,-7.54 -11.87,-14.3 -11.87,-14.3 0.26,9.86 1.28,18.4 1.28,18.4 l 2.93,30.51 a 9,9 0 0 1 -6.83,9.56 c -19.13,4.62 -41.52,5.93 -54.06,-2.68 a 12.14,12.14 0 0 1 -5.2,-10 v -26 l -3.29,-34.94 a 56.35,56.35 0 0 1 1.49,-16.38 22.77,22.77 0 0 1 20.54,-16.23 c 6.92,-0.39 14.67,-1 21.61,-1.09 a 36.51,36.51 0 0 1 22.66,7.41 c 10.22,7.76 17.94,25.58 25.16,36.93 l 19.77,-23.85 16.35,10.44 -22.34,33 A 18.57,18.57 0 0 1 258.6,288 Z"
       style="fill:#8656d7"
       id="path108" />
    <path
       d="m 196.37,248.88 a 21.43,21.43 0 0 1 1.47,-4.55 22.56,22.56 0 0 1 2,-4.36 22.91,22.91 0 0 1 -1.47,4.55 22.56,22.56 0 0 1 -2,4.36 z"
       style="fill:#263238"
       id="path109" />
    <path
       d="m 219.12,260.28 a 26.34,26.34 0 0 1 -4.57,-5.8 26.34,26.34 0 0 1 4.57,5.8 z"
       style="fill:#263238"
       id="path110" />
    <path
       d="m 232.43,241.67 a 19.63,19.63 0 0 1 -6,1.93 9.92,9.92 0 0 1 2.94,-1.22 9.72,9.72 0 0 1 3.06,-0.71 z"
       style="fill:#263238"
       id="path111" />
    <path
       d="m 198.66,273.32 a 13.62,13.62 0 0 1 1.36,-3.6 14.55,14.55 0 0 1 1.83,-3.38 14.53,14.53 0 0 1 -1.36,3.6 14.29,14.29 0 0 1 -1.83,3.38 z"
       style="fill:#263238"
       id="path112" />
    <path
       d="m 197.38,292.89 a 16.32,16.32 0 0 1 -2.52,-3.23 15.81,15.81 0 0 1 -2.09,-3.52 16.82,16.82 0 0 1 2.52,3.23 16,16 0 0 1 2.09,3.52 z"
       style="fill:#263238"
       id="path113" />
    <path
       d="m 228.1,285.67 a 23.36,23.36 0 0 1 -4.4,2 22.74,22.74 0 0 1 -4.58,1.51 21.37,21.37 0 0 1 4.39,-2 22,22 0 0 1 4.59,-1.51 z"
       style="fill:#263238"
       id="path114" />
    <path
       d="m 210.45,281.51 a 9.71,9.71 0 0 1 0,-6.27 18.34,18.34 0 0 1 0,3.14 18.24,18.24 0 0 1 0,3.13 z"
       style="fill:#263238"
       id="path115" />
    <path
       d="m 237.29,274.74 a 18,18 0 0 1 -2,-4.9 17.82,17.82 0 0 1 -1,-5.21 c 0.14,0 0.67,2.28 1.51,5.06 a 51.76,51.76 0 0 1 1.49,5.05 z"
       style="fill:#263238"
       id="path116" />
    <path
       d="m 256.09,257.85 a 31.57,31.57 0 0 1 -3.61,-0.83 29.38,29.38 0 0 1 -3.62,-0.75 8.64,8.64 0 0 1 3.73,0.25 8.77,8.77 0 0 1 3.5,1.33 z"
       style="fill:#263238"
       id="path117" />
    <path
       d="m 264.81,271 a 15.07,15.07 0 0 1 -3.68,1.42 14.89,14.89 0 0 1 -3.83,0.93 29.26,29.26 0 0 1 7.51,-2.35 z"
       style="fill:#263238"
       id="path118" />
    <path
       d="m 273,287.31 a 15.22,15.22 0 0 1 0.65,-8.95 c 0.14,0 -0.31,2 -0.48,4.46 -0.17,2.46 0,4.47 -0.17,4.49 z"
       style="fill:#263238"
       id="path119" />
    <path
       d="m 288.17,274.3 a 35.77,35.77 0 0 1 -2.81,-2.27 c -1.57,-1.21 -3,-2 -2.93,-2.14 a 8,8 0 0 1 3.24,1.73 7.82,7.82 0 0 1 2.5,2.68 z"
       style="fill:#263238"
       id="path120" />
    <path
       d="m 297.88,257.86 a 36.68,36.68 0 0 1 -7.72,4.35 19.38,19.38 0 0 1 3.73,-2.4 19.78,19.78 0 0 1 3.99,-1.95 z"
       style="fill:#263238"
       id="path121" />
    <path
       d="m 237.25,307.35 a 19.81,19.81 0 0 1 1.17,-4.44 20,20 0 0 1 1.66,-4.27 19.81,19.81 0 0 1 -1.17,4.44 20.67,20.67 0 0 1 -1.66,4.27 z"
       style="fill:#263238"
       id="path122" />
    <path
       d="m 213.09,311.54 a 20.13,20.13 0 0 1 -2.8,-3.48 c -0.95,-1.34 -1.74,-2.54 -2.12,-3.2 l -0.49,-0.86 0.68,0.68 c 0.29,0.29 0.43,0.46 0.4,0.5 -0.03,0.04 -0.23,-0.07 -0.57,-0.3 l 0.19,-0.17 c 0.51,0.57 1.38,1.71 2.33,3 a 18.87,18.87 0 0 1 2.38,3.83 z"
       style="fill:#263238"
       id="path123" />
    <path
       d="m 225.26,310.24 a 24.1,24.1 0 0 1 1.11,4.78 23.71,23.71 0 0 1 0.6,4.88 23.11,23.11 0 0 1 -1.12,-4.79 22.43,22.43 0 0 1 -0.59,-4.87 z"
       style="fill:#263238"
       id="path124" />
    <path
       d="m 199.36,320.13 a 28.33,28.33 0 0 1 -5.31,-5.55 14.37,14.37 0 0 1 2.85,2.6 14.18,14.18 0 0 1 2.46,2.95 z"
       style="fill:#263238"
       id="path125" />
    <path
       d="m 219.63,330.15 a 23.76,23.76 0 0 1 -7,0 23.76,23.76 0 0 1 7,0 z"
       style="fill:#263238"
       id="path126" />
    <path
       d="m 244,319.6 a 17.91,17.91 0 0 1 -3.14,2.93 17.56,17.56 0 0 1 -3.47,2.52 18.36,18.36 0 0 1 3.14,-2.93 17.89,17.89 0 0 1 3.47,-2.52 z"
       style="fill:#263238"
       id="path127" />
  </g>
  <g
     id="freepik--Plant--inject-25"
     transform="translate(-41.25,-57.23)">
    <path
       d="M 110.11,384.44 A 10.94,10.94 0 0 0 108,373.7 14.47,14.47 0 0 0 97.84,369 c -1.77,-0.1 -3.73,0.15 -4.92,1.46 a 4.68,4.68 0 0 0 -0.7,4.68 9.48,9.48 0 0 0 3,3.87 c 4.37,3.63 9.27,6.34 14.88,5.44"
       style="fill:#8656d7"
       id="path128" />
    <path
       d="M 119.1,389.71 A 25.51,25.51 0 0 1 135.33,373 c 1.95,-0.64 4.43,-0.9 5.76,0.66 1.33,1.56 0.68,4 -0.31,5.79 a 21.79,21.79 0 0 1 -21.62,10.83"
       style="fill:#8656d7"
       id="path129" />
    <path
       d="M 119.1,389.71 A 25.51,25.51 0 0 1 135.33,373 c 1.95,-0.64 4.43,-0.9 5.76,0.66 1.33,1.56 0.68,4 -0.31,5.79 a 21.79,21.79 0 0 1 -21.62,10.83"
       style="opacity:0.3;fill:#ffffff"
       id="path130" />
    <path
       d="m 121.71,338.51 a 12.77,12.77 0 0 0 -7.55,6.56 22.59,22.59 0 0 0 -2.22,10 c -0.13,6.63 2.7,13.72 6,19.48 6.15,-4.07 8.53,-12.28 9.48,-16.52 1.5,-6.7 0.14,-19.73 -5.71,-19.48"
       style="fill:#8656d7"
       id="path131" />
    <path
       d="m 114.77,404.05 a 28.3,28.3 0 0 0 0.13,-3.33 46.91,46.91 0 0 0 -2.58,-12.26 23.41,23.41 0 0 0 -7.24,-10.19 15.4,15.4 0 0 0 -3.28,-2 4.39,4.39 0 0 0 -1.33,-0.44 33.35,33.35 0 0 1 4.28,2.82 24.63,24.63 0 0 1 6.88,10.05 54.21,54.21 0 0 1 2.75,12"
       style="fill:#263238"
       id="path132" />
    <path
       d="m 114.75,404.16 c 0.19,-1.6 0.43,-3.69 0.72,-6.21 0.59,-5.25 1.43,-12.5 2.46,-20.5 1.03,-8 2.07,-15.22 2.82,-20.45 l 0.89,-6.19 a 13.22,13.22 0 0 0 0.23,-2.29 14.08,14.08 0 0 0 -0.52,2.24 c -0.29,1.45 -0.67,3.56 -1.12,6.16 -0.89,5.21 -2,12.43 -3,20.44 -1,8.01 -1.78,15.27 -2.24,20.53 -0.23,2.64 -0.4,4.77 -0.49,6.25"
       style="fill:#263238"
       id="path133" />
    <path
       d="m 133.65,379.1 a 4.57,4.57 0 0 0 -1.29,0.33 10.54,10.54 0 0 0 -1.47,0.54 19,19 0 0 0 -1.88,0.88 27.52,27.52 0 0 0 -4.53,3 28.83,28.83 0 0 0 -8,10.45 26.36,26.36 0 0 0 -1.71,5.14 15.36,15.36 0 0 0 -0.37,2 11.24,11.24 0 0 0 -0.15,1.56 c 0,0.86 0.19,1.11 0.24,1.12 a 45.21,45.21 0 0 1 0.79,-4.6 29.88,29.88 0 0 1 1.82,-5 34.26,34.26 0 0 1 3.38,-5.53 32.94,32.94 0 0 1 4.47,-4.68 30.45,30.45 0 0 1 4.34,-3.05 c 2.6,-1.45 4.41,-2.02 4.36,-2.16 z"
       style="fill:#263238"
       id="path134" />
    <path
       d="M 110.11,384.44 A 10.94,10.94 0 0 0 108,373.7 14.47,14.47 0 0 0 97.84,369 c -1.77,-0.1 -3.73,0.15 -4.92,1.46 a 4.68,4.68 0 0 0 -0.7,4.68 9.48,9.48 0 0 0 3,3.87 c 4.37,3.63 9.27,6.34 14.88,5.44"
       style="opacity:0.2"
       id="path135" />
    <path
       d="m 97.34,402.83 h 34.25 v 12.8 a 17.13,17.13 0 0 1 -17.13,17.12 v 0 A 17.13,17.13 0 0 1 97.34,415.63 Z"
       style="fill:#455a64"
       id="path136" />
    <path
       d="m 131.56,411.07 a 6.34,6.34 0 0 1 -1.34,0 l -3.65,-0.11 c -3.08,-0.1 -7.33,-0.23 -12,-0.31 -4.67,-0.08 -9,-0.09 -12,-0.09 h -3.65 a 6.2,6.2 0 0 1 -1.34,-0.07 7.19,7.19 0 0 1 1.33,-0.13 c 0.86,-0.05 2.11,-0.11 3.65,-0.15 3.09,-0.09 7.35,-0.14 12.06,-0.06 4.71,0.08 9,0.27 12,0.47 1.54,0.09 2.78,0.19 3.64,0.27 a 6.13,6.13 0 0 1 1.3,0.18 z"
       style="fill:#263238"
       id="path137" />
    <path
       d="m 131.55,413 a 7.43,7.43 0 0 1 -1.35,0 l -3.64,-0.11 c -3.08,-0.1 -7.34,-0.23 -12,-0.31 -4.66,-0.08 -9,-0.09 -12,-0.09 h -3.65 a 6.29,6.29 0 0 1 -1.34,-0.07 7.4,7.4 0 0 1 1.34,-0.13 c 0.86,-0.05 2.11,-0.11 3.65,-0.15 3.08,-0.09 7.34,-0.14 12,-0.06 4.66,0.08 9,0.27 12,0.47 1.54,0.09 2.79,0.19 3.65,0.27 a 6.13,6.13 0 0 1 1.34,0.18 z"
       style="fill:#263238"
       id="path138" />
  </g>
</svg>
