<?xml version="1.0" encoding="UTF-8" standalone="no"?>
<svg
   viewBox="0 0 472.23337 439.45364"
   version="1.1"
   id="svg129"
   sodipodi:docname="ux2.svg"
   width="472.23337"
   height="439.45364"
   inkscape:version="1.4 (86a8ad7, 2024-10-11)"
   xmlns:inkscape="http://www.inkscape.org/namespaces/inkscape"
   xmlns:sodipodi="http://sodipodi.sourceforge.net/DTD/sodipodi-0.dtd"
   xmlns="http://www.w3.org/2000/svg"
   xmlns:svg="http://www.w3.org/2000/svg">
  <defs
     id="defs129" />
  <sodipodi:namedview
     id="namedview129"
     pagecolor="#505050"
     bordercolor="#eeeeee"
     borderopacity="1"
     inkscape:showpageshadow="0"
     inkscape:pageopacity="0"
     inkscape:pagecheckerboard="0"
     inkscape:deskcolor="#d1d1d1"
     inkscape:zoom="1.574"
     inkscape:cx="232.52859"
     inkscape:cy="223.63405"
     inkscape:window-width="1920"
     inkscape:window-height="1001"
     inkscape:window-x="-9"
     inkscape:window-y="-9"
     inkscape:window-maximized="1"
     inkscape:current-layer="svg129" />
  <rect
     style="fill:#999999;stroke-width:0.147402"
     id="rect129"
     width="491.10547"
     height="456.16263"
     x="-10.165184"
     y="-10.800508" />
  <g
     id="freepik--background-simple--inject-5"
     transform="translate(-17.266629,-26.049705)">
    <path
       d="m 334,34.58 c 0,0 -77.4,-27.52 -153.37,16.3 C 104.66,94.7 66.3,181.67 33.38,251.34 c -32.92,69.67 -14,140.55 44,172.86 58,32.31 97.43,-15.32 178.79,-17.64 81.36,-2.32 103.27,9.31 170.83,-36.65 C 494.56,323.95 506.71,215.4 453.46,135.09 400.21,54.78 334,34.58 334,34.58 Z"
       style="fill:#f4ad7f"
       id="path1" />
    <path
       d="m 334,34.58 c 0,0 -77.4,-27.52 -153.37,16.3 C 104.66,94.7 66.3,181.67 33.38,251.34 c -32.92,69.67 -14,140.55 44,172.86 58,32.31 97.43,-15.32 178.79,-17.64 81.36,-2.32 103.27,9.31 170.83,-36.65 C 494.56,323.95 506.71,215.4 453.46,135.09 400.21,54.78 334,34.58 334,34.58 Z"
       style="opacity:0.7;fill:#ffffff"
       id="path2" />
  </g>
  <g
     id="freepik--Plants--inject-5"
     transform="translate(-17.266629,-26.049705)">
    <path
       d="m 40.93,283.3 c 0,0 1.86,3.53 0.21,6.84 -1.65,3.31 -3.73,6.63 -2.49,8.29 1.24,1.66 5,3.73 4.56,7.25 -0.44,3.52 -5.39,10.57 -2.28,14.51 3.11,3.94 8.29,3.73 8.5,8.08 0.21,4.35 -5,7.87 -3.53,11.81 1.47,3.94 10,4.77 10,7.46 0,2.69 -3.32,5.6 -0.62,8.5 2.7,2.9 15.72,10.47 17.54,7.36 1.82,-3.11 5.62,-11.71 3.15,-23.92 -0.42,-2.05 -3.34,-2.51 -3.75,-5.41 -0.41,-2.9 0.83,-8.08 -1.24,-11 -2.07,-2.92 -8.71,-3.94 -9.12,-6.22 -0.41,-2.28 2.48,-7.87 -0.42,-11.39 -2.9,-3.52 -9.74,-5.16 -9.74,-7.46 0,-2.3 2.08,-5.18 -0.82,-8.29 -2.9,-3.11 -9.95,-6.41 -9.95,-6.41 z"
       style="fill:#f4ad7f"
       id="path3" />
    <path
       d="m 50.85,307.72 c 4.32,13 11.88,30.67 14.95,39.2 3.73,10.36 7,17.86 8.63,28.22 1.63,10.36 2.57,79.75 2.57,79.75"
       style="fill:none;stroke:#263238;stroke-linecap:round;stroke-linejoin:round"
       id="path4" />
    <path
       d="m 42,284.55 c 0,0 3.52,2.9 6.63,15.54 0.2,0.81 0.43,1.67 0.68,2.58"
       style="fill:none;stroke:#263238;stroke-linecap:round;stroke-linejoin:round"
       id="path5" />
    <path
       d="m 105.7,306.91 a 6.54,6.54 0 0 0 -0.16,5.48 c 1.32,2.65 3,5.3 2,6.63 -1,1.33 -4,3 -3.65,5.8 0.35,2.8 4.31,8.46 1.82,11.61 -2.49,3.15 -6.63,3 -6.8,6.47 -0.17,3.47 4,6.3 2.82,9.45 -1.18,3.15 -8,3.82 -8,6 0,2.18 2.66,4.48 0.5,6.8 -2.16,2.32 -12.56,8.35 -14.05,5.85 -1.49,-2.5 -4.49,-9.37 -2.52,-19.14 0.33,-1.64 2.67,-2 3,-4.33 0.33,-2.33 -0.66,-6.47 1,-8.79 1.66,-2.32 7,-3.15 7.29,-5 0.29,-1.85 -2,-6.3 0.33,-9.12 2.33,-2.82 7.8,-4.15 7.8,-6 0,-1.85 -1.66,-4.15 0.66,-6.64 2.32,-2.49 7.96,-5.07 7.96,-5.07 z"
       style="fill:#f4ad7f"
       id="path6" />
    <path
       d="m 97.76,326.45 c -3.45,10.43 -9.5,24.55 -12,31.37 -3,8.3 -5.58,14.3 -6.9,22.59 -1.32,8.29 -2.05,63.82 -2.05,63.82"
       style="fill:none;stroke:#263238;stroke-linecap:round;stroke-linejoin:round"
       id="path7" />
    <path
       d="m 104.87,307.91 c 0,0 -2.82,2.32 -5.3,12.44 -0.16,0.65 -0.35,1.34 -0.55,2.06"
       style="fill:none;stroke:#263238;stroke-linecap:round;stroke-linejoin:round"
       id="path8" />
    <path
       d="m 48.68,353.87 a 5.48,5.48 0 0 1 0.14,4.57 c -1.11,2.22 -2.5,4.43 -1.67,5.54 0.83,1.11 3.33,2.5 3.05,4.85 -0.28,2.35 -3.6,7.07 -1.52,9.7 2.08,2.63 5.54,2.49 5.68,5.4 0.14,2.91 -3.36,5.27 -2.36,7.9 1,2.63 6.65,3.19 6.65,5 0,1.81 -2.21,3.74 -0.41,5.68 1.8,1.94 10.51,7 11.76,4.92 1.25,-2.08 3.76,-7.83 2.1,-16 -0.27,-1.37 -2.22,-1.68 -2.5,-3.62 -0.28,-1.94 0.55,-5.4 -0.83,-7.34 -1.38,-1.94 -5.82,-2.63 -6.1,-4.16 -0.28,-1.53 1.66,-5.26 -0.28,-7.62 -1.94,-2.36 -6.51,-3.46 -6.51,-5 0,-1.54 1.39,-3.47 -0.55,-5.55 -1.94,-2.08 -6.65,-4.27 -6.65,-4.27 z"
       style="fill:#f4ad7f"
       id="path9" />
    <path
       d="m 55.31,370.2 c 2.89,8.71 7.94,20.5 10,26.2 2.5,6.93 4.67,12 5.77,18.87 1.1,6.87 1.72,32.64 1.72,32.64"
       style="fill:none;stroke:#263238;stroke-linecap:round;stroke-linejoin:round"
       id="path10" />
    <path
       d="m 49.37,354.7 c 0,0 2.36,1.94 4.43,10.39 0.14,0.55 0.29,1.12 0.46,1.72"
       style="fill:none;stroke:#263238;stroke-linecap:round;stroke-linejoin:round"
       id="path11" />
    <path
       d="m 120,350.42 a 5.45,5.45 0 0 0 -1.18,4.42 c 0.57,2.41 1.42,4.88 0.35,5.77 -1.07,0.89 -3.8,1.67 -4.07,4 -0.27,2.33 1.89,7.7 -0.74,9.79 -2.63,2.09 -6,1.15 -6.77,4 -0.77,2.85 2,5.88 0.49,8.22 -1.51,2.34 -7.2,1.58 -7.62,3.34 -0.42,1.76 1.31,4.14 -0.89,5.62 -2.2,1.48 -11.8,4.42 -12.57,2.09 -0.77,-2.33 -1.86,-8.48 1.61,-16.05 0.59,-1.27 2.56,-1.12 3.27,-2.95 0.71,-1.83 0.7,-5.38 2.49,-6.95 1.79,-1.57 6.27,-1.24 6.89,-2.66 0.62,-1.42 -0.42,-5.5 2,-7.35 2.42,-1.85 7.13,-1.88 7.48,-3.37 0.35,-1.49 -0.56,-3.68 1.81,-5.26 2.37,-1.58 7.45,-2.66 7.45,-2.66 z"
       style="fill:#f4ad7f"
       id="path12" />
    <path
       d="m 109.85,364.79 c -4.8,7.82 -12.42,18.15 -15.72,23.23 -4,6.17 -8.83,10.12 -9.94,17.05 -1.11,6.93 -1.71,32.64 -1.71,32.64"
       style="fill:none;stroke:#263238;stroke-linecap:round;stroke-linejoin:round"
       id="path13" />
    <path
       d="m 119.18,351.07 c 0,0 -2.74,1.35 -6.69,9.1 -0.26,0.5 -0.54,1 -0.85,1.57"
       style="fill:none;stroke:#263238;stroke-linecap:round;stroke-linejoin:round"
       id="path14" />
    <path
       d="m 70.83,462.7 h 15.41 c 8.11,-4.18 13.87,-14.76 13.87,-27.17 A 34.57,34.57 0 0 0 93.63,414.76 H 63.44 A 34.57,34.57 0 0 0 57,435.53 c 0,12.41 5.72,22.99 13.83,27.17 z"
       style="fill:#ffffff;stroke:#263238;stroke-linecap:round;stroke-linejoin:round"
       id="path15" />
    <rect
       x="70.830002"
       y="462.70001"
       width="15.69"
       height="2.3"
       style="fill:#ffffff;stroke:#263238;stroke-linecap:round;stroke-linejoin:round"
       id="rect15" />
  </g>
  <g
     id="freepik--Board--inject-5"
     transform="translate(-17.266629,-26.049705)">
    <rect
       x="54.740002"
       y="75"
       width="245.64"
       height="185.92"
       style="fill:none;stroke:#263238;stroke-linecap:round;stroke-linejoin:round"
       id="rect16" />
    <rect
       x="60.470001"
       y="79.93"
       width="234.17"
       height="176.07001"
       style="fill:none;stroke:#263238;stroke-linecap:round;stroke-linejoin:round"
       id="rect17" />
    <path
       d="m 131.85,105.77 c 0,0 -38.26,-2.77 -41.48,3.23 -3.22,6 -0.93,115.7 0.92,117.08 1.85,1.38 53.47,2.3 58.54,0.46 5.07,-1.84 -1.83,-113.4 -1.83,-116.63 0,-3.23 -12,-4.61 -12,-4.61"
       style="fill:none;stroke:#263238;stroke-width:2px;stroke-linecap:round;stroke-linejoin:round"
       id="path17" />
    <path
       d="m 94.32,196.57 c 0.08,14.46 0.39,25.06 1.12,25.35 2.3,0.92 51.16,5.07 52.54,0.46 1.38,-4.61 -3.69,-108.78 -3.69,-108.78"
       style="fill:none;stroke:#263238;stroke-width:2px;stroke-linecap:round;stroke-linejoin:round"
       id="path18" />
    <path
       d="m 142.45,113.14 c 0,0 -46.55,-1.84 -47,0.46 -0.3,1.47 -1.15,44.66 -1.14,76.06"
       style="fill:none;stroke:#263238;stroke-width:2px;stroke-linecap:round;stroke-linejoin:round"
       id="path19" />
    <line
       x1="96.82"
       y1="121.44"
       x2="141.99001"
       y2="121.44"
       style="fill:none;stroke:#263238;stroke-width:2px;stroke-linecap:round;stroke-linejoin:round"
       id="line19" />
    <path
       d="m 137.84,119.35 c -2.76,2.92 0,0 1.85,-4.17 1.85,-4.17 -1.85,0.83 -6,4.17 -4.15,3.34 -1.84,0.84 -0.46,-3.75 1.38,-4.59 -1.38,0 -5.07,2.92 -3.69,2.92 -1.84,1.67 -0.46,-3.34 1.38,-5.01 0,0 -5.53,3.34 -5.53,3.34 -2.77,3.33 0,-1.67 2.77,-5 -1.84,0 -6.91,1.67 -5.07,1.67 0,0 1.84,-4.59 1.84,-4.59 -3.23,1.25 -6.91,3.75 -3.68,2.5 0,0 0.92,-2.92 0.92,-2.92 -2.31,0.84 -6,4.59 -3.69,3.75 0,0 0.46,-3.34 0.46,-3.34 -4.15,5.43 -4.15,5.43 0,0 1.38,-8.35 0.46,-6.26 a 18,18 0 0 1 -2.31,3.75"
       style="fill:none;stroke:#f4ad7f;stroke-width:2px;stroke-linecap:round;stroke-linejoin:round"
       id="path20" />
    <rect
       x="99.120003"
       y="129.27"
       width="22.59"
       height="23.51"
       style="fill:none;stroke:#f4ad7f;stroke-width:2px;stroke-linecap:round;stroke-linejoin:round"
       id="rect20" />
    <polyline
       points="103.73 129.27 100.05 133.42 107.88 130.66 100.05 138.03 112.95 129.73 100.05 143.56 117.56 130.66 99.12 147.71 121.25 132.5 99.12 152.78 121.25 138.03 105.58 151.86 121.71 143.1 111.57 151.4 121.25 148.17 119.4 151.4"
       style="fill:none;stroke:#f4ad7f;stroke-width:2px;stroke-linecap:round;stroke-linejoin:round"
       id="polyline20" />
    <rect
       x="123.91"
       y="201.17999"
       width="17.27"
       height="17.98"
       style="fill:none;stroke:#f4ad7f;stroke-width:2px;stroke-linecap:round;stroke-linejoin:round"
       id="rect21" />
    <polyline
       points="127.43 201.18 124.61 204.35 130.6 202.24 124.61 207.88 134.48 201.53 124.61 212.11 138 202.24 123.91 215.28 140.82 203.65 123.91 219.16 140.82 207.88 128.84 218.45 141.18 211.75 133.42 218.1 140.82 215.63 139.41 218.1"
       style="fill:none;stroke:#f4ad7f;stroke-width:2px;stroke-linecap:round;stroke-linejoin:round"
       id="polyline21" />
    <line
       x1="98.660004"
       y1="161.53999"
       x2="142.91"
       y2="161.53999"
       style="fill:none;stroke:#263238;stroke-width:2px;stroke-linecap:round;stroke-linejoin:round"
       id="line21" />
    <line
       x1="98.199997"
       y1="165.69"
       x2="141.99001"
       y2="166.14999"
       style="fill:none;stroke:#263238;stroke-width:2px;stroke-linecap:round;stroke-linejoin:round"
       id="line22" />
    <line
       x1="126.32"
       y1="130.66"
       x2="140.61"
       y2="130.66"
       style="fill:none;stroke:#263238;stroke-width:2px;stroke-linecap:round;stroke-linejoin:round"
       id="line23" />
    <line
       x1="126.32"
       y1="136.19"
       x2="140.61"
       y2="136.19"
       style="fill:none;stroke:#263238;stroke-width:2px;stroke-linecap:round;stroke-linejoin:round"
       id="line24" />
    <line
       x1="126.32"
       y1="141.72"
       x2="140.61"
       y2="141.72"
       style="fill:none;stroke:#263238;stroke-width:2px;stroke-linecap:round;stroke-linejoin:round"
       id="line25" />
    <line
       x1="126.32"
       y1="147.25"
       x2="140.61"
       y2="147.25"
       style="fill:none;stroke:#263238;stroke-width:2px;stroke-linecap:round;stroke-linejoin:round"
       id="line26" />
    <rect
       x="99.120003"
       y="168.45"
       width="42.869999"
       height="20.74"
       style="fill:none;stroke:#f4ad7f;stroke-width:2px;stroke-linecap:round;stroke-linejoin:round"
       id="rect26" />
    <polyline
       points="98.66 172.6 104.65 168.91 97.74 179.51 109.26 168.91 99.12 184.13 117.1 168.45 101.43 186.89 120.79 168.91 106.04 186.89 127.24 168.45 110.19 188.73 131.39 168.91 115.26 187.81 136.92 168.45 120.33 188.73 141.99 168.45 126.32 188.27 141.07 175.37 131.39 187.35 141.07 180.9 139.17 183.98 137.38 186.89"
       style="fill:none;stroke:#f4ad7f;stroke-width:2px;stroke-linecap:round;stroke-linejoin:round"
       id="polyline26" />
    <line
       x1="100.97"
       y1="194.73"
       x2="140.61"
       y2="194.73"
       style="fill:none;stroke:#263238;stroke-width:2px;stroke-linecap:round;stroke-linejoin:round"
       id="line27" />
    <line
       x1="100.05"
       y1="199.8"
       x2="112.95"
       y2="199.8"
       style="fill:none;stroke:#263238;stroke-width:2px;stroke-linecap:round;stroke-linejoin:round"
       id="line28" />
    <line
       x1="149.83"
       y1="115.91"
       x2="181.47"
       y2="112.02"
       style="fill:none;stroke:#263238;stroke-width:2px;stroke-linecap:round;stroke-linejoin:round"
       id="line29" />
    <line
       x1="144.75999"
       y1="138.49001"
       x2="177.94"
       y2="138.49001"
       style="fill:none;stroke:#263238;stroke-width:2px;stroke-linecap:round;stroke-linejoin:round"
       id="line30" />
    <line
       x1="92.209999"
       y1="180.44"
       x2="77.919998"
       y2="185.50999"
       style="fill:none;stroke:#263238;stroke-width:2px;stroke-linecap:round;stroke-linejoin:round"
       id="line31" />
    <path
       d="m 132.77,222.38 c 0,0 -2.76,14.29 16.13,18"
       style="fill:none;stroke:#263238;stroke-width:2px;stroke-linecap:round;stroke-linejoin:round"
       id="path31" />
    <polyline
       points="146.14 236.67 150.75 240.82 144.29 242.66"
       style="fill:none;stroke:#263238;stroke-width:2px;stroke-linecap:round;stroke-linejoin:round"
       id="polyline31" />
    <polyline
       points="173.79 134.34 181.17 138.95 174.72 141.72"
       style="fill:none;stroke:#263238;stroke-width:2px;stroke-linecap:round;stroke-linejoin:round"
       id="polyline32" />
    <polyline
       points="175.48 110.64 183.31 111.56 177.78 116.63"
       style="fill:none;stroke:#263238;stroke-width:2px;stroke-linecap:round;stroke-linejoin:round"
       id="polyline33" />
    <polyline
       points="79.76 180.9 71.93 187.35 81.61 187.81"
       style="fill:none;stroke:#263238;stroke-width:2px;stroke-linecap:round;stroke-linejoin:round"
       id="polyline34" />
    <rect
       x="183.47"
       y="134.34"
       width="17.52"
       height="18.440001"
       style="fill:#f4ad7f"
       id="rect34" />
    <line
       x1="187.62"
       y1="138.49001"
       x2="197.75999"
       y2="138.95"
       style="fill:none;stroke:#263238;stroke-width:2px;stroke-linecap:round;stroke-linejoin:round"
       id="line34" />
    <line
       x1="187.62"
       y1="142.17999"
       x2="197.75999"
       y2="142.64"
       style="fill:none;stroke:#263238;stroke-width:2px;stroke-linecap:round;stroke-linejoin:round"
       id="line35" />
    <line
       x1="187.62"
       y1="145.87"
       x2="197.75999"
       y2="146.33"
       style="fill:none;stroke:#263238;stroke-width:2px;stroke-linecap:round;stroke-linejoin:round"
       id="line36" />
    <rect
       x="156.74001"
       y="160.16"
       width="17.52"
       height="18.440001"
       transform="rotate(-6.73,165.401,169.29416)"
       style="fill:#f4ad7f"
       id="rect36" />
    <line
       x1="160.33"
       y1="164.88"
       x2="170.45"
       y2="164.14999"
       style="fill:none;stroke:#263238;stroke-width:2px;stroke-linecap:round;stroke-linejoin:round"
       id="line37" />
    <line
       x1="160.75999"
       y1="168.53999"
       x2="170.88"
       y2="167.81"
       style="fill:none;stroke:#263238;stroke-width:2px;stroke-linecap:round;stroke-linejoin:round"
       id="line38" />
    <line
       x1="161.19"
       y1="172.2"
       x2="171.32001"
       y2="171.47"
       style="fill:none;stroke:#263238;stroke-width:2px;stroke-linecap:round;stroke-linejoin:round"
       id="line39" />
    <rect
       x="65.940002"
       y="191.5"
       width="17.52"
       height="18.440001"
       transform="rotate(-6.73,74.647462,200.56502)"
       style="fill:#f4ad7f"
       id="rect39" />
    <line
       x1="69.519997"
       y1="196.22"
       x2="79.650002"
       y2="195.49001"
       style="fill:none;stroke:#263238;stroke-width:2px;stroke-linecap:round;stroke-linejoin:round"
       id="line40" />
    <line
       x1="69.949997"
       y1="199.89"
       x2="80.080002"
       y2="199.16"
       style="fill:none;stroke:#263238;stroke-width:2px;stroke-linecap:round;stroke-linejoin:round"
       id="line41" />
    <line
       x1="70.389999"
       y1="203.55"
       x2="80.510002"
       y2="202.82001"
       style="fill:none;stroke:#263238;stroke-width:2px;stroke-linecap:round;stroke-linejoin:round"
       id="line42" />
    <rect
       x="154.44"
       y="227.91"
       width="17.52"
       height="18.440001"
       transform="rotate(6.07,163.11606,236.946)"
       style="fill:#f4ad7f"
       id="rect42" />
    <line
       x1="159.14999"
       y1="231.60001"
       x2="169.17999"
       y2="233.13"
       style="fill:none;stroke:#263238;stroke-width:2px;stroke-linecap:round;stroke-linejoin:round"
       id="line43" />
    <line
       x1="158.75999"
       y1="235.27"
       x2="168.78999"
       y2="236.8"
       style="fill:none;stroke:#263238;stroke-width:2px;stroke-linecap:round;stroke-linejoin:round"
       id="line44" />
    <line
       x1="158.37"
       y1="238.94"
       x2="168.39999"
       y2="240.47"
       style="fill:none;stroke:#263238;stroke-width:2px;stroke-linecap:round;stroke-linejoin:round"
       id="line45" />
    <rect
       x="54.740002"
       y="260.92001"
       width="245.63"
       height="6.2800002"
       style="fill:#263238;stroke:#263238;stroke-linecap:round;stroke-linejoin:round"
       id="rect45" />
  </g>
  <g
     id="freepik--Device--inject-5"
     transform="translate(-17.266629,-26.049705)">
    <path
       d="m 398.94,305.93 v -11.72 h -35.27 v 11.72 a 16.73,16.73 0 0 1 -3.75,10.54 l -1.54,1.91 h 45.85 l -1.54,-1.91 a 16.73,16.73 0 0 1 -3.75,-10.54 z"
       style="fill:#263238;stroke:#263238;stroke-linecap:round;stroke-linejoin:round"
       id="path45" />
    <path
       d="m 396.94,305.93 v -11.72 h -35.27 v 11.72 a 16.73,16.73 0 0 1 -3.75,10.54 l -1.54,1.91 h 45.85 l -1.54,-1.91 a 16.73,16.73 0 0 1 -3.75,-10.54 z"
       style="fill:#ffffff;stroke:#263238;stroke-linecap:round;stroke-linejoin:round"
       id="path46" />
    <rect
       x="361.81"
       y="297.51999"
       width="35.41"
       height="3.5899999"
       style="fill:#263238"
       id="rect46" />
    <rect
       x="308.42001"
       y="193.81"
       width="141.75999"
       height="104.09"
       rx="8.4799995"
       style="fill:#263238;stroke:#263238;stroke-linecap:round;stroke-linejoin:round"
       id="rect47" />
    <rect
       x="312.23001"
       y="193.81"
       width="141.75999"
       height="104.09"
       rx="8.4799995"
       style="fill:#263238;stroke:#263238;stroke-linecap:round;stroke-linejoin:round"
       id="rect48" />
    <path
       d="m 308.42,281.72 h 141.77 v 7.7 a 8.48,8.48 0 0 1 -8.48,8.48 h -124.8 a 8.48,8.48 0 0 1 -8.48,-8.48 v -7.7 z"
       style="fill:#ffffff;stroke:#263238;stroke-linecap:round;stroke-linejoin:round"
       id="path48" />
    <rect
       x="315.54999"
       y="200.28999"
       width="127.5"
       height="73.540001"
       style="fill:#ffffff"
       id="rect49" />
    <rect
       x="331.79999"
       y="207.95"
       width="31.16"
       height="57.880001"
       rx="3.04"
       style="fill:#263238"
       id="rect50" />
    <rect
       x="334.42001"
       y="212.8"
       width="25.93"
       height="48.16"
       style="fill:#f4ad7f"
       id="rect51" />
    <rect
       x="371.06"
       y="213.61"
       width="23.469999"
       height="2.4300001"
       style="fill:#263238"
       id="rect52" />
    <rect
       x="371.47"
       y="218.88"
       width="10.93"
       height="11.33"
       style="fill:#f4ad7f"
       id="rect53" />
    <rect
       x="387.06"
       y="253.67999"
       width="5.8499999"
       height="6.0700002"
       style="fill:#f4ad7f"
       id="rect54" />
    <rect
       x="371.73999"
       y="238.3"
       width="22.26"
       height="11.33"
       style="fill:#f4ad7f"
       id="rect55" />
    <line
       x1="384.42001"
       y1="219.69"
       x2="393.32001"
       y2="219.69"
       style="fill:none;stroke:#263238;stroke-linecap:round;stroke-linejoin:round"
       id="line55" />
    <line
       x1="384.42001"
       y1="222.52"
       x2="393.32001"
       y2="222.52"
       style="fill:none;stroke:#263238;stroke-linecap:round;stroke-linejoin:round"
       id="line56" />
    <line
       x1="384.42001"
       y1="225.35001"
       x2="393.32001"
       y2="225.35001"
       style="fill:none;stroke:#263238;stroke-linecap:round;stroke-linejoin:round"
       id="line57" />
    <line
       x1="384.42001"
       y1="228.17999"
       x2="393.32001"
       y2="228.17999"
       style="fill:none;stroke:#263238;stroke-linecap:round;stroke-linejoin:round"
       id="line58" />
    <line
       x1="372.14001"
       y1="234.66"
       x2="393.59"
       y2="234.66"
       style="fill:none;stroke:#263238;stroke-linecap:round;stroke-linejoin:round"
       id="line59" />
    <line
       x1="372.14001"
       y1="252.47"
       x2="393.59"
       y2="252.47"
       style="fill:none;stroke:#263238;stroke-linecap:round;stroke-linejoin:round"
       id="line60" />
    <rect
       x="369.04001"
       y="211.19"
       width="27.52"
       height="51"
       style="fill:none;stroke:#263238;stroke-linecap:round;stroke-linejoin:round"
       id="rect60" />
    <rect
       x="404.25"
       y="211.19"
       width="25.9"
       height="19.02"
       style="fill:#bfbfbf"
       id="rect61" />
    <rect
       x="404.25"
       y="211.19"
       width="25.9"
       height="4.0500002"
       style="fill:#263238"
       id="rect62" />
    <rect
       x="406.26001"
       y="218.17999"
       width="6.77"
       height="6.5500002"
       style="fill:none;stroke:#263238;stroke-linecap:round;stroke-linejoin:round"
       id="rect63" />
    <rect
       x="419.79999"
       y="218.17999"
       width="6.77"
       height="6.5500002"
       style="fill:none;stroke:#263238;stroke-linecap:round;stroke-linejoin:round"
       id="rect64" />
    <path
       d="m 427.66,213.49 a 1,1 0 1 1 -1,-1 1,1 0 0 1 1,1 z"
       style="fill:#ffffff"
       id="path64" />
    <circle
       cx="421.98001"
       cy="213.49001"
       r="0.98000002"
       style="fill:#ffffff"
       id="circle64" />
    <rect
       x="408.25"
       y="240.52"
       width="19.83"
       height="14.57"
       style="fill:#bfbfbf"
       id="rect65" />
    <rect
       x="408.25"
       y="240.52"
       width="19.83"
       height="3.0999999"
       style="fill:#263238"
       id="rect66" />
    <path
       d="m 426.18,242.28 a 0.76,0.76 0 1 1 -0.76,-0.75 0.76,0.76 0 0 1 0.76,0.75 z"
       style="fill:#ffffff"
       id="path66" />
    <path
       d="m 422.58,242.28 a 0.75,0.75 0 1 1 -1.5,0 0.75,0.75 0 0 1 1.5,0 z"
       style="fill:#ffffff"
       id="path67" />
    <rect
       x="319.75"
       y="204.14999"
       width="8.3299999"
       height="65.330002"
       style="fill:#bfbfbf"
       id="rect67" />
    <rect
       x="319.75"
       y="204.14999"
       width="8.3299999"
       height="3"
       style="fill:#263238"
       id="rect68" />
    <rect
       x="321.75"
       y="209.14999"
       width="4"
       height="4.6700001"
       style="fill:none;stroke:#263238;stroke-linecap:round;stroke-linejoin:round"
       id="rect69" />
    <rect
       x="321.75"
       y="216.81"
       width="4"
       height="4.6700001"
       style="fill:none;stroke:#263238;stroke-linecap:round;stroke-linejoin:round"
       id="rect70" />
    <rect
       x="321.75"
       y="224.48"
       width="4"
       height="4.6700001"
       style="fill:none;stroke:#263238;stroke-linecap:round;stroke-linejoin:round"
       id="rect71" />
    <rect
       x="321.75"
       y="232.14999"
       width="4"
       height="4.6700001"
       style="fill:none;stroke:#263238;stroke-linecap:round;stroke-linejoin:round"
       id="rect72" />
    <rect
       x="321.75"
       y="239.81"
       width="4"
       height="4.6700001"
       style="fill:none;stroke:#263238;stroke-linecap:round;stroke-linejoin:round"
       id="rect73" />
    <rect
       x="321.75"
       y="247.48"
       width="4"
       height="4.6700001"
       style="fill:none;stroke:#263238;stroke-linecap:round;stroke-linejoin:round"
       id="rect74" />
    <rect
       x="321.75"
       y="255.14999"
       width="4"
       height="4.6700001"
       style="fill:none;stroke:#263238;stroke-linecap:round;stroke-linejoin:round"
       id="rect75" />
    <rect
       x="321.75"
       y="262.81"
       width="4"
       height="4.6700001"
       style="fill:none;stroke:#263238;stroke-linecap:round;stroke-linejoin:round"
       id="rect76" />
    <rect
       x="333.42001"
       y="203.48"
       width="106"
       height="2.6700001"
       style="fill:#bfbfbf"
       id="rect77" />
    <rect
       x="333.42001"
       y="268.14999"
       width="106"
       height="2.6700001"
       style="fill:#bfbfbf"
       id="rect78" />
    <rect
       x="356.38"
       y="318.38"
       width="45.860001"
       height="2.0899999"
       style="fill:#263238;stroke:#263238;stroke-linecap:round;stroke-linejoin:round"
       id="rect79" />
    <rect
       x="325.75"
       y="316.67001"
       width="106.47"
       height="3.8"
       style="fill:#ffffff;stroke:#263238;stroke-linecap:round;stroke-linejoin:round"
       id="rect80" />
  </g>
  <g
     id="freepik--Desk--inject-5"
     transform="translate(-17.266629,-26.049705)">
    <polygon
       points="223.84,332.33 232.51,332.33 230.34,465 226.01,465 "
       style="fill:#ffffff;stroke:#263238;stroke-linecap:round;stroke-linejoin:round"
       id="polygon80" />
    <polygon
       points="228.69,332.33 232.51,332.33 230.34,465 228.43,465 "
       style="fill:#263238;stroke:#263238;stroke-linecap:round;stroke-linejoin:round"
       id="polygon81" />
    <polygon
       points="285.57,332.33 294.24,332.33 292.07,465 287.74,465 "
       style="fill:#ffffff;stroke:#263238;stroke-linecap:round;stroke-linejoin:round"
       id="polygon82" />
    <polygon
       points="290.42,332.33 294.24,332.33 292.07,465 290.16,465 "
       style="fill:#263238;stroke:#263238;stroke-linecap:round;stroke-linejoin:round"
       id="polygon83" />
    <polygon
       points="263.47,332.33 272.13,332.33 269.97,465 265.63,465 "
       style="fill:#263238;stroke:#263238;stroke-linecap:round;stroke-linejoin:round"
       id="polygon84" />
    <polygon
       points="268.31,332.33 272.13,332.33 269.97,465 268.06,465 "
       style="fill:#263238;stroke:#263238;stroke-linecap:round;stroke-linejoin:round"
       id="polygon85" />
    <polygon
       points="305.18,332.33 313.84,332.33 311.68,465 307.34,465 "
       style="fill:#263238;stroke:#263238;stroke-linecap:round;stroke-linejoin:round"
       id="polygon86" />
    <polygon
       points="310.02,332.33 313.84,332.33 311.68,465 309.76,465 "
       style="fill:#263238;stroke:#263238;stroke-linecap:round;stroke-linejoin:round"
       id="polygon87" />
    <rect
       x="246.95"
       y="334.35999"
       width="67.980003"
       height="83"
       style="fill:#263238;stroke:#263238;stroke-linecap:round;stroke-linejoin:round"
       id="rect87" />
    <rect
       x="228.17999"
       y="334.35999"
       width="67.980003"
       height="83"
       style="fill:#ffffff;stroke:#263238;stroke-linecap:round;stroke-linejoin:round"
       id="rect88" />
    <polygon
       points="426.96,332.33 435.63,332.33 433.46,465 429.13,465 "
       style="fill:#ffffff;stroke:#263238;stroke-linecap:round;stroke-linejoin:round"
       id="polygon88" />
    <polygon
       points="431.81,332.33 435.63,332.33 433.46,465 431.55,465 "
       style="fill:#263238;stroke:#263238;stroke-linecap:round;stroke-linejoin:round"
       id="polygon89" />
    <polygon
       points="466.59,332.33 475.25,332.33 473.09,465 468.75,465 "
       style="fill:#263238;stroke:#263238;stroke-linecap:round;stroke-linejoin:round"
       id="polygon90" />
    <polygon
       points="471.43,332.33 475.25,332.33 473.09,465 471.18,465 "
       style="fill:#263238;stroke:#263238;stroke-linecap:round;stroke-linejoin:round"
       id="polygon91" />
    <rect
       x="218.13"
       y="327.32999"
       width="259.85999"
       height="9.1300001"
       style="fill:#ffffff;stroke:#263238;stroke-linecap:round;stroke-linejoin:round"
       id="rect91" />
    <rect
       x="218.13"
       y="327.32999"
       width="259.85999"
       height="4.5599999"
       style="fill:#263238;stroke:#263238;stroke-linecap:round;stroke-linejoin:round"
       id="rect92" />
    <rect
       x="439.63"
       y="327.32999"
       width="38.360001"
       height="9.1300001"
       style="fill:#263238;stroke:#263238;stroke-linecap:round;stroke-linejoin:round"
       id="rect93" />
    <rect
       x="211.08"
       y="320"
       width="275.31"
       height="9.1300001"
       style="fill:#ffffff;stroke:#263238;stroke-linecap:round;stroke-linejoin:round"
       id="rect94" />
    <rect
       x="448.03"
       y="320"
       width="38.360001"
       height="9.1300001"
       style="fill:#263238;stroke:#263238;stroke-linecap:round;stroke-linejoin:round"
       id="rect95" />
    <rect
       x="232.5"
       y="342.32999"
       width="59.5"
       height="29"
       style="fill:#ffffff;stroke:#263238;stroke-linecap:round;stroke-linejoin:round"
       id="rect96" />
    <rect
       x="255.75"
       y="353.82999"
       width="13"
       height="4.5"
       style="fill:#263238;stroke:#263238;stroke-linecap:round;stroke-linejoin:round"
       id="rect97" />
    <rect
       x="232.5"
       y="378.82999"
       width="59.5"
       height="29"
       style="fill:#ffffff;stroke:#263238;stroke-linecap:round;stroke-linejoin:round"
       id="rect98" />
    <rect
       x="255.75"
       y="390.32999"
       width="13"
       height="4.5"
       style="fill:#263238;stroke:#263238;stroke-linecap:round;stroke-linejoin:round"
       id="rect99" />
  </g>
  <g
     id="freepik--Chair--inject-5"
     transform="translate(-17.266629,-26.049705)">
    <rect
       x="383.60001"
       y="351.70999"
       width="17.780001"
       height="35.759998"
       transform="rotate(180,392.485,369.59)"
       style="fill:#263238"
       id="rect100" />
    <rect
       x="388.04001"
       y="374.76999"
       width="8.8900003"
       height="49.52"
       transform="rotate(180,392.485,399.53)"
       style="fill:#263238"
       id="rect101" />
    <path
       d="m 396.1,420.48 c 0,0 7.47,8.48 26.67,11.43 10.14,1.56 20.7,3.5 29.86,8.35 5.89,3.12 17.62,9.95 17.62,17.75 a 7,7 0 1 1 -12.08,-4.76 33.07,33.07 0 0 0 -20.71,-14.05 c -14.6,-3.18 -25.26,-1.88 -45.8,-15.54 z"
       style="fill:#263238"
       id="path101" />
    <path
       d="m 389.75,420.48 c 0,0 -7.47,8.48 -26.67,11.43 -10.14,1.56 -20.7,3.5 -29.86,8.35 -5.9,3.12 -17.62,9.95 -17.62,17.75 a 7,7 0 1 0 12.07,-4.76 33.1,33.1 0 0 1 20.71,-14.05 c 14.61,-3.18 25.27,-1.88 45.81,-15.54 z"
       style="fill:#263238"
       id="path102" />
    <rect
       x="388.79001"
       y="451.88"
       width="8.0299997"
       height="13.12"
       rx="0.66000003"
       transform="rotate(180,392.805,458.44)"
       style="fill:#263238"
       id="rect102" />
    <rect
       x="390.89999"
       y="421.67001"
       width="3.8099999"
       height="43.330002"
       transform="rotate(180,392.805,443.335)"
       style="fill:#263238"
       id="rect103" />
    <path
       d="m 435.54,248.46 a 243.09,243.09 0 0 0 -4,35.86 c -0.29,9.28 -0.44,17.23 -0.58,24.24 -0.42,21.79 -0.66,33.87 -4.09,37.12 -0.44,0.3 -3.28,2.05 -9.22,2.55 -1.66,0.14 -6.94,0.21 -14.12,0.25 -22.77,-0.07 -46.7,-0.26 -47.08,-0.26 h -1.39 c -0.06,0 -0.11,0.11 -0.16,0.16 -13.68,-0.08 -17.2,-0.16 -17.45,-0.16 h -1.39 c -2.87,2.49 -1.16,5.69 1.34,5.71 1.87,0 34.46,0.29 56.75,0.29 3.94,0 7.65,0 10.94,0 h 15.06 c 11.67,0 21.34,-0.08 24,-0.3 8.25,-0.68 11.95,-3.47 12.34,-3.79 5.5,-4.88 5.71,-15.59 6.22,-41.45 0.13,-7 0.29,-14.94 0.57,-24.18 a 237.9,237.9 0 0 1 4.1,-36 z"
       style="fill:#263238"
       id="path103" />
  </g>
  <g
     id="freepik--Character--inject-5"
     transform="translate(-17.266629,-26.049705)">
    <path
       d="m 258.75,435.17 2.25,11.75 c 0,0 -2,4.25 -9.75,7.75 -7.75,3.5 -11.5,5 -11.5,6 0,1 -0.5,3.25 1.5,4 2,0.75 44.5,0 44.5,0 0,0 2.25,-1 2.25,-5.75 0,-4.75 -2,-13.5 -2,-15.5 0,-2 -1.41,-6.82 -1.41,-7.5 0,-0.68 -17.09,0.25 -17.09,0.25 0,0 -5,-4.75 -8.75,-1 z"
       style="fill:#ffffff;stroke:#263238;stroke-linecap:round;stroke-linejoin:round"
       id="path104" />
    <path
       d="m 267.5,436.17 c 0,0 1.25,11.25 2,12 0.75,0.75 16.5,0.75 16.5,0.75"
       style="fill:#ffffff;stroke:#263238;stroke-linecap:round;stroke-linejoin:round"
       id="path105" />
    <line
       x1="286"
       y1="443.42001"
       x2="268.5"
       y2="443.67001"
       style="fill:#ffffff;stroke:#263238;stroke-linecap:round;stroke-linejoin:round"
       id="line105" />
    <line
       x1="239.75"
       y1="462.67001"
       x2="287.5"
       y2="462.67001"
       style="fill:#ffffff;stroke:#263238;stroke-linecap:round;stroke-linejoin:round"
       id="line106" />
    <path
       d="m 290,294.25 c 0,0 -13.86,46.66 -15.56,53.09 -1.7,6.43 8.12,62.89 8.12,63.9 0,1.01 1.35,4.06 1.35,7.44 0,3.38 -1.35,4.39 -0.67,5.41 0.68,1.02 3,3.38 2.7,5.41 a 5.93,5.93 0 0 1 -2,4.06 6.5,6.5 0 0 1 -2.7,1.69 h -8.12 c 0,0 -2,-15.22 -7.44,-55.45 -5.44,-40.23 3.39,-63.23 5.08,-70.67 a 64.1,64.1 0 0 1 5.07,-13.86 z"
       style="fill:#263238;stroke:#263238;stroke-linecap:round;stroke-linejoin:round"
       id="path106" />
    <path
       d="m 247.25,435.17 2.25,11.75 c 0,0 -2,4.25 -9.75,7.75 -7.75,3.5 -11.5,5 -11.5,6 0,1 -0.5,3.25 1.5,4 2,0.75 44.5,0 44.5,0 0,0 2.25,-1 2.25,-5.75 0,-4.75 -2,-13.5 -2,-15.5 0,-2 -1.41,-6.82 -1.41,-7.5 0,-0.68 -17.09,0.25 -17.09,0.25 0,0 -5,-4.75 -8.75,-1 z"
       style="fill:#ffffff;stroke:#263238;stroke-linecap:round;stroke-linejoin:round"
       id="path107" />
    <path
       d="m 256,436.17 c 0,0 1.25,11.25 2,12 0.75,0.75 16.5,0.75 16.5,0.75"
       style="fill:#ffffff;stroke:#263238;stroke-linecap:round;stroke-linejoin:round"
       id="path108" />
    <line
       x1="274.5"
       y1="443.42001"
       x2="257"
       y2="443.67001"
       style="fill:#ffffff;stroke:#263238;stroke-linecap:round;stroke-linejoin:round"
       id="line108" />
    <line
       x1="228.25"
       y1="462.67001"
       x2="276"
       y2="462.67001"
       style="fill:#ffffff;stroke:#263238;stroke-linecap:round;stroke-linejoin:round"
       id="line109" />
    <path
       d="m 234.21,294.25 c 0,0 -0.34,29.42 1.35,41.93 1.69,12.51 8.12,41.59 9.13,57.48 1.01,15.89 2.71,23.34 2.71,23.34 0,0 -2.4,2 -2.4,4 0,2 1.35,2 1,5.08 -0.35,3.08 -1.69,4.05 -0.67,5.41 1.02,1.36 1.69,4.05 5.07,4.73 3.38,0.68 19.27,0.34 22.65,-0.34 3.38,-0.68 5.07,-4.06 5.07,-6.76 0,-2.7 -1,-4.73 -1,-7.78 0,-3.05 1.69,-5.74 1.69,-7.77 0,-2.03 -0.68,-3.05 -0.68,-5.08 0,-2.03 -4.39,-34.48 -4.39,-41.24 0,-6.76 -0.34,-29.76 0.67,-35.51 1.01,-5.75 6.09,-33.13 6.09,-33.13 z"
       style="fill:#f4ad7f;stroke:#263238;stroke-linecap:round;stroke-linejoin:round"
       id="path109" />
    <path
       d="m 255.64,304.17 a 46.24,46.24 0 0 0 12.44,2.43 74.63,74.63 0 0 1 9.72,0.91 l 1.82,-8.5 z"
       style="fill:#263238;stroke:#263238;stroke-linecap:round;stroke-linejoin:round"
       id="path110" />
    <path
       d="m 251.93,305.63 c 0,0 1.66,46.46 5,61.95 3.34,15.49 7.74,40.93 6.64,44.25 -1.1,3.32 -2.77,11.06 -2.77,11.06 0,0 6.09,-1.1 6.09,2.21 0,3.31 -8.85,5.54 -6.64,7.2 2.21,1.66 4.41,3.48 4.41,3.48"
       style="fill:none;stroke:#263238;stroke-linecap:round;stroke-linejoin:round"
       id="path111" />
    <path
       d="m 271.58,424.37 c 0,0 -18.36,3 -13.15,4 5.21,1 15.14,-0.25 15.64,-1.49 0.5,-1.24 -1,-2.76 -2.49,-2.51 z"
       style="fill:#263238;stroke:#263238;stroke-linecap:round;stroke-linejoin:round"
       id="path112" />
    <polygon
       points="209.61,123.74 209.78,102.98 190.54,103.15 190.03,123.91 "
       style="fill:#f4ad7f"
       id="polygon112" />
    <path
       d="m 212.82,141.46 c 0,0 -4.22,-4.22 -6.08,-8.1 -1.86,-3.88 -4.55,-6.24 -4.55,-8.94 0,-2.7 1.18,-9 0.67,-11.48 -0.51,-2.48 0,-7.76 1.69,-7.76 a 2.6,2.6 0 0 1 2.53,3.2 c -0.34,1.69 1,7.6 1,7.6 0,0 1.35,-11.31 1.52,-12 0.17,-0.69 2.53,-0.68 3.55,-0.17 1.02,0.51 2.19,0.33 2.19,2.53 0,2.2 -0.51,4.72 -0.51,5.23 0,0.51 4.73,3.21 4.9,5.23 0.17,2.02 -0.34,6.92 -1.52,9 a 21,21 0 0 0 -2,4 c -0.17,0.67 4.56,7.76 4.56,7.76 z"
       style="fill:#ffffff;stroke:#263238;stroke-linecap:round;stroke-linejoin:round"
       id="path113" />
    <path
       d="m 220.69,134.33 -11.5,8.79 c 0,0 19.61,40.57 20.29,41.88 0.68,1.31 14.87,10.15 14.87,10.15 l 21.3,-26.38 c 0,0 -26.71,-8.45 -27.38,-9.46 -0.67,-1.01 -17.58,-24.98 -17.58,-24.98 z"
       style="fill:#263238;stroke:#263238;stroke-linecap:round;stroke-linejoin:round"
       id="path114" />
    <path
       d="m 234.25,283.42 -1,15.75 c 0,0 13,5.5 27,5.25 14,-0.25 32.75,-5.75 32.75,-5.75 l 2.75,-15.5 c 0,0 -33.75,2.75 -44,1.75 -10.25,-1 -17.5,-1.5 -17.5,-1.5 z"
       style="fill:#ffffff;stroke:#263238;stroke-linecap:round;stroke-linejoin:round"
       id="path115" />
    <path
       d="m 224.25,278.42 -0.75,4.5 c 0,0 10.59,5.78 34,8 a 109.92,109.92 0 0 0 42.75,-4.5 l 0.25,-7.75 a 165.1,165.1 0 0 1 -38,4.5 197.65,197.65 0 0 1 -38.25,-4.75 z"
       style="fill:#263238;stroke:#263238;stroke-linecap:round;stroke-linejoin:round"
       id="path116" />
    <path
       d="m 243.25,185.42 c 0,0 -8.25,14.5 -11,25.75 -2.75,11.25 -8.25,63.25 -9,66.25 -0.75,3 16.75,9 28.25,9.25 11.5,0.25 37.25,0.75 41.75,-1 4.5,-1.75 8.75,-4.25 8.75,-7 0,-2.75 0.25,-13 0.25,-21.25 0,-8.25 -2.5,-51.75 -4.75,-61.75 -2.25,-10 -3.75,-17 -4.5,-18.25 -0.75,-1.25 -6.25,-7.25 -17.5,-6.5 a 60.36,60.36 0 0 0 -25,7.5 25.89,25.89 0 0 0 -7.25,7 z"
       style="fill:#263238;stroke:#263238;stroke-linecap:round;stroke-linejoin:round"
       id="path117" />
    <path
       d="m 167.85,201.58 c 0,0 -4.06,1.69 -4.4,5.75 -0.34,4.06 7.11,8.11 11.5,14.2 4.39,6.09 10.14,12.47 10.14,12.47 l 8.8,12.17 10.48,-8.79 L 177.32,206 c 0,0 1.35,-3 -0.34,-4.06 a 11.84,11.84 0 0 0 -9.13,-0.36 z"
       style="fill:#ffffff;stroke:#263238;stroke-linecap:round;stroke-linejoin:round"
       id="path118" />
    <path
       d="M 168.53,211.05 199,200.9 c 0,0 2,8.46 11.15,17.25 a 150.19,150.19 0 0 0 17.59,14.54 l -27.39,15.55 z"
       style="fill:#ffffff;stroke:#263238;stroke-linecap:round;stroke-linejoin:round"
       id="path119" />
    <path
       d="m 168.53,211.05 a 9.48,9.48 0 0 0 2.36,-5.41 3.77,3.77 0 0 0 -3,-4.06 l 30.09,-8.79 c 0,0 5.75,2 1,8.11 z"
       style="fill:#ffffff;stroke:#263238;stroke-linecap:round;stroke-linejoin:round"
       id="path120" />
    <path
       d="m 208.85,243.2 c 0,0 -6.76,-1 -7.1,-3 -0.34,-2 -1.69,-6.42 -3,-8.11 -1.31,-1.69 -7.78,-5.07 -9.81,-7.44 -2.03,-2.37 -3.38,-5.75 -4.73,-5.41 -1.35,0.34 -3.38,1.69 -2.71,3 0.67,1.31 3.72,7.11 3.72,7.11 l 0.68,2.36 c 0,0 -6.09,-1 -7.1,-1.35 a 1.87,1.87 0 0 0 -2.37,2 c 0,1.69 -1.35,1.69 0.34,2.7 1.69,1.01 3.72,2.37 3.72,2.37 0,0 2.37,5.41 3,6.42 0.63,1.01 6.09,3.39 7.1,4.06 1.01,0.67 6.43,2.37 9.13,3 2.7,0.63 8.79,3.05 8.79,3.05 l 1.69,-7.78 z"
       style="fill:#ffffff;stroke:#263238;stroke-linecap:round;stroke-linejoin:round"
       id="path121" />
    <path
       d="m 280.53,196.54 c 0,0 -0.68,28.74 -0.68,30.09 0,1.35 1,29.08 -2,31.44 -3,2.36 -17.92,5.41 -39.56,4.74 -21.64,-0.67 -31.11,-5.41 -31.11,-5.41 l 1.69,-14.2 41.25,-3 c 0,0 -4.39,-31.44 -3.72,-42.26 0.67,-10.82 9.47,-16.57 9.47,-16.57"
       style="fill:#263238;stroke:#263238;stroke-linecap:round;stroke-linejoin:round"
       id="path122" />
    <path
       d="m 235,264.07 c 0,0 40.94,1.43 43.1,-3.6 2.16,-5.03 2.15,-54.59 2.15,-54.59"
       style="fill:none;stroke:#707070;stroke-linecap:round;stroke-linejoin:round"
       id="path123" />
    <path
       d="m 253,187.2 c 0,0 -8.63,9.34 -7.19,21.55 1.44,12.21 4.32,31.4 4.32,31.4 l -15.81,0.93"
       style="fill:none;stroke:#707070;stroke-linecap:round;stroke-linejoin:round"
       id="path124" />
    <path
       d="m 235.53,109.12 c 0,0 -5.67,9.81 -4.58,11.11 1.09,1.3 0.22,3.71 0.22,3.71 0,0 -5.67,4.36 -5.23,5.88 0.44,1.52 5,5.67 5,5.67 0,0 0.87,11.77 2,12.86 1.13,1.09 8.5,2.39 10,2.61 a 8.59,8.59 0 0 1 2.4,0.66 l 4.35,23.53 24.41,-22 -3.92,-10.46 c 0,0 -2.18,-14 -2,-20.48 0.18,-6.48 -11.12,-14.39 -17.87,-16.35 -6.75,-1.96 -14.78,3.26 -14.78,3.26 z"
       style="fill:#ffffff;stroke:#263238;stroke-linecap:round;stroke-linejoin:round"
       id="path125" />
    <path
       d="m 240.1,95.82 c 0,0 -5.66,-5.88 -12.42,-1.3 -6.76,4.58 -4.79,12 1.31,14.6 6.1,2.6 13.29,0.65 10.9,3.27 -2.39,2.62 -3,8.28 0.65,9.37 3.65,1.09 3.05,5.23 3.05,7 0,1.77 3,1.53 3.71,0 0.71,-1.53 2.39,-5.66 6.53,-3.92 4.14,1.74 3.93,11.33 2.4,13.73 -1.53,2.4 -3.05,2.18 -3.05,2.18 0,0 2.4,0.87 0.87,3.7 l -1.52,2.84 c 0,0 3.48,4.14 12.2,2.61 8.72,-1.53 10.68,-5.45 9.37,-8.71 -1.31,-3.26 -4.36,-3.71 -1.09,-8.5 3.27,-4.79 11.34,-10.47 10.68,-21.36 -0.43,-7.19 -17.43,-14 -17.43,-14 0,0 3.92,-6.54 -5,-10.68 -8.92,-4.14 -19.17,0.66 -18.52,5 0.65,4.34 -2.64,4.17 -2.64,4.17 z"
       style="fill:#263238;stroke:#263238;stroke-linecap:round;stroke-linejoin:round"
       id="path126" />
    <path
       d="m 230.89,119.45 c 0,0 -2.77,-0.74 -3,0.57 -0.23,1.31 0,7.84 0,7.84 a 4.77,4.77 0 0 0 3.27,0.66 c 1.53,-0.44 0.65,-5.89 0.65,-5.89"
       style="fill:none;stroke:#263238;stroke-linecap:round;stroke-linejoin:round"
       id="path127" />
    <polyline
       points="248.17 126.77 228.1 123.45 228.12 122.19 248.17 126.77"
       style="fill:#263238;stroke:#263238;stroke-linecap:round;stroke-linejoin:round"
       id="polyline127" />
    <path
       d="m 276.94,146.39 c 0,0 -11.12,8.06 -18.75,16.34 -7.63,8.28 -16.78,17.44 -17.19,20.27 -0.41,2.83 0.43,7.19 4.79,2.61 4.36,-4.58 12.42,-10.67 18.53,-11.11 6.11,-0.44 15.47,2.62 20.26,3.27 4.79,0.65 7.85,2 9.59,-0.65 1.74,-2.65 -2.83,-8.5 -2.83,-11.56 0,-3.06 0.65,-8.28 -1.53,-12 -2.18,-3.72 -9.17,-8.26 -12.87,-7.17 z"
       style="fill:#757575;stroke:#263238;stroke-linecap:round;stroke-linejoin:round"
       id="path128" />
    <path
       d="m 291.18,157.18 a 30.78,30.78 0 0 1 -2.52,6.1 c -1.27,1.89 -19.14,5.47 -19.14,5.47 0,0 14.72,-0.84 17.45,-0.84 2.73,0 5.89,2.52 5.89,2.52 l -1.47,-4 c 0,0 0.61,-7.35 -0.21,-9.25 z"
       style="fill:#263238;stroke:#263238;stroke-linecap:round;stroke-linejoin:round"
       id="path129" />
  </g>
  <g
     id="freepik--Floor--inject-5"
     transform="translate(-17.266629,-26.049705)">
    <line
       x1="32"
       y1="465"
       x2="489"
       y2="465"
       style="fill:none;stroke:#263238;stroke-linecap:round;stroke-linejoin:round"
       id="line129" />
  </g>
</svg>
