<?xml version="1.0" encoding="UTF-8" standalone="no"?>
<svg
   viewBox="0 0 500 372.56"
   version="1.1"
   id="svg110"
   width="500"
   height="372.56"
   xmlns="http://www.w3.org/2000/svg"
   xmlns:svg="http://www.w3.org/2000/svg">
  <defs
     id="defs110" />
  <rect
     style="fill:#999999;stroke-width:0.147402"
     id="rect110"
     width="508.89453"
     height="384.37103"
     x="-3.811944"
     y="-5.717916" />
  <g
     id="freepik--background-complete--inject-78"
     transform="translate(0,-55)">
    <rect
       y="382.39999"
       width="500"
       height="0.25"
       style="fill:#ebebeb"
       id="rect1"
       x="0" />
    <rect
       x="416.78"
       y="398.48999"
       width="33.119999"
       height="0.25"
       style="fill:#ebebeb"
       id="rect2" />
    <rect
       x="322.53"
       y="401.20999"
       width="8.6899996"
       height="0.25"
       style="fill:#ebebeb"
       id="rect3" />
    <rect
       x="396.59"
       y="389.20999"
       width="19.190001"
       height="0.25"
       style="fill:#ebebeb"
       id="rect4" />
    <rect
       x="52.459999"
       y="390.89001"
       width="43.189999"
       height="0.25"
       style="fill:#ebebeb"
       id="rect5" />
    <rect
       x="104.56"
       y="390.89001"
       width="6.3299999"
       height="0.25"
       style="fill:#ebebeb"
       id="rect6" />
    <rect
       x="131.47"
       y="395.10999"
       width="93.68"
       height="0.25"
       style="fill:#ebebeb"
       id="rect7" />
    <path
       d="M 237,337.8 H 43.91 a 5.71,5.71 0 0 1 -5.7,-5.71 V 60.66 A 5.71,5.71 0 0 1 43.91,55 H 237 a 5.71,5.71 0 0 1 5.71,5.71 V 332.09 A 5.71,5.71 0 0 1 237,337.8 Z M 43.91,55.2 a 5.46,5.46 0 0 0 -5.45,5.46 v 271.43 a 5.46,5.46 0 0 0 5.45,5.46 H 237 a 5.47,5.47 0 0 0 5.46,-5.46 V 60.66 A 5.47,5.47 0 0 0 237,55.2 Z"
       style="fill:#ebebeb"
       id="path7" />
    <path
       d="m 453.31,337.8 h -193.1 a 5.72,5.72 0 0 1 -5.71,-5.71 V 60.66 A 5.72,5.72 0 0 1 260.21,55 h 193.1 a 5.71,5.71 0 0 1 5.69,5.66 v 271.43 a 5.71,5.71 0 0 1 -5.69,5.71 z M 260.21,55.2 a 5.47,5.47 0 0 0 -5.46,5.46 v 271.43 a 5.47,5.47 0 0 0 5.46,5.46 h 193.1 a 5.47,5.47 0 0 0 5.46,-5.46 V 60.66 a 5.47,5.47 0 0 0 -5.46,-5.46 z"
       style="fill:#ebebeb"
       id="path8" />
    <rect
       x="318.45001"
       y="123.4"
       width="96.959999"
       height="121.34"
       style="fill:#f5f5f5"
       id="rect8" />
    <polygon
       points="373.85,188.46 376.42,136.3 351.43,136.3 351.43,189.65 "
       style="fill:#ebebeb"
       id="polygon8" />
    <polygon
       points="403.77,193.33 385.91,193.59 369.58,146.63 404.07,146.63 "
       style="fill:#e0e0e0"
       id="polygon9" />
    <polygon
       points="341.9,181.41 330.55,184.07 336,139.75 345.07,139.75 "
       style="fill:#e6e6e6"
       id="polygon10" />
    <rect
       x="82.660004"
       y="123.4"
       width="96.959999"
       height="121.34"
       style="fill:#f5f5f5"
       id="rect10" />
    <polygon
       points="98.67,214.69 127.49,138.41 164.3,205.05 "
       style="fill:#e0e0e0"
       id="polygon11" />
    <polygon
       points="144.15,235.73 92.64,144.25 92.64,198.37 167.74,175.05 169.97,133.48 97.96,235.73 "
       style="fill:#ebebeb"
       id="polygon12" />
    <rect
       x="200.55"
       y="123.4"
       width="96.959999"
       height="121.34"
       transform="rotate(180,249.035,184.065)"
       style="fill:#e6e6e6"
       id="rect12" />
    <polygon
       points="218.57,153.82 222.74,214.68 273.69,163.18 "
       style="fill:#e0e0e0"
       id="polygon13" />
    <polygon
       points="236.62,172.67 233.84,202.89 272.46,202.47 274.99,162.98 "
       style="fill:#f0f0f0"
       id="polygon14" />
    <ellipse
       cx="222.28"
       cy="146.89999"
       rx="15.49"
       ry="15.93"
       style="fill:#fafafa"
       id="ellipse14" />
    <path
       d="m 267.45,216.56 a 7.51,7.51 0 1 1 7.51,7.72 7.63,7.63 0 0 1 -7.51,-7.72 z"
       style="fill:#e0e0e0"
       id="path14" />
    <polygon
       points="269.72,201.11 273.18,230.13 251.49,216.56 "
       style="fill:#f5f5f5"
       id="polygon15" />
    <rect
       x="243.3"
       y="138.83"
       width="4.2600002"
       height="96.889999"
       style="fill:#e0e0e0"
       id="rect15" />
    <rect
       x="282.89999"
       y="138.83"
       width="5.52"
       height="92.610001"
       style="fill:#ebebeb"
       id="rect16" />
    <rect
       x="210.28999"
       y="202.89"
       width="28.18"
       height="28.99"
       style="fill:#ebebeb"
       id="rect17" />
    <path
       d="m 82.41,319.37 h 59.72 a 3.4,3.4 0 0 1 3.4,3.4 v 11.69 H 79 v -11.68 a 3.4,3.4 0 0 1 3.41,-3.41 z"
       style="fill:#ebebeb"
       id="path17" />
    <path
       d="m 150.79,319.37 h 59.72 a 3.4,3.4 0 0 1 3.4,3.4 v 11.69 h -66.52 v -11.68 a 3.4,3.4 0 0 1 3.4,-3.41 z"
       style="fill:#ebebeb"
       id="path18" />
    <path
       d="m 219.18,319.37 h 59.72 a 3.4,3.4 0 0 1 3.4,3.4 v 11.69 h -66.52 v -11.68 a 3.4,3.4 0 0 1 3.4,-3.41 z"
       style="fill:#ebebeb"
       id="path19" />
    <path
       d="m 287.56,319.37 h 59.72 a 3.4,3.4 0 0 1 3.4,3.4 v 11.69 h -66.52 v -11.68 a 3.4,3.4 0 0 1 3.4,-3.41 z"
       style="fill:#ebebeb"
       id="path20" />
    <path
       d="m 355.95,319.37 h 59.72 a 3.4,3.4 0 0 1 3.4,3.4 v 11.69 h -66.52 v -11.68 a 3.4,3.4 0 0 1 3.4,-3.41 z"
       style="fill:#ebebeb"
       id="path21" />
    <rect
       x="72.010002"
       y="327.60999"
       width="354.04001"
       height="12.35"
       style="fill:#e0e0e0"
       id="rect21" />
    <path
       d="m 434.55,383.21 h -5 v -37.48 a 5.69,5.69 0 0 0 -5.68,-5.68 H 74.2 a 5.69,5.69 0 0 0 -5.68,5.68 v 37.48 h -5 V 345.73 A 10.69,10.69 0 0 1 74.2,335.05 h 349.67 a 10.69,10.69 0 0 1 10.68,10.68 z"
       style="fill:#e0e0e0"
       id="path22" />
    <rect
       x="246.53999"
       y="333.79001"
       width="5"
       height="49.419998"
       style="fill:#e0e0e0"
       id="rect22" />
  </g>
  <g
     id="freepik--Shadow--inject-78"
     transform="translate(0,-55)">
    <ellipse
       id="freepik--path--inject-78"
       cx="250"
       cy="416.23999"
       rx="193.89"
       ry="11.32"
       style="fill:#f5f5f5" />
  </g>
  <g
     id="freepik--film-roll--inject-78"
     transform="translate(0,-55)">
    <path
       d="m 361.85,249.28 c -3.44,-48.15 -35.43,-85.11 -71.44,-82.53 -1.21,0.08 -2.4,0.22 -3.59,0.39 h -0.08 c -36,2.58 -62.41,43.7 -59,91.86 3.41,48.16 35.42,85.11 71.43,82.54 1.21,-0.09 2.41,-0.22 3.6,-0.4 h 0.08 c 36.04,-2.57 62.44,-43.7 59,-91.86 z m -11.41,1.17 c 0.71,10.35 -4.39,19.31 -11.72,21.31 -8,-0.39 -14.75,-8.83 -15.5,-19.62 -0.72,-10.35 4.38,-19.31 11.71,-21.3 7.95,0.39 14.76,8.82 15.51,19.61 z m -32.9,-64.3 c 7.75,5.29 11.08,17.79 7.43,27.91 -2.07,5.75 -6,9.49 -10.33,10.69 A 13,13 0 0 1 308,222.41 c -7.75,-5.29 -11.07,-17.78 -7.43,-27.9 2.07,-5.75 5.95,-9.5 10.34,-10.69 a 12.92,12.92 0 0 1 6.63,2.33 z m -28.2,82 a 4.77,4.77 0 0 1 0.1,-2.78 3.9,3.9 0 0 1 0.4,-0.79 4.57,4.57 0 0 1 0.88,4.56 3.23,3.23 0 0 1 -0.39,0.79 4,4 0 0 1 -0.99,-1.78 z m 3,-13.9 a 6.2,6.2 0 0 1 2,-5.29 6.1,6.1 0 0 1 2.94,5.07 6.18,6.18 0 0 1 -2,5.29 6.09,6.09 0 0 1 -2.93,-5.07 z m 7.92,-14.12 a 4.69,4.69 0 0 1 -0.1,2.78 3.23,3.23 0 0 1 -0.39,0.79 4.57,4.57 0 0 1 -0.89,-4.56 3.9,3.9 0 0 1 0.4,-0.79 4,4 0 0 1 0.99,1.78 z m -61.09,17.7 c -0.72,-10.35 4.38,-19.31 11.71,-21.31 8,0.39 14.76,8.83 15.51,19.62 0.71,10.35 -4.39,19.31 -11.71,21.31 -7.95,-0.4 -14.75,-8.83 -15.5,-19.62 z m 32.9,64.3 c -7.75,-5.29 -11.08,-17.79 -7.43,-27.91 2.07,-5.75 6,-9.49 10.33,-10.69 a 13,13 0 0 1 6.63,2.34 c 7.75,5.29 11.08,17.78 7.43,27.91 -2.07,5.75 -6,9.49 -10.33,10.68 a 12.92,12.92 0 0 1 -6.62,-2.33 z M 288.7,240 a 4.65,4.65 0 0 1 0.48,2.74 4,4 0 0 1 -0.62,1.73 3.68,3.68 0 0 1 -0.63,-0.85 4.86,4.86 0 0 1 -0.48,-2.75 4,4 0 0 1 0.62,-1.73 3.3,3.3 0 0 1 0.63,0.86 z m -4.06,14.92 a 4.34,4.34 0 0 1 -0.63,2.65 4.16,4.16 0 0 1 -1.14,-2.68 4.33,4.33 0 0 1 0.63,-2.64 4.14,4.14 0 0 1 1.14,2.65 z M 280.88,196 c 5,9.53 3.43,22.36 -3.52,28.64 a 13.1,13.1 0 0 1 -5.33,3 c -4.83,-0.25 -9.6,-3.48 -12.65,-9.27 -5,-9.54 -3.43,-22.36 3.52,-28.65 a 13.08,13.08 0 0 1 5.33,-3 c 4.83,0.28 9.6,3.48 12.65,9.28 z m 20,72.32 a 4.62,4.62 0 0 1 0.15,-4.48 3.51,3.51 0 0 1 0.62,0.86 4.65,4.65 0 0 1 0.48,2.74 4,4 0 0 1 -0.62,1.73 4,4 0 0 1 -0.6,-0.86 z M 305,253.38 a 4.3,4.3 0 0 1 0.64,-2.65 4.27,4.27 0 0 1 1.14,2.68 4.31,4.31 0 0 1 -0.64,2.65 4.27,4.27 0 0 1 -1.14,-2.68 z m 3.77,58.91 c -5,-9.53 -3.44,-22.36 3.51,-28.64 a 13.09,13.09 0 0 1 5.33,-3 c 4.84,0.24 9.61,3.47 12.65,9.26 5,9.54 3.44,22.36 -3.51,28.65 a 13.14,13.14 0 0 1 -5.33,3 c -4.87,-0.25 -9.64,-3.47 -12.68,-9.27 z"
       style="fill:#30a7f5"
       id="path23" />
    <path
       d="m 290.41,166.75 c -36,2.57 -62.41,43.7 -59,91.85 3.41,48.15 35.43,85.11 71.44,82.54 36.01,-2.57 62.41,-43.7 59,-91.86 -3.41,-48.16 -35.43,-85.11 -71.44,-82.53 z m 10.16,27.76 c 3.65,-10.12 12.89,-14 20.64,-8.75 7.75,5.25 11.08,17.78 7.43,27.9 -3.65,10.12 -12.88,14 -20.63,8.75 -7.75,-5.25 -11.08,-17.78 -7.44,-27.9 z m 9.85,58.5 c 0.14,2 -1,3.72 -2.46,3.83 v 0 c -1.5,0.1 -2.84,-1.45 -3,-3.46 -0.16,-2.01 1,-3.72 2.47,-3.83 1.47,-0.11 2.85,1.45 2.99,3.45 z m -11.53,-13.87 a 2.71,2.71 0 0 1 2.22,-2 2.21,2.21 0 0 1 1.42,0.42 3.62,3.62 0 0 1 1.41,2.14 4.7,4.7 0 0 1 -0.09,2.78 2.7,2.7 0 0 1 -2.22,1.95 2.19,2.19 0 0 1 -1.43,-0.41 4.41,4.41 0 0 1 -1.31,-4.88 z m -6.52,0.44 a 4.75,4.75 0 0 1 0.49,2.74 3.64,3.64 0 0 1 -1.11,2.31 2.16,2.16 0 0 1 -1.33,0.6 2.73,2.73 0 0 1 -2.49,-1.63 4.86,4.86 0 0 1 -0.48,-2.75 3.74,3.74 0 0 1 1.1,-2.31 2.27,2.27 0 0 1 1.34,-0.6 2.7,2.7 0 0 1 2.48,1.64 z M 262.9,189.7 c 7,-6.28 16.64,-3.65 21.65,5.89 5.01,9.54 3.45,22.41 -3.55,28.65 -7,6.24 -16.65,3.64 -21.66,-5.89 C 254.33,208.82 256,196 262.9,189.7 Z m 25.42,64.81 c 0.14,2 -1,3.72 -2.47,3.82 v 0 c -1.51,0.11 -2.84,-1.45 -3,-3.46 -0.16,-2.01 1,-3.72 2.46,-3.82 1.46,-0.1 2.87,1.45 3.01,3.46 z m -49.14,3.32 c -0.79,-11.4 5.48,-21.12 14,-21.7 8.52,-0.58 16.09,8.21 16.88,19.61 0.79,11.4 -5.48,21.12 -14,21.7 -8.52,0.58 -16.06,-8.2 -16.88,-19.61 z m 53.54,55.55 c -3.65,10.12 -12.89,14 -20.64,8.75 -7.75,-5.25 -11.08,-17.79 -7.43,-27.91 3.65,-10.12 12.88,-14 20.63,-8.75 7.75,5.25 11.08,17.79 7.44,27.91 z m 1.68,-44.63 a 2.72,2.72 0 0 1 -2.22,1.95 2.2,2.2 0 0 1 -1.42,-0.41 3.68,3.68 0 0 1 -1.42,-2.14 4.77,4.77 0 0 1 0.1,-2.78 2.71,2.71 0 0 1 2.22,-2 2.31,2.31 0 0 1 1.43,0.41 4.42,4.42 0 0 1 1.31,4.97 z m -2,-14.5 c -0.23,-3.17 1.51,-5.88 3.88,-6.05 2.37,-0.17 4.48,2.26 4.71,5.44 0.23,3.18 -1.51,5.88 -3.88,6.05 -2.37,0.17 -4.54,-2.27 -4.76,-5.44 z m 8.56,14.06 a 4.42,4.42 0 0 1 0.62,-5.06 2.27,2.27 0 0 1 1.34,-0.6 2.72,2.72 0 0 1 2.49,1.64 4.82,4.82 0 0 1 0.48,2.74 3.69,3.69 0 0 1 -1.1,2.31 2.21,2.21 0 0 1 -1.34,0.6 2.73,2.73 0 0 1 -2.54,-1.63 z m 29.48,49.87 c -6.95,6.29 -16.64,3.65 -21.65,-5.89 -5.01,-9.54 -3.44,-22.36 3.51,-28.64 6.95,-6.28 16.65,-3.65 21.65,5.89 5,9.54 3.39,22.36 -3.56,28.64 z m 9.71,-46.43 c -8.53,0.58 -16.09,-8.2 -16.88,-19.61 -0.79,-11.41 5.48,-21.12 14,-21.69 8.52,-0.57 16.09,8.2 16.88,19.6 0.79,11.4 -5.52,21.12 -14.05,21.7 z"
       style="opacity:0.2"
       id="path24" />
    <path
       d="m 316.61,153.17 c 59.79,5.47 64,80.3 60.05,109 l -31,-9.66 c 0,0 -6,-89.91 -65.78,-95.38 0,0 -5.91,-0.74 -17.06,1.17 a 222.51,222.51 0 0 1 50.57,-5.3"
       style="opacity:0.2;fill:#fafafa"
       id="path25" />
    <path
       d="m 316.61,153.17 c 59.79,5.47 64,80.3 60.05,109 l -31,-9.66 c 0,0 -6,-89.91 -65.78,-95.38 0,0 -5.91,-0.74 -17.06,1.17 a 222.51,222.51 0 0 1 50.57,-5.3"
       style="fill:#263238"
       id="path26" />
    <path
       d="m 313.39,153 c -6.43,-0.14 -12.74,0.11 -18.61,0.57 a 42.45,42.45 0 0 0 -4.81,2 c -2.22,0.13 -4.39,0.28 -6.48,0.45 1.13,-0.63 2.3,-1.2 3.49,-1.73 a 216.18,216.18 0 0 0 -24.16,4 h 0.06 c -50.4,12.4 -55,103.25 -84,96.5 l 0.47,0.15 c 0,0 18,7 37.13,5.14 l -0.6,-0.15 c 30.24,3 34.95,-109 97.58,-107 z m -57.55,8 c 1.42,-0.24 2.92,-0.49 4.49,-0.72 a 54.7,54.7 0 0 0 -5.3,3.58 v 0 c -1.64,0.28 -3.19,0.58 -4.6,0.87 a 59.88,59.88 0 0 1 5.41,-3.73 z m -7.18,5.14 c 1.37,-0.25 2.84,-0.49 4.39,-0.73 -1.28,1.06 -2.54,2.17 -3.74,3.33 v 0 c -1.64,0.29 -3.16,0.57 -4.55,0.85 1.24,-1.18 2.55,-2.34 3.9,-3.44 z m -5.26,4.78 c 1.38,-0.24 2.85,-0.48 4.41,-0.71 -1,1 -2,2.1 -3,3.21 -1.64,0.27 -3.16,0.55 -4.53,0.81 q 1.51,-1.7 3.12,-3.3 z m -4.28,4.61 v 0 l 4.42,-0.69 c -0.86,1 -1.71,2 -2.54,3.1 -1.63,0.26 -3.15,0.52 -4.54,0.77 0.88,-1.07 1.76,-2.13 2.66,-3.17 z m -3.68,4.51 c 1.39,-0.22 2.87,-0.43 4.45,-0.65 q -1.12,1.48 -2.22,3 c -1.62,0.23 -3.14,0.47 -4.53,0.7 0.74,-1.01 1.51,-2.03 2.3,-3.04 z m -3.29,4.46 c 1.41,-0.2 2.9,-0.4 4.47,-0.58 -0.67,1 -1.33,1.95 -2,2.95 v 0 c -1.62,0.21 -3.15,0.44 -4.55,0.65 0.7,-1.02 1.39,-2.02 2.08,-3.01 z m -3,4.42 c 1.41,-0.17 2.91,-0.34 4.49,-0.5 -0.62,0.95 -1.22,1.92 -1.81,2.9 -1.61,0.17 -3.13,0.37 -4.54,0.55 0.63,-0.98 1.25,-1.96 1.88,-2.94 z m -2.78,4.45 c 1.42,-0.16 2.92,-0.31 4.5,-0.44 -0.57,0.94 -1.11,1.89 -1.66,2.84 -1.61,0.16 -3.12,0.32 -4.54,0.49 z m -2.59,4.45 c 1.42,-0.14 2.92,-0.27 4.49,-0.37 -0.53,0.93 -1,1.87 -1.55,2.81 -1.6,0.12 -3.11,0.27 -4.55,0.41 0.55,-0.95 1.08,-1.89 1.63,-2.84 z m -27.58,55.72 -4.48,-0.44 a 25.22,25.22 0 0 0 2.53,-2.45 c 1.4,0.15 2.89,0.29 4.44,0.42 a 28.91,28.91 0 0 1 -2.47,2.48 z m 4.75,-5.2 -4.44,-0.35 c 0.62,-0.81 1.25,-1.66 1.87,-2.56 l 4.42,0.34 c -0.59,0.91 -1.2,1.77 -1.8,2.58 z m 3.66,-5.34 c -1.56,-0.09 -3,-0.19 -4.46,-0.26 q 0.79,-1.26 1.59,-2.61 l 4.45,0.27 c -0.51,0.9 -1.04,1.77 -1.56,2.6 z m 3.15,-5.37 -4.47,-0.19 c 0.48,-0.85 1,-1.73 1.45,-2.63 l 4.45,0.19 c -0.45,0.9 -0.93,1.78 -1.41,2.64 z m 2.88,-5.38 -4.49,-0.11 c 0.45,-0.87 0.91,-1.75 1.36,-2.66 l 4.48,0.12 c -0.44,0.91 -0.88,1.79 -1.33,2.66 z m 2.71,-5.37 h -4.5 c 0.44,-0.89 0.89,-1.77 1.33,-2.68 h 4.49 c -0.43,0.91 -0.87,1.8 -1.3,2.69 z m 2.64,-5.35 c -1.6,0 -3.1,0 -4.53,0.05 0.45,-0.89 0.89,-1.8 1.34,-2.7 1.43,0 2.92,0 4.5,-0.06 z m 2.6,-5.34 -4.52,0.14 c 0.44,-0.91 0.9,-1.82 1.37,-2.74 l 4.49,-0.13 z m 2.63,-5.33 -4.53,0.24 1.41,-2.77 c 1.43,-0.08 2.93,-0.15 4.51,-0.21 -0.45,0.88 -0.91,1.88 -1.37,2.75 z m -1.85,-5 q 0.74,-1.41 1.5,-2.82 c 1.43,-0.1 2.93,-0.2 4.5,-0.29 -0.49,0.93 -1,1.85 -1.46,2.78 -1.58,0.14 -3.09,0.24 -4.52,0.37 z m 3.36,49.64 -4.91,-0.29 a 20.23,20.23 0 0 0 3.12,-2.5 l 4.78,0.26 a 19.78,19.78 0 0 1 -2.97,2.57 z m 5.58,-5.46 -4.71,-0.26 c 0.64,-0.8 1.29,-1.67 1.92,-2.59 1.52,0.1 3.09,0.18 4.69,0.26 -0.61,0.96 -1.21,1.82 -1.88,2.63 z m 3.8,-5.57 -4.66,-0.24 q 0.76,-1.26 1.53,-2.61 l 4.65,0.24 c -0.49,0.94 -0.99,1.81 -1.5,2.65 z m 3.14,-5.6 -4.65,-0.23 c 0.46,-0.86 0.91,-1.73 1.36,-2.62 l 4.63,0.23 c -0.42,0.93 -0.87,1.81 -1.32,2.66 z m 2.79,-5.61 -4.63,-0.22 c 0.42,-0.86 0.84,-1.75 1.25,-2.64 1.51,0.08 3.06,0.14 4.63,0.23 -0.4,0.93 -0.81,1.81 -1.23,2.67 z m 2.61,-5.63 -4.62,-0.2 1.2,-2.64 4.62,0.21 c -0.38,0.93 -0.78,1.8 -1.18,2.67 z m 2.55,-5.63 -4.63,-0.18 1.17,-2.65 c 1.51,0.06 3,0.12 4.62,0.2 z m 2.48,-5.63 -4.64,-0.16 c 0.39,-0.88 0.79,-1.76 1.18,-2.66 l 4.64,0.18 z m 2.51,-5.62 c -1.58,0 -3.13,-0.11 -4.66,-0.14 0.41,-0.88 0.81,-1.77 1.21,-2.65 l 4.65,0.15 c -0.39,0.89 -0.81,1.8 -1.2,2.68 z m 2.57,-5.61 -4.67,-0.12 c 0.41,-0.88 0.83,-1.77 1.26,-2.66 1.52,0 3.08,0.07 4.66,0.13 -0.42,0.92 -0.84,1.8 -1.25,2.69 z m 2.67,-5.6 c -1.59,-0.05 -3.16,-0.08 -4.7,-0.09 0.44,-0.9 0.88,-1.79 1.33,-2.68 1.54,0 3.1,0.06 4.69,0.11 -0.45,0.92 -0.89,1.81 -1.32,2.7 z m 2.47,-4.92 c -1.61,0 -3.19,0 -4.74,0 0.46,-0.9 0.92,-1.8 1.4,-2.69 q 2.33,0 4.74,0 c -0.47,0.95 -0.94,1.85 -1.4,2.73 z m 2.61,-4.87 c -1.64,0 -3.25,0 -4.81,0.06 0.5,-0.91 1,-1.82 1.53,-2.72 1.57,0 3.16,0 4.8,0 -0.52,0.91 -1.03,1.81 -1.52,2.7 z M 261.3,185 c -1.67,0 -3.3,0.07 -4.89,0.13 0.55,-0.93 1.1,-1.85 1.67,-2.75 1.59,-0.05 3.22,-0.08 4.89,-0.1 -0.57,0.86 -1.13,1.72 -1.67,2.72 z m 3,-4.83 c -1.7,0.05 -3.36,0.12 -5,0.2 0.6,-0.94 1.22,-1.86 1.85,-2.77 1.63,-0.06 3.29,-0.12 5,-0.16 -0.59,0.86 -1.21,1.77 -1.82,2.69 z m 3.36,-4.8 c -1.74,0.07 -3.43,0.16 -5.09,0.26 0.69,-1 1.4,-1.9 2.12,-2.81 1.66,-0.1 3.37,-0.17 5.11,-0.22 -0.7,0.86 -1.41,1.78 -2.11,2.73 z m 3.82,-4.83 c -1.79,0.1 -3.53,0.21 -5.23,0.33 0.81,-1 1.64,-1.93 2.48,-2.86 1.72,-0.11 3.48,-0.2 5.28,-0.29 -0.83,0.88 -1.67,1.81 -2.5,2.78 z m 4.53,-4.86 c -1.87,0.11 -3.69,0.24 -5.44,0.38 1,-1 2,-2 3,-2.91 1.79,-0.14 3.63,-0.24 5.52,-0.34 -1,0.88 -2.04,1.84 -3.09,2.83 z m 5.7,-4.95 v 0 c -2,0.11 -3.91,0.26 -5.78,0.43 a 49.24,49.24 0 0 1 4.08,-3 v 0 c 1.93,-0.14 3.91,-0.25 5.94,-0.35 a 46.91,46.91 0 0 0 -4.21,2.88 z"
       style="fill:#263238"
       id="path27" />
    <path
       d="m 311.39,152.94 h 2 v 0 c -0.66,0.06 -1.33,-0.01 -2,0 z M 290,155.56 c -2.22,0.13 -4.39,0.28 -6.48,0.45 1.13,-0.63 2.31,-1.2 3.48,-1.73 -1.29,0.14 -2.54,0.3 -3.77,0.45 -8,1 -14.33,2.26 -17.7,3 -1.55,0.33 -2.48,0.55 -2.65,0.59 v 0 c -50.4,12.39 -55,103.24 -84,96.49 l 0.47,0.15 c 0,0 18,7 37.13,5.13 l -0.6,-0.14 c 29.91,3 34.83,-106.56 95.56,-107 -5.74,-0.05 -11.36,0.19 -16.61,0.6 A 44.36,44.36 0 0 0 290,155.56 Z M 255.84,161 c 1.42,-0.24 2.92,-0.49 4.49,-0.72 a 54.7,54.7 0 0 0 -5.3,3.58 v 0 c -1.64,0.28 -3.19,0.58 -4.6,0.87 a 59.88,59.88 0 0 1 5.41,-3.73 z m -7.18,5.14 c 1.37,-0.25 2.84,-0.49 4.39,-0.73 -1.28,1.06 -2.54,2.17 -3.74,3.33 v 0 c -1.64,0.29 -3.16,0.57 -4.55,0.85 1.24,-1.18 2.55,-2.34 3.9,-3.44 z m -5.26,4.78 c 1.38,-0.24 2.85,-0.48 4.41,-0.71 -1,1 -2,2.1 -3,3.21 -1.64,0.27 -3.16,0.55 -4.53,0.81 q 1.51,-1.7 3.12,-3.3 z m -4.28,4.61 v 0 l 4.42,-0.69 c -0.86,1 -1.71,2 -2.54,3.1 -1.63,0.26 -3.15,0.52 -4.54,0.77 0.88,-1.07 1.76,-2.13 2.66,-3.17 z m -3.68,4.51 c 1.39,-0.22 2.87,-0.43 4.45,-0.65 q -1.12,1.48 -2.22,3 c -1.62,0.23 -3.14,0.47 -4.53,0.7 0.74,-1.01 1.51,-2.03 2.3,-3.04 z m -3.29,4.46 c 1.41,-0.2 2.9,-0.4 4.47,-0.58 -0.67,1 -1.33,1.95 -2,2.95 v 0 c -1.62,0.21 -3.15,0.44 -4.55,0.65 0.7,-1.02 1.39,-2.02 2.08,-3.01 z m -3,4.42 c 1.41,-0.17 2.91,-0.34 4.49,-0.5 -0.62,0.95 -1.22,1.92 -1.81,2.9 -1.61,0.17 -3.13,0.37 -4.54,0.55 0.63,-0.98 1.25,-1.96 1.88,-2.94 z m -2.78,4.45 c 1.42,-0.16 2.92,-0.31 4.5,-0.44 -0.57,0.94 -1.11,1.89 -1.66,2.84 -1.61,0.16 -3.12,0.32 -4.54,0.49 z m -2.59,4.45 c 1.42,-0.14 2.92,-0.27 4.49,-0.37 -0.53,0.93 -1,1.87 -1.55,2.81 -1.6,0.12 -3.11,0.27 -4.55,0.41 0.55,-0.95 1.08,-1.89 1.63,-2.84 z m -2.91,5.25 c 1.43,-0.1 2.93,-0.2 4.5,-0.29 -0.49,0.93 -1,1.85 -1.46,2.78 -1.6,0.1 -3.11,0.2 -4.54,0.33 q 0.76,-1.4 1.52,-2.81 z m -2.77,5.26 c 1.43,-0.08 2.93,-0.15 4.51,-0.21 -0.47,0.91 -0.93,1.83 -1.39,2.74 l -4.53,0.24 z m -2.66,5.26 4.49,-0.13 -1.34,2.73 -4.52,0.14 c 0.46,-0.9 0.93,-1.81 1.39,-2.73 z m -2.64,5.29 c 1.43,0 2.92,0 4.5,-0.06 l -1.3,2.72 c -1.6,0 -3.1,0 -4.53,0.05 0.46,-0.89 0.9,-1.8 1.35,-2.7 z m -2.62,5.29 h 4.49 c -0.45,0.9 -0.89,1.8 -1.32,2.68 h -4.5 c 0.46,-0.85 0.91,-1.76 1.35,-2.67 z m -2.67,5.31 4.48,0.12 c -0.46,0.9 -0.9,1.78 -1.35,2.65 l -4.49,-0.11 c 0.47,-0.86 0.93,-1.74 1.38,-2.65 z m -2.77,5.33 4.45,0.19 c -0.47,0.89 -1,1.77 -1.43,2.63 l -4.47,-0.19 c 0.5,-0.84 0.98,-1.72 1.47,-2.62 z m -3,5.32 4.45,0.27 c -0.53,0.89 -1.06,1.76 -1.58,2.6 -1.56,-0.09 -3,-0.19 -4.46,-0.26 q 0.85,-1.25 1.61,-2.6 z m -3.36,5.3 4.42,0.34 c -0.61,0.9 -1.22,1.76 -1.85,2.57 l -4.44,-0.35 c 0.64,-0.8 1.27,-1.65 1.89,-2.55 z m -4.13,5.22 c 1.4,0.15 2.89,0.29 4.44,0.42 a 28.91,28.91 0 0 1 -2.49,2.47 l -4.48,-0.44 a 25.22,25.22 0 0 0 2.55,-2.44 z m 28.48,4.88 -4.91,-0.29 a 20.23,20.23 0 0 0 3.12,-2.5 l 4.78,0.26 a 19.78,19.78 0 0 1 -2.97,2.54 z m 5.58,-5.46 -4.71,-0.26 c 0.64,-0.8 1.29,-1.67 1.92,-2.59 1.52,0.1 3.09,0.18 4.69,0.26 -0.61,0.93 -1.21,1.79 -1.88,2.6 z m 3.8,-5.57 -4.66,-0.24 q 0.76,-1.26 1.53,-2.61 l 4.65,0.24 c -0.49,0.91 -0.99,1.78 -1.5,2.62 z m 3.14,-5.6 -4.65,-0.23 c 0.46,-0.86 0.91,-1.73 1.36,-2.62 l 4.63,0.23 c -0.42,0.9 -0.87,1.78 -1.32,2.63 z m 2.79,-5.61 -4.63,-0.22 c 0.42,-0.86 0.84,-1.75 1.25,-2.64 1.51,0.08 3.06,0.14 4.63,0.23 -0.4,0.9 -0.81,1.78 -1.23,2.64 z m 2.61,-5.63 -4.62,-0.2 1.2,-2.64 4.62,0.21 c -0.38,0.9 -0.78,1.77 -1.18,2.64 z m 2.55,-5.66 -4.63,-0.18 1.17,-2.65 c 1.51,0.06 3,0.12 4.62,0.2 z m 2.48,-5.63 -4.64,-0.16 c 0.39,-0.88 0.79,-1.76 1.18,-2.66 l 4.64,0.18 z m 2.51,-5.62 c -1.58,0 -3.13,-0.11 -4.66,-0.14 0.41,-0.88 0.81,-1.77 1.21,-2.65 l 4.65,0.15 c -0.39,0.89 -0.81,1.8 -1.2,2.68 z m 2.57,-5.61 -4.67,-0.12 c 0.41,-0.88 0.83,-1.77 1.26,-2.66 1.52,0 3.08,0.07 4.66,0.13 -0.42,0.92 -0.84,1.8 -1.25,2.69 z m 2.67,-5.6 c -1.59,-0.05 -3.16,-0.08 -4.7,-0.09 0.44,-0.9 0.88,-1.79 1.33,-2.68 1.54,0 3.1,0.06 4.69,0.11 -0.45,0.92 -0.89,1.81 -1.32,2.7 z m 2.47,-4.92 c -1.61,0 -3.19,0 -4.74,0 0.46,-0.9 0.92,-1.8 1.4,-2.69 q 2.33,0 4.74,0 c -0.47,0.95 -0.94,1.85 -1.4,2.73 z m 2.61,-4.87 c -1.64,0 -3.25,0 -4.81,0.06 0.5,-0.91 1,-1.82 1.53,-2.72 1.57,0 3.16,0 4.8,0 -0.52,0.91 -1.03,1.81 -1.52,2.7 z M 261.3,185 c -1.67,0 -3.3,0.07 -4.89,0.13 0.55,-0.93 1.1,-1.85 1.67,-2.75 1.59,-0.05 3.22,-0.08 4.89,-0.1 -0.57,0.86 -1.13,1.72 -1.67,2.72 z m 3,-4.83 c -1.7,0.05 -3.36,0.12 -5,0.2 0.6,-0.94 1.22,-1.86 1.85,-2.77 1.63,-0.06 3.29,-0.12 5,-0.16 -0.59,0.86 -1.21,1.77 -1.82,2.69 z m 3.36,-4.8 c -1.74,0.07 -3.43,0.16 -5.09,0.26 0.69,-1 1.4,-1.9 2.12,-2.81 1.66,-0.1 3.37,-0.17 5.11,-0.22 -0.7,0.86 -1.41,1.78 -2.11,2.73 z m 3.82,-4.83 c -1.79,0.1 -3.53,0.21 -5.23,0.33 0.81,-1 1.64,-1.93 2.48,-2.86 1.72,-0.11 3.48,-0.2 5.28,-0.29 -0.83,0.88 -1.67,1.81 -2.5,2.78 z m 4.53,-4.86 c -1.87,0.11 -3.69,0.24 -5.44,0.38 1,-1 2,-2 3,-2.91 1.79,-0.14 3.63,-0.24 5.52,-0.34 -1,0.88 -2.04,1.84 -3.09,2.83 z m 5.7,-4.95 v 0 c -2,0.11 -3.91,0.26 -5.78,0.43 a 49.24,49.24 0 0 1 4.08,-3 v 0 c 1.93,-0.14 3.91,-0.25 5.94,-0.35 a 46.91,46.91 0 0 0 -4.21,2.88 z"
       style="opacity:0.4;fill:#fafafa"
       id="path28" />
    <g
       style="opacity:0.4"
       id="g35">
      <path
         d="m 215.51,225.86 c -1.16,2.41 -2.29,4.64 -3.38,6.71 6.66,0.4 13.13,0.61 19.06,0.71 1,-2 2,-4 3.05,-6.06 1.4,-2.79 2.89,-6.1 4.51,-9.75 -6.91,-0.12 -13.38,-0.16 -19.11,-0.15 -1.44,2.94 -2.82,5.8 -4.13,8.54 z"
         id="path29" />
      <path
         d="m 231,195.87 c 5.46,-0.31 11.49,-0.5 18,-0.49 2.48,-4.87 5.25,-9.83 8.35,-14.69 -6.09,0.2 -11.88,0.51 -17.16,0.88 -3.19,4.53 -6.28,9.36 -9.19,14.3 z"
         id="path30" />
      <path
         d="m 198.86,252.42 a 165.92,165.92 0 0 0 18.44,0.86 c 4.73,-3.9 8.42,-9.68 12,-16.45 -6,-0.12 -12.47,-0.36 -19.11,-0.79 a 88.51,88.51 0 0 1 -11.33,16.38 z"
         id="path31" />
      <path
         d="m 221.42,213.74 c 5.73,0 12.11,0 18.9,0.17 2.05,-4.63 4.32,-9.7 6.9,-14.95 -6.66,0 -12.82,0.27 -18.31,0.62 -2.66,4.73 -5.16,9.51 -7.49,14.16 z"
         id="path32" />
      <path
         d="m 195.48,255.72 a 13.29,13.29 0 0 1 -2.32,1.67 c 7.52,1.82 13.38,1.45 18.22,-0.53 -5.95,-0.14 -11.27,-0.57 -15.9,-1.14 z"
         id="path33" />
      <path
         d="m 283.2,154.73 a 53.89,53.89 0 0 0 -9.14,6 c -5.55,0.21 -10.65,0.6 -15.31,1.1 a 46.56,46.56 0 0 1 6.75,-4.14 c 3.37,-0.69 9.7,-1.93 17.7,-2.96 z"
         id="path34" />
      <path
         d="m 243,177.8 c 5.22,-0.34 10.87,-0.61 16.76,-0.77 1.59,-2.33 3.25,-4.62 5,-6.85 a 61.16,61.16 0 0 1 5,-5.63 c -6,0.36 -11.44,0.93 -16.3,1.6 A 92.94,92.94 0 0 0 243,177.8 Z"
         id="path35" />
    </g>
    <path
       d="m 216.43,260 a 14.14,14.14 0 0 1 -4.59,-1.06 c -21.71,-8.8 -32.66,-46.71 -18.21,-102.92 9.09,-35.36 26,-47 26,-47 -21.66,-8.07 -35.5,-4.91 -35.5,-4.91 0,0 -16.93,11.69 -26,47.05 -14.44,56.21 -3.5,94.12 18.21,102.91 l 1,0.38 c 0,0 3,1.13 7.79,2.4 v 0 c 7.57,2 19.6,4.41 31.29,3.28 z m -30.72,-34.84 c -1.18,-0.05 -2.34,-0.13 -3.49,-0.21 -0.2,-0.9 -0.38,-1.82 -0.54,-2.74 l 3.5,0.24 c 0.16,0.9 0.34,1.82 0.53,2.7 z m -1.44,-9 c 0.1,0.92 0.22,1.82 0.34,2.71 l -3.52,-0.29 c -0.13,-0.9 -0.25,-1.81 -0.35,-2.73 1.17,0.15 2.35,0.24 3.53,0.33 z M 184,191 c -0.08,0.9 -0.14,1.79 -0.19,2.68 l -3.55,-0.46 c 0.05,-0.88 0.11,-1.78 0.19,-2.68 z m -3.23,-4.08 c 0.08,-0.89 0.17,-1.77 0.28,-2.67 l 3.55,0.48 c -0.11,0.9 -0.2,1.79 -0.28,2.67 z m 2.87,10.36 c 0,0.91 -0.06,1.81 -0.08,2.71 -1.14,-0.14 -2.34,-0.28 -3.54,-0.44 0,-0.89 0,-1.79 0.07,-2.7 1.2,0.15 2.38,0.3 3.54,0.43 z m -0.09,6.3 c 0,0.92 0,1.82 0.05,2.72 -1.17,-0.12 -2.35,-0.26 -3.55,-0.4 v 0 c 0,-0.89 0,-1.79 -0.05,-2.72 1.18,0.14 2.37,0.28 3.54,0.4 z m 0.2,6.3 c 0,0.92 0.11,1.83 0.18,2.72 -1.17,-0.11 -2.35,-0.22 -3.54,-0.35 -0.07,-0.9 -0.13,-1.81 -0.19,-2.73 z m 27.61,-101 c 1,0.28 2,0.58 3.07,0.91 -0.61,0.53 -1.37,1.24 -2.24,2.13 -1.08,-0.32 -2.12,-0.62 -3.15,-0.9 0.96,-0.89 1.72,-1.61 2.31,-2.1 z m -4.11,4 c 1,0.28 2.11,0.58 3.19,0.9 -0.61,0.68 -1.24,1.43 -1.91,2.26 -1.1,-0.32 -2.19,-0.6 -3.23,-0.88 0.7,-0.77 1.33,-1.53 1.94,-2.22 z m -3.51,4.24 c 1.08,0.27 2.17,0.55 3.28,0.86 -0.55,0.73 -1.11,1.51 -1.69,2.34 q -1.68,-0.45 -3.3,-0.84 c 0.58,-0.78 1.15,-1.56 1.7,-2.3 z m -3.06,4.37 c 1.08,0.26 2.19,0.54 3.32,0.84 -0.5,0.76 -1,1.55 -1.5,2.39 -1.14,-0.29 -2.26,-0.57 -3.35,-0.82 0.5,-0.78 1.01,-1.59 1.52,-2.35 z m -2.75,4.51 c 1.1,0.25 2.22,0.52 3.36,0.82 -0.44,0.78 -0.89,1.59 -1.33,2.44 -1.15,-0.3 -2.28,-0.56 -3.38,-0.82 0.42,-0.81 0.9,-1.62 1.35,-2.44 z m -2.44,4.55 c 1.12,0.24 2.24,0.51 3.4,0.79 -0.4,0.81 -0.79,1.63 -1.19,2.49 -1.16,-0.29 -2.3,-0.56 -3.41,-0.81 0.4,-0.82 0.8,-1.65 1.2,-2.44 z m -2.17,4.61 c 1.12,0.25 2.26,0.52 3.41,0.8 -0.35,0.81 -0.71,1.65 -1.06,2.51 -1.15,-0.29 -2.3,-0.56 -3.43,-0.8 0.36,-0.83 0.76,-1.67 1.08,-2.48 z m -2.4,5.83 c 1.16,0.24 2.31,0.49 3.47,0.75 -0.32,0.83 -0.62,1.67 -0.93,2.55 -1.15,-0.26 -2.31,-0.51 -3.46,-0.74 0.3,-0.84 0.62,-1.69 0.92,-2.55 z m -2.07,6 c 1.17,0.22 2.34,0.44 3.49,0.68 -0.27,0.84 -0.53,1.7 -0.8,2.58 -1.15,-0.24 -2.32,-0.45 -3.49,-0.67 0.26,-0.88 0.52,-1.74 0.8,-2.58 z m -2.32,8 c 0.17,-0.67 0.34,-1.32 0.52,-2 1.2,0.21 2.37,0.41 3.52,0.63 -0.17,0.61 -0.34,1.22 -0.49,1.85 -0.07,0.25 -0.14,0.51 -0.2,0.76 -1.15,-0.21 -2.32,-0.42 -3.51,-0.62 0.04,-0.15 0.1,-0.37 0.16,-0.61 z m -1,4.19 3.53,0.57 c -0.22,0.88 -0.42,1.76 -0.61,2.63 l -3.54,-0.57 c 0.16,-0.81 0.37,-1.71 0.59,-2.59 z m -1.4,6.21 c 1.22,0.17 2.4,0.36 3.55,0.53 -0.2,0.89 -0.37,1.77 -0.54,2.64 l -3.55,-0.52 c 0.14,-0.85 0.32,-1.73 0.51,-2.61 z m -1.22,6.25 3.55,0.52 c -0.17,0.89 -0.32,1.77 -0.46,2.65 l -3.54,-0.51 c 0.11,-0.85 0.26,-1.73 0.42,-2.62 z m -1,6.3 3.55,0.49 c -0.13,0.89 -0.25,1.78 -0.38,2.66 l -3.55,-0.49 c 0.06,-0.84 0.19,-1.73 0.32,-2.6 z m 3.78,-73.48 c 0.63,0 1.29,0 2,0.09 a 29.81,29.81 0 0 0 -3,2.61 c -0.71,0 -1.38,0 -2,0 a 31.29,31.29 0 0 1 2.94,-2.66 z m -4.69,4.42 1.95,0.07 c -0.73,0.77 -1.51,1.65 -2.32,2.65 -0.71,0 -1.36,0 -2,0 0.81,-1.04 1.6,-1.92 2.37,-2.72 z m -3.69,4.39 1.91,0.08 c -0.63,0.82 -1.28,1.7 -1.94,2.65 h -1.93 c 0.65,-1 1.29,-1.89 1.92,-2.73 z m -3.1,4.39 1.88,0.09 q -0.84,1.25 -1.68,2.64 l -1.88,-0.06 c 0.52,-0.94 1.09,-1.83 1.64,-2.67 z m -2.71,4.4 c 0.58,0 1.19,0.07 1.84,0.13 -0.48,0.83 -1,1.69 -1.44,2.59 l -1.85,-0.11 c 0.44,-0.9 0.95,-1.77 1.41,-2.61 z m -2.37,4.39 1.82,0.16 c -0.43,0.83 -0.86,1.7 -1.27,2.59 l -1.83,-0.15 c 0.39,-0.89 0.81,-1.76 1.24,-2.6 z m -2.13,4.43 1.81,0.19 c -0.37,0.83 -0.75,1.69 -1.12,2.58 -0.63,-0.07 -1.23,-0.12 -1.8,-0.17 0.32,-0.89 0.71,-1.76 1.11,-2.6 z m -2.58,6.12 1.8,0.19 c -0.32,0.85 -0.64,1.71 -0.95,2.6 l -1.8,-0.19 c 0.31,-0.86 0.64,-1.73 0.95,-2.6 z m -2.15,6.15 1.79,0.2 q -0.42,1.27 -0.81,2.61 l -1.79,-0.19 c 0.26,-0.88 0.54,-1.77 0.81,-2.6 z m -2.37,8.18 c 0.17,-0.68 0.35,-1.34 0.54,-2 l 1.78,0.21 c -0.18,0.67 -0.37,1.36 -0.55,2 0,0.19 -0.1,0.39 -0.14,0.58 l -1.79,-0.21 c 0.06,-0.14 0.1,-0.35 0.16,-0.56 z m -1,4.2 1.77,0.22 c -0.21,0.88 -0.42,1.77 -0.61,2.64 l -1.78,-0.22 c 0.16,-0.85 0.36,-1.74 0.59,-2.62 z m -1.41,6.22 1.79,0.23 c -0.2,0.88 -0.37,1.76 -0.55,2.64 l -1.78,-0.22 c 0.14,-0.86 0.33,-1.74 0.51,-2.63 z m -1.25,6.25 1.78,0.24 c -0.16,0.89 -0.32,1.77 -0.46,2.66 l -1.77,-0.25 c 0.14,-0.85 0.3,-1.74 0.45,-2.65 z m -1,6.27 1.78,0.25 c -0.14,0.89 -0.27,1.78 -0.39,2.66 l -1.77,-0.25 c 0.14,-0.85 0.22,-1.74 0.36,-2.64 z m -0.81,6.2 1.78,0.25 c -0.12,0.9 -0.21,1.79 -0.29,2.68 l -1.78,-0.26 c 0.07,-0.86 0.16,-1.76 0.27,-2.65 z m -0.59,6.21 c 0.56,0.1 1.16,0.18 1.77,0.27 -0.08,0.9 -0.14,1.8 -0.19,2.69 l -1.79,-0.27 c 0.04,-0.86 0.1,-1.76 0.19,-2.67 z m -0.37,6.25 1.78,0.28 c 0,0.91 -0.07,1.82 -0.09,2.72 -0.61,-0.11 -1.2,-0.2 -1.77,-0.28 0,-0.88 0.02,-1.79 0.06,-2.65 z m -0.1,6.28 1.77,0.3 c 0,0.92 0,1.83 0,2.74 l -1.78,-0.3 c 0.01,-0.89 -0.01,-1.8 -0.01,-2.72 z m 0.19,6.34 1.78,0.31 c 0.05,0.94 0.12,1.86 0.18,2.77 l -1.77,-0.32 c -0.1,-0.89 -0.16,-1.81 -0.21,-2.74 z m 0.54,6.41 1.78,0.33 c 0.11,1 0.23,1.89 0.36,2.81 l -1.79,-0.34 c -0.15,-0.9 -0.27,-1.83 -0.37,-2.76 z m 0.95,6.51 1.8,0.36 c 0.17,1 0.37,1.91 0.57,2.84 l -1.8,-0.34 c -0.22,-0.91 -0.41,-1.86 -0.62,-2.84 z m 1,4.7 1.82,0.42 c 0.24,1 0.5,2 0.77,2.92 l -1.82,-0.4 c -0.3,-0.95 -0.56,-1.92 -0.82,-2.92 z m 1.29,4.68 c 0.56,0.15 1.18,0.32 1.84,0.48 0.33,1 0.68,2.05 1,3 l -1.86,-0.47 c -0.32,-0.94 -0.69,-1.95 -1.01,-2.99 z m 1.66,4.75 1.89,0.54 c 0.45,1.09 0.9,2.15 1.4,3.17 l -1.91,-0.53 c -0.51,-1.03 -0.97,-2.08 -1.38,-3.18 z m 4.12,8.26 c -0.67,-1.08 -1.32,-2.21 -1.92,-3.41 l 2,0.61 c 0.61,1.18 1.27,2.32 2,3.4 -0.82,-0.21 -1.48,-0.4 -2.11,-0.6 z m 1.12,1.72 c 0.62,0.21 1.32,0.43 2.07,0.66 a 37,37 0 0 0 3,3.77 l -2.14,-0.65 a 39.6,39.6 0 0 1 -2.96,-3.78 z M 176,253.3 a 29,29 0 0 1 -6.93,-5 c 0.72,0.24 1.48,0.49 2.29,0.74 a 28.42,28.42 0 0 0 7.58,5 z m 6.82,-25.75 c 1.15,0.11 2.31,0.2 3.5,0.27 0.23,0.94 0.47,1.86 0.73,2.75 -1.18,-0.07 -2.34,-0.16 -3.49,-0.25 -0.25,-0.91 -0.5,-1.83 -0.73,-2.77 z m 1.55,5.37 c 1.16,0.12 2.32,0.23 3.5,0.32 0.31,0.95 0.64,1.87 1,2.77 -1.17,-0.08 -2.33,-0.18 -3.47,-0.29 -0.4,-0.91 -0.7,-1.84 -1.02,-2.8 z m 2.08,5.4 c 1.15,0.13 2.32,0.25 3.49,0.36 v 0 c 0.42,1 0.86,1.9 1.31,2.8 -1.16,-0.09 -2.31,-0.19 -3.46,-0.32 -0.45,-0.91 -0.9,-1.86 -1.33,-2.84 z m 2.8,5.46 c 1.15,0.15 2.32,0.28 3.49,0.39 0.59,1 1.2,2 1.85,2.86 -1.15,-0.08 -2.3,-0.18 -3.44,-0.31 -0.65,-0.93 -1.29,-1.92 -1.89,-2.94 z m 6.89,8.65 a 32.67,32.67 0 0 1 -2.93,-3.05 c 1.16,0.15 2.31,0.28 3.47,0.38 a 31.88,31.88 0 0 0 2.75,2.92 c -1.08,-0.06 -2.19,-0.14 -3.28,-0.25 z m 9.73,5.87 v 0 a 10.27,10.27 0 0 1 -1.13,-0.36 26.71,26.71 0 0 1 -5,-2.65 q 1.6,0.15 3.18,0.24 a 27.07,27.07 0 0 0 5,2.74 c -0.67,0.03 -1.35,0.04 -2.04,0.03 z"
       style="fill:#263238"
       id="path36" />
    <path
       d="m 216.43,260 a 14.14,14.14 0 0 1 -4.59,-1.06 c -21.71,-8.8 -32.66,-46.71 -18.21,-102.92 9.09,-35.36 26,-47 26,-47 -21.66,-8.07 -35.5,-4.91 -35.5,-4.91 0,0 -16.93,11.69 -26,47.05 -14.44,56.21 -3.5,94.12 18.21,102.91 l 1,0.38 c 0,0 3,1.13 7.79,2.4 v 0 c 7.57,2 19.6,4.41 31.29,3.28 z m -30.72,-34.84 c -1.18,-0.05 -2.34,-0.13 -3.49,-0.21 -0.2,-0.9 -0.38,-1.82 -0.54,-2.74 l 3.5,0.24 c 0.16,0.9 0.34,1.82 0.53,2.7 z m -1.44,-9 c 0.1,0.92 0.22,1.82 0.34,2.71 l -3.52,-0.29 c -0.13,-0.9 -0.25,-1.81 -0.35,-2.73 1.17,0.15 2.35,0.24 3.53,0.33 z M 184,191 c -0.08,0.9 -0.14,1.79 -0.19,2.68 l -3.55,-0.46 c 0.05,-0.88 0.11,-1.78 0.19,-2.68 z m -3.23,-4.08 c 0.08,-0.89 0.17,-1.77 0.28,-2.67 l 3.55,0.48 c -0.11,0.9 -0.2,1.79 -0.28,2.67 z m 2.87,10.36 c 0,0.91 -0.06,1.81 -0.08,2.71 -1.14,-0.14 -2.34,-0.28 -3.54,-0.44 0,-0.89 0,-1.79 0.07,-2.7 1.2,0.15 2.38,0.3 3.54,0.43 z m -0.09,6.3 c 0,0.92 0,1.82 0.05,2.72 -1.17,-0.12 -2.35,-0.26 -3.55,-0.4 v 0 c 0,-0.89 0,-1.79 -0.05,-2.72 1.18,0.14 2.37,0.28 3.54,0.4 z m 0.2,6.3 c 0,0.92 0.11,1.83 0.18,2.72 -1.17,-0.11 -2.35,-0.22 -3.54,-0.35 -0.07,-0.9 -0.13,-1.81 -0.19,-2.73 z m 27.61,-101 c 1,0.28 2,0.58 3.07,0.91 -0.61,0.53 -1.37,1.24 -2.24,2.13 -1.08,-0.32 -2.12,-0.62 -3.15,-0.9 0.96,-0.89 1.72,-1.61 2.31,-2.1 z m -4.11,4 c 1,0.28 2.11,0.58 3.19,0.9 -0.61,0.68 -1.24,1.43 -1.91,2.26 -1.1,-0.32 -2.19,-0.6 -3.23,-0.88 0.7,-0.77 1.33,-1.53 1.94,-2.22 z m -3.51,4.24 c 1.08,0.27 2.17,0.55 3.28,0.86 -0.55,0.73 -1.11,1.51 -1.69,2.34 q -1.68,-0.45 -3.3,-0.84 c 0.58,-0.78 1.15,-1.56 1.7,-2.3 z m -3.06,4.37 c 1.08,0.26 2.19,0.54 3.32,0.84 -0.5,0.76 -1,1.55 -1.5,2.39 -1.14,-0.29 -2.26,-0.57 -3.35,-0.82 0.5,-0.78 1.01,-1.59 1.52,-2.35 z m -2.75,4.51 c 1.1,0.25 2.22,0.52 3.36,0.82 -0.44,0.78 -0.89,1.59 -1.33,2.44 -1.15,-0.3 -2.28,-0.56 -3.38,-0.82 0.42,-0.81 0.9,-1.62 1.35,-2.44 z m -2.44,4.55 c 1.12,0.24 2.24,0.51 3.4,0.79 -0.4,0.81 -0.79,1.63 -1.19,2.49 -1.16,-0.29 -2.3,-0.56 -3.41,-0.81 0.4,-0.82 0.8,-1.65 1.2,-2.44 z m -2.17,4.61 c 1.12,0.25 2.26,0.52 3.41,0.8 -0.35,0.81 -0.71,1.65 -1.06,2.51 -1.15,-0.29 -2.3,-0.56 -3.43,-0.8 0.36,-0.83 0.76,-1.67 1.08,-2.48 z m -2.4,5.83 c 1.16,0.24 2.31,0.49 3.47,0.75 -0.32,0.83 -0.62,1.67 -0.93,2.55 -1.15,-0.26 -2.31,-0.51 -3.46,-0.74 0.3,-0.84 0.62,-1.69 0.92,-2.55 z m -2.07,6 c 1.17,0.22 2.34,0.44 3.49,0.68 -0.27,0.84 -0.53,1.7 -0.8,2.58 -1.15,-0.24 -2.32,-0.45 -3.49,-0.67 0.26,-0.88 0.52,-1.74 0.8,-2.58 z m -2.32,8 c 0.17,-0.67 0.34,-1.32 0.52,-2 1.2,0.21 2.37,0.41 3.52,0.63 -0.17,0.61 -0.34,1.22 -0.49,1.85 -0.07,0.25 -0.14,0.51 -0.2,0.76 -1.15,-0.21 -2.32,-0.42 -3.51,-0.62 0.04,-0.15 0.1,-0.37 0.16,-0.61 z m -1,4.19 3.53,0.57 c -0.22,0.88 -0.42,1.76 -0.61,2.63 l -3.54,-0.57 c 0.16,-0.81 0.37,-1.71 0.59,-2.59 z m -1.4,6.21 c 1.22,0.17 2.4,0.36 3.55,0.53 -0.2,0.89 -0.37,1.77 -0.54,2.64 l -3.55,-0.52 c 0.14,-0.85 0.32,-1.73 0.51,-2.61 z m -1.22,6.25 3.55,0.52 c -0.17,0.89 -0.32,1.77 -0.46,2.65 l -3.54,-0.51 c 0.11,-0.85 0.26,-1.73 0.42,-2.62 z m -1,6.3 3.55,0.49 c -0.13,0.89 -0.25,1.78 -0.38,2.66 l -3.55,-0.49 c 0.06,-0.84 0.19,-1.73 0.32,-2.6 z m 3.78,-73.48 c 0.63,0 1.29,0 2,0.09 a 29.81,29.81 0 0 0 -3,2.61 c -0.71,0 -1.38,0 -2,0 a 31.29,31.29 0 0 1 2.94,-2.66 z m -4.69,4.42 1.95,0.07 c -0.73,0.77 -1.51,1.65 -2.32,2.65 -0.71,0 -1.36,0 -2,0 0.81,-1.04 1.6,-1.92 2.37,-2.72 z m -3.69,4.39 1.91,0.08 c -0.63,0.82 -1.28,1.7 -1.94,2.65 h -1.93 c 0.65,-1 1.29,-1.89 1.92,-2.73 z m -3.1,4.39 1.88,0.09 q -0.84,1.25 -1.68,2.64 l -1.88,-0.06 c 0.52,-0.94 1.09,-1.83 1.64,-2.67 z m -2.71,4.4 c 0.58,0 1.19,0.07 1.84,0.13 -0.48,0.83 -1,1.69 -1.44,2.59 l -1.85,-0.11 c 0.44,-0.9 0.95,-1.77 1.41,-2.61 z m -2.37,4.39 1.82,0.16 c -0.43,0.83 -0.86,1.7 -1.27,2.59 l -1.83,-0.15 c 0.39,-0.89 0.81,-1.76 1.24,-2.6 z m -2.13,4.43 1.81,0.19 c -0.37,0.83 -0.75,1.69 -1.12,2.58 -0.63,-0.07 -1.23,-0.12 -1.8,-0.17 0.32,-0.89 0.71,-1.76 1.11,-2.6 z m -2.58,6.12 1.8,0.19 c -0.32,0.85 -0.64,1.71 -0.95,2.6 l -1.8,-0.19 c 0.31,-0.86 0.64,-1.73 0.95,-2.6 z m -2.15,6.15 1.79,0.2 q -0.42,1.27 -0.81,2.61 l -1.79,-0.19 c 0.26,-0.88 0.54,-1.77 0.81,-2.6 z m -2.37,8.18 c 0.17,-0.68 0.35,-1.34 0.54,-2 l 1.78,0.21 c -0.18,0.67 -0.37,1.36 -0.55,2 0,0.19 -0.1,0.39 -0.14,0.58 l -1.79,-0.21 c 0.06,-0.14 0.1,-0.35 0.16,-0.56 z m -1,4.2 1.77,0.22 c -0.21,0.88 -0.42,1.77 -0.61,2.64 l -1.78,-0.22 c 0.16,-0.85 0.36,-1.74 0.59,-2.62 z m -1.41,6.22 1.79,0.23 c -0.2,0.88 -0.37,1.76 -0.55,2.64 l -1.78,-0.22 c 0.14,-0.86 0.33,-1.74 0.51,-2.63 z m -1.25,6.25 1.78,0.24 c -0.16,0.89 -0.32,1.77 -0.46,2.66 l -1.77,-0.25 c 0.14,-0.85 0.3,-1.74 0.45,-2.65 z m -1,6.27 1.78,0.25 c -0.14,0.89 -0.27,1.78 -0.39,2.66 l -1.77,-0.25 c 0.14,-0.85 0.22,-1.74 0.36,-2.64 z m -0.81,6.2 1.78,0.25 c -0.12,0.9 -0.21,1.79 -0.29,2.68 l -1.78,-0.26 c 0.07,-0.86 0.16,-1.76 0.27,-2.65 z m -0.59,6.21 c 0.56,0.1 1.16,0.18 1.77,0.27 -0.08,0.9 -0.14,1.8 -0.19,2.69 l -1.79,-0.27 c 0.04,-0.86 0.1,-1.76 0.19,-2.67 z m -0.37,6.25 1.78,0.28 c 0,0.91 -0.07,1.82 -0.09,2.72 -0.61,-0.11 -1.2,-0.2 -1.77,-0.28 0,-0.88 0.02,-1.79 0.06,-2.65 z m -0.1,6.28 1.77,0.3 c 0,0.92 0,1.83 0,2.74 l -1.78,-0.3 c 0.01,-0.89 -0.01,-1.8 -0.01,-2.72 z m 0.19,6.34 1.78,0.31 c 0.05,0.94 0.12,1.86 0.18,2.77 l -1.77,-0.32 c -0.1,-0.89 -0.16,-1.81 -0.21,-2.74 z m 0.54,6.41 1.78,0.33 c 0.11,1 0.23,1.89 0.36,2.81 l -1.79,-0.34 c -0.15,-0.9 -0.27,-1.83 -0.37,-2.76 z m 0.95,6.51 1.8,0.36 c 0.17,1 0.37,1.91 0.57,2.84 l -1.8,-0.34 c -0.22,-0.91 -0.41,-1.86 -0.62,-2.84 z m 1,4.7 1.82,0.42 c 0.24,1 0.5,2 0.77,2.92 l -1.82,-0.4 c -0.3,-0.95 -0.56,-1.92 -0.82,-2.92 z m 1.29,4.68 c 0.56,0.15 1.18,0.32 1.84,0.48 0.33,1 0.68,2.05 1,3 l -1.86,-0.47 c -0.32,-0.94 -0.69,-1.95 -1.01,-2.99 z m 1.66,4.75 1.89,0.54 c 0.45,1.09 0.9,2.15 1.4,3.17 l -1.91,-0.53 c -0.51,-1.03 -0.97,-2.08 -1.38,-3.18 z m 4.12,8.26 c -0.67,-1.08 -1.32,-2.21 -1.92,-3.41 l 2,0.61 c 0.61,1.18 1.27,2.32 2,3.4 -0.82,-0.21 -1.48,-0.4 -2.11,-0.6 z m 1.12,1.72 c 0.62,0.21 1.32,0.43 2.07,0.66 a 37,37 0 0 0 3,3.77 l -2.14,-0.65 a 39.6,39.6 0 0 1 -2.96,-3.78 z M 176,253.3 a 29,29 0 0 1 -6.93,-5 c 0.72,0.24 1.48,0.49 2.29,0.74 a 28.42,28.42 0 0 0 7.58,5 z m 6.82,-25.75 c 1.15,0.11 2.31,0.2 3.5,0.27 0.23,0.94 0.47,1.86 0.73,2.75 -1.18,-0.07 -2.34,-0.16 -3.49,-0.25 -0.25,-0.91 -0.5,-1.83 -0.73,-2.77 z m 1.55,5.37 c 1.16,0.12 2.32,0.23 3.5,0.32 0.31,0.95 0.64,1.87 1,2.77 -1.17,-0.08 -2.33,-0.18 -3.47,-0.29 -0.4,-0.91 -0.7,-1.84 -1.02,-2.8 z m 2.08,5.4 c 1.15,0.13 2.32,0.25 3.49,0.36 v 0 c 0.42,1 0.86,1.9 1.31,2.8 -1.16,-0.09 -2.31,-0.19 -3.46,-0.32 -0.45,-0.91 -0.9,-1.86 -1.33,-2.84 z m 2.8,5.46 c 1.15,0.15 2.32,0.28 3.49,0.39 0.59,1 1.2,2 1.85,2.86 -1.15,-0.08 -2.3,-0.18 -3.44,-0.31 -0.65,-0.93 -1.29,-1.92 -1.89,-2.94 z m 6.89,8.65 a 32.67,32.67 0 0 1 -2.93,-3.05 c 1.16,0.15 2.31,0.28 3.47,0.38 a 31.88,31.88 0 0 0 2.75,2.92 c -1.08,-0.06 -2.19,-0.14 -3.28,-0.25 z m 9.73,5.87 v 0 a 10.27,10.27 0 0 1 -1.13,-0.36 26.71,26.71 0 0 1 -5,-2.65 q 1.6,0.15 3.18,0.24 a 27.07,27.07 0 0 0 5,2.74 c -0.67,0.03 -1.35,0.04 -2.04,0.03 z"
       style="opacity:0.2;fill:#fafafa"
       id="path37" />
    <path
       d="m 187.46,145.41 a 129.23,129.23 0 0 1 7,-16.58 183.37,183.37 0 0 0 -20.54,-3.21 118,118 0 0 0 -7.24,16 c 5.57,0.73 12.41,1.89 20.78,3.79 z"
       style="fill:#263238"
       id="path38" />
    <path
       d="m 165.47,145.13 a 157.56,157.56 0 0 0 -4.8,17.54 c 6,0.9 13.07,2.15 21.08,3.87 a 169.8,169.8 0 0 1 4.58,-17.7 211.12,211.12 0 0 0 -20.86,-3.71 z"
       style="fill:#263238"
       id="path39" />
    <path
       d="m 179.13,182.57 q 0.81,-6.57 1.93,-12.51 c -8,-1.71 -15.08,-3 -21.11,-3.85 -0.88,4.49 -1.63,9.24 -2.25,14.3 -0.17,1.42 -0.32,2.8 -0.45,4.17 7.51,1.57 14.87,2.79 21.26,3.71 0.17,-1.9 0.37,-3.83 0.62,-5.82 z"
       style="fill:#263238"
       id="path40" />
    <path
       d="m 196.25,125.52 a 90.31,90.31 0 0 1 10.93,-15.72 188.2,188.2 0 0 0 -19.41,-3.13 82,82 0 0 0 -11.86,15.52 193.42,193.42 0 0 1 20.34,3.33 z"
       style="fill:#263238"
       id="path41" />
    <path
       d="m 183.67,235 c -6.93,-1.1 -14.62,-2.51 -22.26,-4.29 a 46.75,46.75 0 0 0 14.2,20.16 c 7.12,1.44 14,2.57 20.06,3.42 a 59.83,59.83 0 0 1 -12,-19.29 z"
       style="fill:#263238"
       id="path42" />
    <path
       d="m 182.3,231.17 a 87.25,87.25 0 0 1 -3.76,-18 c -6.76,-1.06 -14.26,-2.43 -21.73,-4.14 a 82.65,82.65 0 0 0 3.19,17.69 c 7.59,1.84 15.28,3.28 22.3,4.45 z"
       style="fill:#263238"
       id="path43" />
    <path
       d="m 178.22,209.45 a 127.32,127.32 0 0 1 0,-17.48 c -6.39,-0.92 -13.76,-2.14 -21.3,-3.7 a 139.51,139.51 0 0 0 -0.35,17 c 7.43,1.73 14.88,3.1 21.65,4.18 z"
       style="fill:#263238"
       id="path44" />
    <path
       d="m 376.76,248 c -2.8,-39.16 -28.81,-69.21 -58.09,-67.12 -5.49,0.39 -22,3.57 -25.31,3.8 -29.29,2.1 -50.76,35.54 -48,74.7 2.76,39.16 28.81,69.22 58.09,67.13 5.49,-0.39 22,-3.57 25.31,-3.81 29.33,-2.12 50.8,-35.56 48,-74.7 z"
       style="fill:#263238"
       id="path45" />
    <ellipse
       cx="323.73999"
       cy="251.75999"
       rx="53.16"
       ry="71.089996"
       transform="rotate(-4.09,323.58639,251.58792)"
       style="opacity:0.2;fill:#fafafa"
       id="ellipse45" />
    <path
       d="m 324.55,316 v 0 l -1.42,-0.17 a 37.65,37.65 0 0 1 -12,-3.87 0.25,0.25 0 0 1 -0.11,-0.35 0.26,0.26 0 0 1 0.35,-0.12 36.93,36.93 0 0 0 11.84,3.82 c 0.47,0.06 0.93,0.12 1.4,0.16 a 0.27,0.27 0 0 1 0.24,0.29 0.26,0.26 0 0 1 -0.3,0.24 z m 20.22,-4.3 a 0.26,0.26 0 0 1 -0.23,-0.13 0.26,0.26 0 0 1 0.1,-0.36 c 0.61,-0.33 1.21,-0.69 1.8,-1.06 a 0.26,0.26 0 0 1 0.36,0.09 0.26,0.26 0 0 1 -0.08,0.36 c -0.6,0.37 -1.21,0.73 -1.82,1.07 a 0.31,0.31 0 0 1 -0.13,0 z m -38.06,-2.39 a 0.25,0.25 0 0 1 -0.15,0 c -0.58,-0.39 -1.16,-0.8 -1.72,-1.23 a 0.25,0.25 0 0 1 0,-0.36 0.26,0.26 0 0 1 0.36,-0.06 c 0.56,0.42 1.13,0.83 1.7,1.22 a 0.26,0.26 0 0 1 0.07,0.36 0.25,0.25 0 0 1 -0.26,0.04 z m 44.13,-1.73 a 0.26,0.26 0 0 1 -0.21,-0.1 0.27,0.27 0 0 1 0,-0.37 49,49 0 0 0 8.54,-9.11 0.27,0.27 0 0 1 0.43,0.31 50.14,50.14 0 0 1 -8.64,9.21 0.25,0.25 0 0 1 -0.12,0.03 z M 362.33,294 a 0.37,0.37 0 0 1 -0.14,0 0.26,0.26 0 0 1 -0.08,-0.36 73.74,73.74 0 0 0 9.71,-29.64 0.26,0.26 0 0 1 0.29,-0.23 0.25,0.25 0 0 1 0.23,0.29 74.16,74.16 0 0 1 -9.78,29.79 0.28,0.28 0 0 1 -0.23,0.15 z M 291,292.6 a 0.26,0.26 0 0 1 -0.22,-0.12 80.54,80.54 0 0 1 -11.09,-29.37 0.25,0.25 0 0 1 0.21,-0.3 0.26,0.26 0 0 1 0.3,0.21 79.94,79.94 0 0 0 11,29.18 0.25,0.25 0 0 1 -0.08,0.36 0.23,0.23 0 0 1 -0.12,0.04 z m -11.79,-34.47 a 0.27,0.27 0 0 1 -0.26,-0.23 c -0.12,-1.13 -0.23,-2.28 -0.31,-3.42 -0.15,-2.14 -0.23,-4.31 -0.23,-6.44 0,-0.92 0,-1.84 0,-2.75 a 0.28,0.28 0 0 1 0.27,-0.26 0.27,0.27 0 0 1 0.26,0.27 c 0,0.91 -0.05,1.82 -0.05,2.74 0,2.12 0.08,4.27 0.23,6.4 0.09,1.14 0.19,2.28 0.31,3.4 a 0.25,0.25 0 0 1 -0.23,0.29 z M 372,243.38 a 0.26,0.26 0 0 1 -0.26,-0.23 c -0.09,-0.69 -0.18,-1.38 -0.29,-2.07 a 0.26305893,0.26305893 0 0 1 0.52,-0.08 c 0.1,0.69 0.2,1.39 0.29,2.09 a 0.27,0.27 0 0 1 -0.23,0.29 z m -93,-3.06 v 0 a 0.27,0.27 0 0 1 -0.24,-0.28 c 0.07,-0.71 0.14,-1.41 0.22,-2.1 a 0.27,0.27 0 0 1 0.29,-0.23 0.26,0.26 0 0 1 0.23,0.29 c -0.08,0.69 -0.15,1.39 -0.21,2.08 a 0.27,0.27 0 0 1 -0.29,0.24 z m 91.73,-4.18 a 0.28,0.28 0 0 1 -0.26,-0.21 83.39,83.39 0 0 0 -3.51,-12 0.26277367,0.26277367 0 1 1 0.49,-0.19 84.49,84.49 0 0 1 3.55,12.08 0.26,0.26 0 0 1 -0.2,0.31 z m -5.54,-16.93 a 0.25,0.25 0 0 1 -0.23,-0.15 c -4.69,-10.32 -11.26,-18.8 -19,-24.53 a 0.26100766,0.26100766 0 1 1 0.31,-0.42 c 7.82,5.78 14.45,14.33 19.17,24.73 a 0.27,0.27 0 0 1 -0.13,0.35 z m -80.87,-1.28 h -0.1 a 0.27,0.27 0 0 1 -0.15,-0.35 c 4.36,-10.75 10.88,-19.35 18.86,-24.86 a 0.26,0.26 0 0 1 0.36,0.07 0.27,0.27 0 0 1 -0.07,0.37 c -7.89,5.45 -14.34,14 -18.66,24.62 a 0.26,0.26 0 0 1 -0.24,0.15 z m 23.26,-27.43 a 0.27,0.27 0 0 1 -0.24,-0.14 0.26,0.26 0 0 1 0.12,-0.35 35.16,35.16 0 0 1 12.06,-3.67 0.26172505,0.26172505 0 1 1 0.06,0.52 34.9,34.9 0 0 0 -11.88,3.61 0.27,0.27 0 0 1 -0.12,0.03 z m 19.31,-3.69 v 0 c -0.69,-0.07 -1.39,-0.12 -2.08,-0.14 a 0.27,0.27 0 0 1 0,-0.53 c 0.7,0 1.42,0.08 2.11,0.15 a 0.26,0.26 0 0 1 0.24,0.29 0.27,0.27 0 0 1 -0.27,0.23 z"
       style="fill:#263238"
       id="path46" />
    <path
       d="m 327,309.84 v 0 a 28.42,28.42 0 0 1 -3.08,-0.25 32.51,32.51 0 0 1 -11.88,-4.22 0.27,0.27 0 0 1 -0.1,-0.36 0.26,0.26 0 0 1 0.36,-0.1 31.81,31.81 0 0 0 11.7,4.16 27.53,27.53 0 0 0 3,0.25 0.26,0.26 0 0 1 0.26,0.27 0.27,0.27 0 0 1 -0.26,0.25 z m 5.23,-0.35 a 0.26,0.26 0 0 1 0,-0.52 c 9.07,-1.47 17.49,-7.62 23.71,-17.31 l 0.54,-0.86 a 0.25,0.25 0 0 1 0.36,-0.09 0.26,0.26 0 0 1 0.09,0.36 c -0.18,0.3 -0.37,0.59 -0.55,0.88 -6.3,9.81 -14.85,16 -24.07,17.54 z m -24.4,-7 a 0.33,0.33 0 0 1 -0.16,-0.05 c -0.55,-0.43 -1.1,-0.88 -1.63,-1.34 a 0.26248809,0.26248809 0 0 1 0.34,-0.4 c 0.53,0.46 1.07,0.9 1.61,1.32 a 0.26,0.26 0 0 1 0.05,0.37 0.25,0.25 0 0 1 -0.17,0.06 z M 293.49,284.6 a 0.27,0.27 0 0 1 -0.23,-0.14 78.19,78.19 0 0 1 -8.39,-30.24 0.27,0.27 0 0 1 0.24,-0.28 0.27,0.27 0 0 1 0.28,0.24 77.74,77.74 0 0 0 8.34,30 0.27,0.27 0 0 1 -0.11,0.35 0.28,0.28 0 0 1 -0.13,0.07 z m 71,-12.8 h -0.06 a 0.25,0.25 0 0 1 -0.19,-0.32 c 0.15,-0.67 0.3,-1.36 0.43,-2 a 0.26476405,0.26476405 0 1 1 0.52,0.1 c -0.14,0.69 -0.29,1.38 -0.44,2.06 a 0.28,0.28 0 0 1 -0.28,0.16 z m 1.27,-7.24 v 0 a 0.27,0.27 0 0 1 -0.23,-0.3 80.55,80.55 0 0 0 0.62,-10 c 0,-0.83 0,-1.67 0,-2.52 a 0.27,0.27 0 0 1 0.26,-0.27 0.28,0.28 0 0 1 0.27,0.26 c 0,0.85 0,1.69 0,2.53 a 79.88,79.88 0 0 1 -0.63,10.08 0.26,0.26 0 0 1 -0.31,0.22 z m -80.83,-15.34 a 0.25,0.25 0 0 1 -0.26,-0.26 c 0,-0.33 0,-0.65 0,-1 a 81.09,81.09 0 0 1 0.83,-11.62 0.26305893,0.26305893 0 1 1 0.52,0.08 80,80 0 0 0 -0.83,11.54 c 0,0.32 0,0.65 0,1 a 0.26,0.26 0 0 1 -0.26,0.26 z M 366,246.75 a 0.27,0.27 0 0 1 -0.26,-0.24 76.63,76.63 0 0 0 -8.93,-29.85 0.26,0.26 0 0 1 0.1,-0.36 0.27,0.27 0 0 1 0.36,0.11 77.27,77.27 0 0 1 9,30.05 0.27,0.27 0 0 1 -0.24,0.29 z M 286.67,231.5 h -0.06 a 0.28,0.28 0 0 1 -0.2,-0.32 c 0.15,-0.69 0.31,-1.37 0.48,-2.05 a 0.26,0.26 0 0 1 0.32,-0.19 0.27,0.27 0 0 1 0.19,0.32 c -0.17,0.67 -0.33,1.35 -0.48,2 a 0.25,0.25 0 0 1 -0.25,0.24 z m 8.68,-21.26 a 0.33,0.33 0 0 1 -0.14,0 0.26,0.26 0 0 1 -0.08,-0.37 c 6.62,-10.11 15.62,-16.25 25.34,-17.29 a 0.27,0.27 0 0 1 0,0.53 c -9.56,1 -18.42,7.07 -24.95,17.05 a 0.25,0.25 0 0 1 -0.17,0.08 z m 48.48,-9.59 a 0.27,0.27 0 0 1 -0.17,-0.06 c -0.55,-0.43 -1.1,-0.86 -1.66,-1.26 a 0.26,0.26 0 0 1 -0.06,-0.36 0.26,0.26 0 0 1 0.37,-0.06 c 0.56,0.4 1.12,0.83 1.68,1.27 a 0.27,0.27 0 0 1 0,0.37 0.25,0.25 0 0 1 -0.16,0.1 z m -6.12,-4 a 0.31,0.31 0 0 1 -0.13,0 31.22,31.22 0 0 0 -10.34,-3.41 c -0.51,-0.07 -1,-0.12 -1.53,-0.17 a 0.26,0.26 0 0 1 -0.24,-0.28 0.27,0.27 0 0 1 0.29,-0.24 c 0.51,0 1,0.1 1.55,0.17 a 32,32 0 0 1 10.52,3.46 0.27,0.27 0 0 1 -0.12,0.5 z"
       style="fill:#263238"
       id="path47" />
    <path
       d="m 325.15,303.42 v 0 h -0.3 a 26.72,26.72 0 0 1 -11.65,-4.77 0.27,0.27 0 0 1 -0.07,-0.37 0.25,0.25 0 0 1 0.36,-0.06 26.23,26.23 0 0 0 11.43,4.68 h 0.29 a 0.26,0.26 0 0 1 0.23,0.3 0.27,0.27 0 0 1 -0.29,0.22 z m 19.14,-6.8 a 0.25,0.25 0 0 1 -0.19,-0.09 0.26,0.26 0 0 1 0,-0.37 c 0.5,-0.45 1,-0.94 1.49,-1.45 a 0.27,0.27 0 0 1 0.37,0 0.28,0.28 0 0 1 0,0.38 c -0.5,0.51 -1,1 -1.52,1.47 a 0.24,0.24 0 0 1 -0.15,0.06 z m -35,-1.28 a 0.25,0.25 0 0 1 -0.18,-0.08 c -0.5,-0.47 -1,-1 -1.51,-1.48 a 0.26172505,0.26172505 0 0 1 0.38,-0.36 c 0.49,0.51 1,1 1.49,1.46 a 0.27,0.27 0 0 1 0,0.37 0.25,0.25 0 0 1 -0.22,0.09 z m 39.93,-4.19 a 0.33,0.33 0 0 1 -0.16,0 0.27,0.27 0 0 1 0,-0.37 c 0.57,-0.78 1.14,-1.61 1.69,-2.45 a 53.71,53.71 0 0 0 4.39,-8.47 0.26,0.26 0 0 1 0.34,-0.15 0.27,0.27 0 0 1 0.14,0.35 53.88,53.88 0 0 1 -4.43,8.55 c -0.55,0.86 -1.13,1.69 -1.71,2.48 a 0.26,0.26 0 0 1 -0.3,0.06 z m -52.6,-14.92 a 0.26,0.26 0 0 1 -0.25,-0.16 73.91,73.91 0 0 1 -5.22,-22.48 c -0.13,-1.87 -0.2,-3.77 -0.2,-5.63 0,-0.93 0,-1.87 0,-2.79 0,-0.15 0.1,-0.28 0.27,-0.26 a 0.27,0.27 0 0 1 0.26,0.27 c 0,0.93 -0.05,1.86 -0.05,2.78 0,1.85 0.06,3.73 0.2,5.59 a 73.15,73.15 0 0 0 5.18,22.32 0.26,0.26 0 0 1 -0.14,0.34 0.2,0.2 0 0 1 -0.09,0.02 z m 60.49,-1 H 357 a 0.26,0.26 0 0 1 -0.17,-0.33 69.38,69.38 0 0 0 3,-20.62 c 0,-1.85 -0.07,-3.72 -0.2,-5.58 -0.12,-1.61 -0.29,-3.25 -0.51,-4.85 a 0.26234519,0.26234519 0 0 1 0.52,-0.07 c 0.23,1.61 0.4,3.26 0.51,4.88 0.14,1.87 0.2,3.76 0.2,5.62 a 70.06,70.06 0 0 1 -3,20.77 0.26,0.26 0 0 1 -0.28,0.18 z m -65.47,-35 v 0 a 0.26,0.26 0 0 1 -0.23,-0.29 67.71,67.71 0 0 1 2.49,-12.38 0.24,0.24 0 0 1 0.32,-0.17 0.26,0.26 0 0 1 0.18,0.32 67.57,67.57 0 0 0 -2.54,12.29 0.26,0.26 0 0 1 -0.26,0.2 z m 62,-16.23 a 0.25,0.25 0 0 1 -0.24,-0.15 c -0.3,-0.64 -0.6,-1.27 -0.91,-1.89 a 0.26162951,0.26162951 0 1 1 0.47,-0.23 c 0.31,0.62 0.62,1.26 0.91,1.9 a 0.26,0.26 0 0 1 -0.12,0.35 z m -57.76,-1.05 h -0.1 a 0.27,0.27 0 0 1 -0.15,-0.34 c 0.27,-0.66 0.54,-1.31 0.83,-1.95 a 0.25,0.25 0 0 1 0.34,-0.13 0.27,0.27 0 0 1 0.13,0.35 q -0.42,0.94 -0.81,1.92 a 0.27,0.27 0 0 1 -0.3,0.12 z m 54.3,-5.43 a 0.27,0.27 0 0 1 -0.23,-0.12 48.85,48.85 0 0 0 -7.79,-9.77 0.26172505,0.26172505 0 1 1 0.36,-0.38 49.17,49.17 0 0 1 7.88,9.87 0.26,0.26 0 0 1 -0.09,0.36 0.22,0.22 0 0 1 -0.19,0.01 z m -41.05,-13.16 a 0.25,0.25 0 0 1 -0.21,-0.1 0.26,0.26 0 0 1 0.05,-0.37 24.1,24.1 0 0 1 13,-5.15 22.51,22.51 0 0 1 4.56,0.16 27,27 0 0 1 11.95,5 0.27,0.27 0 0 1 0.06,0.37 0.28,0.28 0 0 1 -0.37,0.06 26.39,26.39 0 0 0 -11.71,-4.9 21.45,21.45 0 0 0 -4.45,-0.14 23.54,23.54 0 0 0 -12.7,5 0.25,0.25 0 0 1 -0.24,0.04 z"
       style="fill:#263238"
       id="path48" />
    <path
       d="m 327.55,297.31 v 0 a 16.83,16.83 0 0 1 -1.87,-0.15 22.05,22.05 0 0 1 -11.29,-5.51 0.26,0.26 0 0 1 0,-0.37 0.27,0.27 0 0 1 0.37,0 21.55,21.55 0 0 0 11,5.39 15.75,15.75 0 0 0 1.81,0.14 0.25,0.25 0 0 1 0.25,0.27 0.26,0.26 0 0 1 -0.27,0.23 z m 5.16,-0.81 a 0.27,0.27 0 0 1 -0.25,-0.18 0.26,0.26 0 0 1 0.17,-0.33 c 4.69,-1.58 9.1,-5.42 12.75,-11.1 a 49.27,49.27 0 0 0 5.72,-12.74 0.26,0.26 0 0 1 0.32,-0.18 0.27,0.27 0 0 1 0.18,0.33 49.6,49.6 0 0 1 -5.78,12.87 c -3.72,5.79 -8.22,9.7 -13,11.32 z M 310.85,288 a 0.25,0.25 0 0 1 -0.19,-0.09 c -0.46,-0.53 -0.91,-1.08 -1.34,-1.64 a 0.26,0.26 0 0 1 0,-0.36 0.27,0.27 0 0 1 0.37,0 c 0.43,0.56 0.88,1.1 1.32,1.61 a 0.26,0.26 0 0 1 0,0.37 0.24,0.24 0 0 1 -0.16,0.11 z m -10.63,-20.32 a 0.26,0.26 0 0 1 -0.25,-0.19 67.77,67.77 0 0 1 -2.6,-14.35 c -0.12,-1.74 -0.19,-3.49 -0.19,-5.2 a 67.47,67.47 0 0 1 1,-11.74 0.29,0.29 0 0 1 0.31,-0.21 0.27,0.27 0 0 1 0.21,0.31 66.24,66.24 0 0 0 -1,11.64 c 0,1.7 0.06,3.44 0.18,5.16 a 67.59,67.59 0 0 0 2.59,14.25 0.26,0.26 0 0 1 -0.18,0.32 z m 53.55,-16 a 0.28,0.28 0 0 1 -0.27,-0.26 c 0,-0.69 -0.06,-1.39 -0.11,-2.09 a 0.27,0.27 0 0 1 0.24,-0.28 0.26,0.26 0 0 1 0.28,0.25 q 0.07,1.05 0.12,2.1 a 0.27,0.27 0 0 1 -0.25,0.28 z m -0.68,-7.32 a 0.26,0.26 0 0 1 -0.26,-0.22 67.66,67.66 0 0 0 -3,-12.18 0.26,0.26 0 1 1 0.49,-0.17 67,67 0 0 1 3,12.27 0.27,0.27 0 0 1 -0.22,0.3 z m -53.5,-13 h -0.07 a 0.26,0.26 0 0 1 -0.18,-0.32 51.27,51.27 0 0 1 4.7,-11.72 0.26,0.26 0 0 1 0.35,-0.11 0.26,0.26 0 0 1 0.1,0.36 51.4,51.4 0 0 0 -4.65,11.61 0.26,0.26 0 0 1 -0.25,0.21 z m 48.6,-4.08 a 0.26,0.26 0 0 1 -0.24,-0.16 c -5.18,-11.67 -13.15,-19.65 -21.31,-21.36 a 0.26086395,0.26086395 0 1 1 0.11,-0.51 c 8.32,1.74 16.43,9.83 21.68,21.66 a 0.25,0.25 0 0 1 -0.13,0.34 z m -41.09,-12 a 0.3,0.3 0 0 1 -0.16,-0.05 0.27,0.27 0 0 1 -0.06,-0.37 c 0.43,-0.58 0.87,-1.14 1.31,-1.66 a 0.27,0.27 0 0 1 0.37,0 0.26,0.26 0 0 1 0,0.37 c -0.43,0.52 -0.86,1.07 -1.28,1.64 a 0.26,0.26 0 0 1 -0.18,0.1 z"
       style="fill:#263238"
       id="path49" />
    <path
       d="m 326.57,291 v 0 c -3.42,-0.47 -7.19,-2.83 -10.63,-6.64 a 0.26201145,0.26201145 0 1 1 0.39,-0.35 c 3.36,3.71 7,6 10.31,6.47 a 0.26,0.26 0 0 1 0.22,0.29 0.27,0.27 0 0 1 -0.29,0.23 z m -13.69,-10.69 a 0.26,0.26 0 0 1 -0.22,-0.12 c -0.38,-0.57 -0.77,-1.17 -1.14,-1.78 a 0.26239284,0.26239284 0 1 1 0.45,-0.27 c 0.37,0.6 0.74,1.19 1.13,1.76 a 0.26,0.26 0 0 1 -0.07,0.36 0.3,0.3 0 0 1 -0.15,0 z m 28.84,-0.72 h -0.12 a 0.27,0.27 0 0 1 -0.11,-0.36 c 0.33,-0.6 0.65,-1.22 0.95,-1.85 a 0.27,0.27 0 0 1 0.35,-0.13 0.28,0.28 0 0 1 0.13,0.36 c -0.31,0.64 -0.64,1.27 -1,1.87 a 0.27,0.27 0 0 1 -0.2,0.06 z m 2.95,-6.72 h -0.09 a 0.26,0.26 0 0 1 -0.16,-0.34 53.83,53.83 0 0 0 2.58,-12.29 0.26,0.26 0 0 1 0.28,-0.24 0.27,0.27 0 0 1 0.24,0.29 54.34,54.34 0 0 1 -2.61,12.35 0.27,0.27 0 0 1 -0.24,0.18 z M 304.6,258.88 a 0.27,0.27 0 0 1 -0.26,-0.22 c -0.33,-2 -0.57,-4 -0.71,-6 -0.12,-1.59 -0.18,-3.2 -0.18,-4.77 a 56.13,56.13 0 0 1 3.64,-20.4 0.27,0.27 0 0 1 0.34,-0.15 0.26,0.26 0 0 1 0.15,0.34 55.56,55.56 0 0 0 -3.6,20.21 c 0,1.56 0.06,3.15 0.17,4.74 0.14,2 0.38,4 0.71,5.91 a 0.25,0.25 0 0 1 -0.21,0.3 z m 42.95,-3.59 v 0 a 0.27,0.27 0 0 1 -0.26,-0.27 c 0,-0.24 0,-0.47 0,-0.71 0,-1.55 -0.06,-3.14 -0.17,-4.73 a 58,58 0 0 0 -7.34,-24.58 0.26,0.26 0 0 1 0.1,-0.36 0.25,0.25 0 0 1 0.35,0.1 58.6,58.6 0 0 1 7.41,24.85 c 0.11,1.59 0.17,3.2 0.17,4.76 V 255 a 0.26,0.26 0 0 1 -0.26,0.29 z m -38,-32.17 h -0.12 a 0.26,0.26 0 0 1 -0.11,-0.35 c 0.35,-0.64 0.72,-1.27 1.09,-1.88 a 24.74,24.74 0 0 1 7.09,-7.71 0.27,0.27 0 0 1 0.37,0.08 0.26,0.26 0 0 1 -0.08,0.36 24,24 0 0 0 -6.93,7.55 c -0.37,0.59 -0.73,1.22 -1.08,1.85 a 0.25,0.25 0 0 1 -0.23,0.1 z M 324.6,211.8 v 0 a 8.44,8.44 0 0 0 -1.74,-0.05 h -0.29 a 0.27,0.27 0 1 1 0,-0.53 h 0.3 a 8.81,8.81 0 0 1 1.85,0.05 0.26,0.26 0 0 1 0,0.52 z"
       style="fill:#263238"
       id="path50" />
    <path
       d="m 397.29,246 c -3.44,-48.16 -35.42,-85.11 -71.43,-82.53 -1.21,0.08 -2.41,0.22 -3.6,0.39 h -0.08 c -36,2.58 -62.41,43.7 -59,91.86 3.41,48.16 35.43,85.11 71.44,82.54 1.21,-0.09 2.41,-0.22 3.59,-0.4 h 0.08 c 36.04,-2.59 62.45,-43.72 59,-91.86 z m -11.41,1.17 c 0.72,10.35 -4.38,19.31 -11.71,21.31 -7.95,-0.39 -14.76,-8.83 -15.51,-19.62 -0.71,-10.35 4.39,-19.31 11.72,-21.3 7.95,0.37 14.75,8.8 15.5,19.59 z M 353,182.85 c 7.75,5.29 11.08,17.79 7.44,27.91 -2.08,5.75 -5.95,9.49 -10.34,10.69 a 13,13 0 0 1 -6.63,-2.34 c -7.75,-5.29 -11.08,-17.78 -7.43,-27.9 2.07,-5.75 6,-9.5 10.33,-10.69 a 12.86,12.86 0 0 1 6.63,2.33 z m -28.19,82 a 4.69,4.69 0 0 1 0.1,-2.78 3.63,3.63 0 0 1 0.39,-0.79 4.55,4.55 0 0 1 0.89,4.56 4.15,4.15 0 0 1 -0.39,0.79 3.92,3.92 0 0 1 -1.01,-1.78 z m 3,-13.9 a 6.18,6.18 0 0 1 2,-5.29 6.07,6.07 0 0 1 2.93,5.07 6.2,6.2 0 0 1 -2,5.29 6.1,6.1 0 0 1 -2.95,-5.02 z m 7.93,-14.12 a 4.77,4.77 0 0 1 -0.1,2.78 4.15,4.15 0 0 1 -0.39,0.79 4.55,4.55 0 0 1 -0.89,-4.56 3.87,3.87 0 0 1 0.39,-0.79 4,4 0 0 1 0.97,1.78 z m -61.1,17.7 c -0.71,-10.35 4.39,-19.31 11.72,-21.31 8,0.39 14.75,8.83 15.5,19.62 0.72,10.35 -4.38,19.31 -11.71,21.3 -7.97,-0.39 -14.78,-8.82 -15.53,-19.61 z m 32.9,64.3 c -7.75,-5.29 -11.08,-17.79 -7.43,-27.91 2.07,-5.75 6,-9.49 10.34,-10.69 a 13,13 0 0 1 6.63,2.34 c 7.75,5.29 11.08,17.78 7.43,27.9 -2.07,5.76 -5.95,9.5 -10.34,10.69 a 12.92,12.92 0 0 1 -6.65,-2.33 z m 16.63,-82.15 a 4.81,4.81 0 0 1 0.48,2.74 4,4 0 0 1 -0.62,1.73 3.3,3.3 0 0 1 -0.63,-0.86 4.65,4.65 0 0 1 -0.48,-2.74 4,4 0 0 1 0.62,-1.73 3.54,3.54 0 0 1 0.61,0.86 z m -4.06,14.92 a 4.28,4.28 0 0 1 -0.64,2.65 4.47,4.47 0 0 1 -0.5,-5.32 4.22,4.22 0 0 1 1.12,2.67 z m -3.77,-58.91 c 5,9.53 3.44,22.36 -3.51,28.64 a 13,13 0 0 1 -5.33,3 c -4.84,-0.24 -9.61,-3.47 -12.65,-9.26 -5,-9.54 -3.44,-22.36 3.51,-28.65 a 13.2,13.2 0 0 1 5.33,-3 c 4.82,0.25 9.59,3.47 12.63,9.27 z m 20,72.32 a 4.62,4.62 0 0 1 0.14,-4.48 3.54,3.54 0 0 1 0.63,0.86 4.65,4.65 0 0 1 0.48,2.74 4,4 0 0 1 -0.62,1.73 3.68,3.68 0 0 1 -0.61,-0.86 z m 4.06,-14.93 a 4.36,4.36 0 0 1 0.63,-2.65 4.16,4.16 0 0 1 1.14,2.68 4.38,4.38 0 0 1 -0.63,2.65 4.16,4.16 0 0 1 -1.12,-2.68 z m 3.78,58.92 c -5,-9.53 -3.43,-22.36 3.52,-28.64 a 13,13 0 0 1 5.33,-3 c 4.83,0.24 9.6,3.47 12.65,9.26 5,9.54 3.43,22.36 -3.52,28.65 a 13.08,13.08 0 0 1 -5.33,3 C 352,318 347.23,314.79 344.18,309 Z"
       style="fill:#30a7f5"
       id="path51" />
    <path
       d="m 325.86,163.45 c -36,2.57 -62.42,43.7 -59,91.85 3.42,48.15 35.42,85.11 71.43,82.54 36.01,-2.57 62.42,-43.7 59,-91.86 -3.42,-48.16 -35.42,-85.11 -71.43,-82.53 z M 336,191.21 c 3.64,-10.13 12.88,-14 20.64,-8.75 7.76,5.25 11.08,17.78 7.43,27.9 -3.65,10.12 -12.89,14 -20.64,8.75 -7.75,-5.25 -11.06,-17.78 -7.43,-27.9 z m 9.85,58.5 c 0.14,2 -1,3.72 -2.47,3.83 v 0 c -1.5,0.1 -2.83,-1.45 -3,-3.46 -0.17,-2.01 1,-3.72 2.46,-3.83 1.46,-0.11 2.89,1.45 3.03,3.46 z m -11.53,-13.87 a 2.71,2.71 0 0 1 2.22,-2 2.28,2.28 0 0 1 1.42,0.41 3.77,3.77 0 0 1 1.41,2.15 4.7,4.7 0 0 1 -0.1,2.78 2.7,2.7 0 0 1 -2.22,1.95 2.16,2.16 0 0 1 -1.42,-0.41 4.4,4.4 0 0 1 -1.29,-4.88 z m -6.52,0.44 a 4.66,4.66 0 0 1 0.48,2.74 3.69,3.69 0 0 1 -1.1,2.31 2.19,2.19 0 0 1 -1.34,0.6 2.72,2.72 0 0 1 -2.48,-1.64 4.65,4.65 0 0 1 -0.48,-2.74 3.69,3.69 0 0 1 1.1,-2.31 2.22,2.22 0 0 1 1.33,-0.6 2.72,2.72 0 0 1 2.51,1.64 z M 298.34,186.4 c 7,-6.28 16.65,-3.65 21.66,5.89 5.01,9.54 3.43,22.36 -3.52,28.64 -6.95,6.28 -16.64,3.65 -21.65,-5.88 -5.01,-9.53 -3.44,-22.36 3.51,-28.65 z m 25.42,64.81 c 0.14,2 -1,3.72 -2.46,3.82 v 0 c -1.5,0.11 -2.84,-1.45 -3,-3.46 -0.16,-2.01 1,-3.72 2.47,-3.82 1.47,-0.1 2.85,1.45 2.99,3.46 z m -49.13,3.32 c -0.8,-11.41 5.48,-21.12 14,-21.7 8.52,-0.58 16.08,8.2 16.88,19.61 0.8,11.41 -5.49,21.12 -14,21.7 -8.51,0.58 -16.09,-8.2 -16.88,-19.61 z m 53.53,55.55 c -3.64,10.12 -12.88,14 -20.64,8.75 -7.76,-5.25 -11.08,-17.79 -7.43,-27.91 3.65,-10.12 12.89,-14 20.64,-8.75 7.75,5.25 11.08,17.83 7.43,27.91 z m 1.68,-44.63 a 2.72,2.72 0 0 1 -2.22,1.95 2.23,2.23 0 0 1 -1.42,-0.41 3.71,3.71 0 0 1 -1.41,-2.14 4.69,4.69 0 0 1 0.1,-2.78 2.71,2.71 0 0 1 2.22,-2 2.28,2.28 0 0 1 1.42,0.41 4.41,4.41 0 0 1 1.31,4.97 z m -2,-14.5 c -0.22,-3.17 1.52,-5.88 3.89,-6 2.37,-0.12 4.48,2.26 4.71,5.44 0.23,3.18 -1.52,5.88 -3.89,6 -2.37,0.12 -4.55,-2.27 -4.76,-5.39 z m 8.52,14.05 a 4.42,4.42 0 0 1 0.64,-5 2.25,2.25 0 0 1 1.34,-0.6 2.72,2.72 0 0 1 2.46,1.6 4.66,4.66 0 0 1 0.48,2.74 3.64,3.64 0 0 1 -1.1,2.31 2.19,2.19 0 0 1 -1.33,0.6 2.73,2.73 0 0 1 -2.49,-1.65 z m 29.48,49.87 c -6.95,6.29 -16.65,3.65 -21.66,-5.89 -5.01,-9.54 -3.43,-22.36 3.52,-28.64 6.95,-6.28 16.64,-3.65 21.65,5.89 5.01,9.54 3.44,22.37 -3.51,28.65 z m 9.7,-46.43 c -8.53,0.58 -16.08,-8.2 -16.88,-19.61 -0.8,-11.41 5.49,-21.12 14,-21.69 8.51,-0.57 16.08,8.2 16.87,19.6 0.79,11.4 -5.46,21.13 -13.99,21.71 z"
       style="opacity:0.2;fill:#fafafa"
       id="path52" />
  </g>
  <g
     id="freepik--Plant--inject-78"
     transform="translate(0,-55)">
    <path
       d="m 409,389.21 c 0,0 -1.28,-14 -8.17,-18.86 -4.88,-3.42 -1.7,6 -1.7,6 0,0 -7.13,-9.55 -11.13,-7.04 -4,2.51 7,12.09 7,12.09 0,0 -4.15,-3.25 -4.35,1 -0.2,4.25 13.61,9.37 18.35,6.81 z"
       style="fill:#30a7f5"
       id="path53" />
    <path
       d="m 409,389.21 c 0,0 -1.28,-14 -8.17,-18.86 -4.88,-3.42 -1.7,6 -1.7,6 0,0 -7.13,-9.55 -11.13,-7.04 -4,2.51 7,12.09 7,12.09 0,0 -4.15,-3.25 -4.35,1 -0.2,4.25 13.61,9.37 18.35,6.81 z"
       style="opacity:0.2;fill:#ffffff"
       id="path54" />
    <path
       d="m 408.79,396.52 c -0.08,-0.13 -8.65,-13.37 -1.25,-31.18 7.4,-17.81 13.61,-36.95 8.41,-54.76 l 1,-0.28 c 5.28,18.11 -0.94,37.34 -8.45,55.42 -7.18,17.3 1.08,30.12 1.17,30.25 z"
       style="fill:#30a7f5"
       id="path55" />
    <path
       d="m 407.25,389.21 c 0,0 -1.84,-7.91 2.31,-14 4.15,-6.09 3.17,1.39 3.17,1.39 0,0 5.14,-8 10.08,-9.74 4.94,-1.74 -1,7.37 -1,7.37 a 2.32,2.32 0 0 1 3.57,1 c 1.39,2.52 -5.38,12.19 -18.13,13.98 z"
       style="fill:#30a7f5"
       id="path56" />
    <path
       d="m 407.25,389.21 c 0,0 -1.84,-7.91 2.31,-14 4.15,-6.09 3.17,1.39 3.17,1.39 0,0 5.14,-8 10.08,-9.74 4.94,-1.74 -1,7.37 -1,7.37 a 2.32,2.32 0 0 1 3.57,1 c 1.39,2.52 -5.38,12.19 -18.13,13.98 z"
       style="opacity:0.4;fill:#ffffff"
       id="path57" />
    <path
       d="m 387.16,398.51 c 0,10.39 -4.58,18.82 18.82,18.82 20.8,0 18.82,-8.43 18.82,-18.82 0,-10.39 -8.43,-13.33 -18.82,-13.33 -10.39,0 -18.82,2.94 -18.82,13.33 z"
       style="fill:#263238"
       id="path58" />
    <rect
       x="385.12"
       y="384.98001"
       width="41.66"
       height="10.31"
       transform="rotate(180,405.95,390.135)"
       style="fill:#263238"
       id="rect58" />
    <rect
       x="385.12"
       y="384.98001"
       width="41.66"
       height="10.31"
       transform="rotate(180,405.95,390.135)"
       style="opacity:0.2;isolation:isolate;fill:#ffffff"
       id="rect59" />
    <path
       d="m 408.79,363.64 -0.2,-0.48 c -2.65,-6.39 -2.5,-14.83 -2.49,-15.19 h 1 c 0,0.09 -0.15,8.16 2.22,14.3 2.35,-1.1 12.76,-6.12 15.62,-10 l 0.8,0.59 c -3.37,4.55 -15.95,10.27 -16.48,10.51 z"
       style="fill:#30a7f5"
       id="path59" />
    <path
       d="m 417.11,336.69 -0.21,-0.7 a 21.54,21.54 0 0 0 -7.28,-10.27 l 0.59,-0.82 a 22.51,22.51 0 0 1 7.43,10.1 c 2.22,-1.79 10.31,-8.51 11.84,-12.38 l 0.93,0.37 c -1.87,4.72 -12.28,12.9 -12.72,13.25 z"
       style="fill:#30a7f5"
       id="path60" />
    <path
       d="m 417.93,317.61 c 0,0 0.41,-3.28 -4.36,-6.71 -4.77,-3.43 -5.85,-8.29 -3,-10.34 2.85,-2.05 -2.33,-6.17 1.18,-7 3.51,-0.83 1.83,5.6 4.84,5.26 3.01,-0.34 6.01,7.9 1.34,18.79 z"
       style="fill:#30a7f5"
       id="path61" />
    <path
       d="m 425.48,328.64 a 18.16,18.16 0 0 0 0.69,-8.07 c -0.68,-4.2 3.29,-6.89 4.87,-3.32 1.58,3.57 5,-1.39 6.53,3.16 1.53,4.55 -6.42,4.95 -5.55,7.17 0.87,2.22 -6.54,1.06 -6.54,1.06 z"
       style="fill:#30a7f5"
       id="path62" />
    <path
       d="m 414,329.36 c 0,0 -2.56,-10.14 -4,-11.28 -1.44,-1.14 -1.32,1.92 -3.71,0.17 -2.39,-1.75 -6.31,-2.84 -5.83,0.95 0.48,3.79 7.26,4.85 4.79,6.88 -2.47,2.03 7.22,1.12 8.75,3.28 z"
       style="fill:#30a7f5"
       id="path63" />
    <path
       d="m 407,354.3 c 0,0 6.06,-5.7 4,-7 -2.06,-1.3 -2.11,1.49 -2.64,-1.43 -0.53,-2.92 0.13,-6.23 -2.8,-5.75 -2.93,0.48 -0.54,7.73 -2.36,7.61 -1.82,-0.12 -4.13,-2.32 -3.78,0.61 0.35,2.93 7.58,5.96 7.58,5.96 z"
       style="fill:#30a7f5"
       id="path64" />
    <path
       d="m 418.68,358.27 c 0,0 3.28,-5.85 3.22,-9.24 -0.06,-3.39 4.09,-4.82 3.77,-0.62 -0.32,4.2 4.51,-4.53 6.49,-2.25 1.98,2.28 1,7.42 -2.45,8.39 -3.45,0.97 0.91,2.35 -0.59,4.56 -1.5,2.21 -10.44,-0.84 -10.44,-0.84 z"
       style="fill:#30a7f5"
       id="path65" />
    <g
       style="opacity:0.2"
       id="g70">
      <path
         d="m 417.93,317.61 c 0,0 0.41,-3.28 -4.36,-6.71 -4.77,-3.43 -5.85,-8.29 -3,-10.34 2.85,-2.05 -2.33,-6.17 1.18,-7 3.51,-0.83 1.83,5.6 4.84,5.26 3.01,-0.34 6.01,7.9 1.34,18.79 z"
         style="fill:#ffffff"
         id="path66" />
      <path
         d="m 425.48,328.64 a 18.16,18.16 0 0 0 0.69,-8.07 c -0.68,-4.2 3.29,-6.89 4.87,-3.32 1.58,3.57 5,-1.39 6.53,3.16 1.53,4.55 -6.42,4.95 -5.55,7.17 0.87,2.22 -6.54,1.06 -6.54,1.06 z"
         style="fill:#ffffff"
         id="path67" />
      <path
         d="m 414,329.36 c 0,0 -2.56,-10.14 -4,-11.28 -1.44,-1.14 -1.32,1.92 -3.71,0.17 -2.39,-1.75 -6.31,-2.84 -5.83,0.95 0.48,3.79 7.26,4.85 4.79,6.88 -2.47,2.03 7.22,1.12 8.75,3.28 z"
         style="fill:#ffffff"
         id="path68" />
      <path
         d="m 407,354.3 c 0,0 6.06,-5.7 4,-7 -2.06,-1.3 -2.11,1.49 -2.64,-1.43 -0.53,-2.92 0.13,-6.23 -2.8,-5.75 -2.93,0.48 -0.54,7.73 -2.36,7.61 -1.82,-0.12 -4.13,-2.32 -3.78,0.61 0.35,2.93 7.58,5.96 7.58,5.96 z"
         style="fill:#ffffff"
         id="path69" />
      <path
         d="m 418.68,358.27 c 0,0 3.28,-5.85 3.22,-9.24 -0.06,-3.39 4.09,-4.82 3.77,-0.62 -0.32,4.2 4.51,-4.53 6.49,-2.25 1.98,2.28 1,7.42 -2.45,8.39 -3.45,0.97 0.91,2.35 -0.59,4.56 -1.5,2.21 -10.44,-0.84 -10.44,-0.84 z"
         style="fill:#ffffff"
         id="path70" />
    </g>
  </g>
  <g
     id="freepik--Character--inject-78"
     transform="translate(0,-55)">
    <path
       d="m 105.22,202.7 -1.91,1.57 c -0.66,0.54 -1.31,1.1 -1.94,1.66 -1.26,1.11 -2.49,2.25 -3.56,3.4 a 17.89,17.89 0 0 0 -2.5,3.21 5.57,5.57 0 0 0 -0.3,0.55 c -0.05,0.09 0,0.12 -0.08,0.18 v -0.06 a 0.43,0.43 0 0 0 0,-0.16 0.65,0.65 0 0 0 0,-0.21 c -0.11,-0.38 0,0.16 0.22,0.67 a 22,22 0 0 0 2.57,3.81 c 1.06,1.33 2.25,2.65 3.45,4 2.43,2.63 5,5.26 7.6,7.84 l -3.15,4.25 a 80,80 0 0 1 -9.68,-6.41 57.25,57.25 0 0 1 -4.53,-3.84 27.8,27.8 0 0 1 -4.31,-5 13.44,13.44 0 0 1 -1,-1.83 9.16,9.16 0 0 1 -0.74,-2.69 8.76,8.76 0 0 1 -0.05,-0.91 v -0.51 -0.25 -0.15 c 0.06,-0.4 0.11,-0.83 0.2,-1.19 a 14.63,14.63 0 0 1 0.63,-2.08 23.88,23.88 0 0 1 3.66,-6.06 43.49,43.49 0 0 1 4.36,-4.49 c 0.75,-0.69 1.51,-1.36 2.29,-2 0.78,-0.64 1.54,-1.23 2.49,-1.89 z"
       style="fill:#ffc3bd"
       id="path71" />
    <path
       d="m 118.57,191.2 c 0.31,6.33 -13.48,15.51 -13.48,15.51 l -12.48,-9.37 a 27.1,27.1 0 0 1 9.94,-9.64 c 7.38,-4.29 15.7,-2.98 16.02,3.5 z"
       style="fill:#30a7f5"
       id="path72" />
    <path
       d="m 118.57,191.2 c 0.13,2.66 -2.23,5.83 -5,8.61 a 62.64,62.64 0 0 1 -6.68,5.65 c -1.08,0.78 -1.78,1.26 -1.78,1.26 l -9.39,-7.06 -3.08,-2.32 c 0,0 0.09,-0.17 0.27,-0.47 a 28,28 0 0 1 9.66,-9.17 c 7.37,-4.3 15.68,-2.97 16,3.5 z"
       style="opacity:0.6;fill:#fafafa"
       id="path73" />
    <polygon
       points="104.43,209.25 91.28,198.03 92.61,195.82 106.78,206.71 "
       style="fill:#30a7f5"
       id="polygon73" />
    <path
       d="m 113.55,199.81 a 62.64,62.64 0 0 1 -6.68,5.65 c -0.4,-4.45 2.22,-9.64 2.22,-9.64 a 19.51,19.51 0 0 1 4.46,3.99 z"
       style="opacity:0.2"
       id="path74" />
    <path
       d="m 108.74,229.15 c 0,0 3.92,5.56 3.33,7.83 a 34.89,34.89 0 0 1 -2.59,5.93 l -6.37,0.76 2.12,-5.56 0.36,-5.44 z"
       style="fill:#ffc3bd"
       id="path75" />
    <polygon
       points="91.41,394.72 84.96,393.33 78.49,407.55 84.94,408.94 "
       style="fill:#ffc3bd"
       id="polygon75" />
    <polygon
       points="134.13,395.33 127.54,395.33 126.88,410.6 133.47,410.6 "
       style="fill:#ffc3bd"
       id="polygon76" />
    <polygon
       points="127.19,403.2 127.53,395.34 134.13,395.34 133.79,403.2 "
       style="opacity:0.2"
       id="polygon77" />
    <polygon
       points="88.07,402.06 81.62,400.66 84.96,393.33 91.41,394.73 "
       style="opacity:0.2"
       id="polygon78" />
    <path
       d="m 131.6,242.91 c 0,0 0,0.29 -0.12,0.82 -0.12,0.53 -0.23,1.48 -0.39,2.63 -1.26,8.29 -4.58,30 -7.62,47.54 -1.25,7.17 -2.45,13.66 -3.46,18.26 -4.5,20.68 -28.62,89 -28.62,89 l -11.8,-2.55 c 0,0 16.87,-55.67 20.64,-84.61 2.44,-18.65 6.86,-56.18 8.21,-67.68 0.13,-1.15 0.23,-2 0.3,-2.63 0.07,-0.63 0.1,-0.82 0.1,-0.82 z"
       style="fill:#263238"
       id="path78" />
    <path
       d="m 131.6,242.91 c 0,0 0,0.29 -0.12,0.82 -0.12,0.53 -0.23,1.48 -0.39,2.63 -1.26,8.29 -4.58,30 -7.62,47.54 -1.25,7.17 -2.45,13.66 -3.46,18.26 -4.5,20.68 -28.62,89 -28.62,89 l -11.8,-2.55 c 0,0 16.87,-55.67 20.64,-84.61 2.44,-18.65 6.86,-56.18 8.21,-67.68 0.13,-1.15 0.23,-2 0.3,-2.63 0.07,-0.63 0.1,-0.82 0.1,-0.82 z"
       style="opacity:0.2;fill:#fafafa"
       id="path79" />
    <path
       d="m 126.87,260.86 c -8.65,1.7 -7.74,34 -6.7,50.55 2.5,-11.73 6.15,-34.3 8.65,-50.32 a 3,3 0 0 0 -1.95,-0.23 z"
       style="opacity:0.3"
       id="path80" />
    <path
       d="m 144.3,312.3 c -0.75,20.91 -8.05,89.38 -8.05,89.38 h -11.17 c 0,0 -0.41,-67.25 -0.91,-87.79 -0.12,-5.45 -0.39,-12.48 -0.7,-20 v 0 c -0.79,-18.29 -1.91,-39.41 -2.36,-47.54 0,-1.15 -0.1,-2 -0.13,-2.63 -0.03,-0.63 0,-0.82 0,-0.82 h 23.18 c 0,0 0,0.29 0,0.82 0,0.53 0,1.48 0,2.63 0.2,11.53 0.74,49.05 0.14,65.95 z"
       style="fill:#263238"
       id="path81" />
    <path
       d="m 144.3,312.3 c -0.75,20.91 -8.05,89.38 -8.05,89.38 h -11.17 c 0,0 -0.41,-67.25 -0.91,-87.79 -0.12,-5.45 -0.39,-12.48 -0.7,-20 v 0 c -0.79,-18.29 -1.91,-39.41 -2.36,-47.54 0,-1.15 -0.1,-2 -0.13,-2.63 -0.03,-0.63 0,-0.82 0,-0.82 h 23.18 c 0,0 0,0.29 0,0.82 0,0.53 0,1.48 0,2.63 0.2,11.53 0.74,49.05 0.14,65.95 z"
       style="opacity:0.2;fill:#fafafa"
       id="path82" />
    <path
       d="m 134.91,159.89 c 0.11,0.52 0.47,0.89 0.81,0.82 0.34,-0.07 0.53,-0.55 0.43,-1.07 -0.1,-0.52 -0.47,-0.89 -0.81,-0.82 -0.34,0.07 -0.53,0.55 -0.43,1.07 z"
       style="fill:#263238"
       id="path83" />
    <path
       d="m 135.33,160.79 a 19.22,19.22 0 0 0 3.4,4 3,3 0 0 1 -2.39,1 z"
       style="fill:#ed847e"
       id="path84" />
    <path
       d="m 132.42,157.39 a 0.29,0.29 0 0 1 -0.21,-0.09 0.3,0.3 0 0 1 0,-0.44 3.08,3.08 0 0 1 2.66,-1 0.31,0.31 0 0 1 -0.11,0.61 v 0 a 2.49,2.49 0 0 0 -2.09,0.85 0.34,0.34 0 0 1 -0.25,0.07 z"
       style="fill:#263238"
       id="path85" />
    <path
       d="m 120.07,167.22 c 1,4.82 1.89,13.66 -1.48,16.88 0,0 1.31,4.89 10.28,4.89 9.85,0 4.7,-4.89 4.7,-4.89 -5.37,-1.28 -5.23,-5.27 -4.3,-9 z"
       style="fill:#ffc3bd"
       id="path86" />
    <path
       d="m 116.64,185 c -0.72,-1.34 -1.51,-2.87 0.13,-3.35 1.8,-0.53 13.4,-1.51 16.81,-0.52 -1.05,1.87 0.72,4.15 0.72,4.15 z"
       style="fill:#30a7f5"
       id="path87" />
    <path
       d="m 87.45,409.83 a 2.14,2.14 0 0 0 1.64,-0.09 0.63,0.63 0 0 0 0.15,-0.72 0.71,0.71 0 0 0 -0.4,-0.46 c -0.89,-0.43 -2.94,0.4 -3,0.44 a 0.15,0.15 0 0 0 -0.1,0.14 0.16,0.16 0 0 0 0.09,0.15 8,8 0 0 0 1.62,0.54 z m 1.07,-1.05 a 0.48,0.48 0 0 1 0.18,0.06 0.39,0.39 0 0 1 0.24,0.26 c 0.08,0.29 0,0.37 0,0.4 -0.36,0.3 -1.67,0 -2.6,-0.34 a 5,5 0 0 1 2.18,-0.38 z"
       style="fill:#30a7f5"
       id="path88" />
    <path
       d="m 85.84,409.3 h 0.08 c 0.74,-0.21 2.34,-1.35 2.36,-2.09 a 0.53,0.53 0 0 0 -0.4,-0.51 0.84,0.84 0 0 0 -0.69,0.06 c -0.88,0.45 -1.44,2.27 -1.46,2.35 a 0.14,0.14 0 0 0 0,0.15 0.18,0.18 0 0 0 0.11,0.04 z m 1.87,-2.3 h 0.07 c 0.19,0.06 0.19,0.16 0.19,0.2 0,0.44 -1.07,1.33 -1.84,1.69 a 3.72,3.72 0 0 1 1.2,-1.86 0.57,0.57 0 0 1 0.38,-0.03 z"
       style="fill:#30a7f5"
       id="path89" />
    <path
       d="m 136.12,410.94 c 0.85,0 1.66,-0.12 1.94,-0.5 a 0.59,0.59 0 0 0 0,-0.68 0.78,0.78 0 0 0 -0.49,-0.37 c -1.1,-0.3 -3.4,1 -3.5,1.07 a 0.16,0.16 0 0 0 -0.08,0.16 0.16,0.16 0 0 0 0.13,0.13 10.87,10.87 0 0 0 2,0.19 z m 1,-1.28 a 1.39,1.39 0 0 1 0.3,0 0.46,0.46 0 0 1 0.3,0.22 c 0.11,0.2 0.07,0.29 0,0.35 -0.3,0.42 -2,0.43 -3.2,0.26 a 7.23,7.23 0 0 1 2.65,-0.83 z"
       style="fill:#30a7f5"
       id="path90" />
    <path
       d="m 134.13,410.75 h 0.06 c 0.8,-0.36 2.37,-1.78 2.25,-2.53 0,-0.17 -0.15,-0.39 -0.58,-0.43 a 1.09,1.09 0 0 0 -0.86,0.26 4.51,4.51 0 0 0 -1,2.54 0.18,0.18 0 0 0 0.07,0.15 z m 1.61,-2.67 h 0.09 c 0.28,0 0.3,0.14 0.31,0.17 0.07,0.45 -1,1.57 -1.81,2.06 a 3.55,3.55 0 0 1 0.87,-2 0.8,0.8 0 0 1 0.54,-0.23 z"
       style="fill:#30a7f5"
       id="path91" />
    <path
       d="m 85.56,408.29 -7.24,-1.56 a 0.57,0.57 0 0 0 -0.65,0.32 l -2.51,5.45 a 1,1 0 0 0 0.7,1.35 c 2.53,0.5 3.79,0.62 7,1.31 2,0.42 6.38,1.5 9.08,2.09 2.7,0.59 3.64,-2 2.58,-2.5 -4.73,-2.16 -6.7,-4.06 -8,-5.83 a 1.65,1.65 0 0 0 -0.96,-0.63 z"
       style="fill:#263238"
       id="path92" />
    <path
       d="m 133.43,409.84 h -7.2 a 0.57,0.57 0 0 0 -0.56,0.45 l -1.3,5.86 a 1,1 0 0 0 0.94,1.17 c 2.6,-0.05 6.35,-0.2 9.62,-0.2 3.81,0 7.11,0.21 11.59,0.21 2.7,0 3.45,-2.74 2.32,-3 -5.16,-1.13 -9.37,-1.25 -13.82,-4 a 3.06,3.06 0 0 0 -1.59,-0.49 z"
       style="fill:#263238"
       id="path93" />
    <path
       d="m 143.71,185.93 c 0,0 7,7.92 0.4,57 h -35.27 c -0.24,-5.41 3.16,-31.82 -2.06,-57.32 a 92.69,92.69 0 0 1 11.81,-1.49 129,129 0 0 1 15,0 66.39,66.39 0 0 1 10.12,1.81 z"
       style="fill:#30a7f5"
       id="path94" />
    <path
       d="m 146.94,209.25 a 282.59,282.59 0 0 1 -2.83,33.66 h -35.27 c -0.24,-5.41 3.17,-31.81 -2.06,-57.32 a 92.39,92.39 0 0 1 11.81,-1.49 129.16,129.16 0 0 1 15,0 65.29,65.29 0 0 1 10.14,1.83 c 0,0 1.32,1.49 2.28,7.22 a 92.94,92.94 0 0 1 0.93,16.1 z"
       style="opacity:0.6;fill:#fafafa"
       id="path95" />
    <path
       d="m 146.94,209.25 c -2.95,-3.1 -8.08,-9.3 -7.64,-14.5 l 6.7,-1.6 a 92.94,92.94 0 0 1 0.94,16.1 z"
       style="opacity:0.2"
       id="path96" />
    <path
       d="m 117.31,162.32 c 1.69,6.32 2.36,10.1 6.26,12.73 5.87,4 13.17,-0.58 13.4,-7.28 0.21,-6 -2.6,-15.35 -9.38,-16.62 a 8.92,8.92 0 0 0 -10.28,11.17 z"
       style="fill:#ffc3bd"
       id="path97" />
    <path
       d="m 120.21,172.63 c 2.69,1.53 12.49,-3.61 10.47,-11.4 0,0 3.74,-4.48 3.31,-9.44 -0.43,-4.96 -3.82,-6.84 -7.43,-5.77 -3.19,0.93 -3.1,2.68 -3.1,2.68 0,0 -15.06,1.77 -11.85,7.9 -6.13,6.68 5.25,14.11 8.6,16.03 z"
       style="fill:#263238"
       id="path98" />
    <path
       d="m 128.06,162.59 a 7.43,7.43 0 0 0 2.66,3.93 c 1.72,1.28 3,0 2.88,-1.92 -0.11,-1.75 -1.14,-4.52 -3,-5 -1.86,-0.48 -3.03,1.09 -2.54,2.99 z"
       style="fill:#ffc3bd"
       id="path99" />
    <path
       d="m 94.22,397.28 c 0,0 -2.2,4.26 -2.2,4.26 l -13.28,-2.87 1.12,-4 z"
       style="fill:#30a7f5"
       id="path100" />
    <path
       d="m 138.4,397.23 c 0,0 -0.63,4.64 -0.63,4.64 h -13.59 l -0.37,-4.14 z"
       style="fill:#30a7f5"
       id="path101" />
    <path
       d="m 141.25,189.35 c 1.87,-0.59 3.95,-1.23 5.9,-1.92 1.95,-0.69 4,-1.39 5.91,-2.13 a 92.61,92.61 0 0 0 11.19,-5 44.62,44.62 0 0 0 9.39,-7.11 116.53,116.53 0 0 0 8.58,-9.16 l 4.54,2.71 a 61.34,61.34 0 0 1 -7.06,11.84 49.3,49.3 0 0 1 -4.66,5.32 c -0.85,0.86 -1.77,1.67 -2.71,2.47 -0.94,0.8 -2,1.58 -3,2.2 a 59.84,59.84 0 0 1 -6.06,3.59 c -2.05,1.1 -4.14,2.05 -6.24,3 -2.1,0.95 -4.22,1.73 -6.36,2.48 -2.14,0.75 -4.25,1.45 -6.59,2 z"
       style="fill:#ffc3bd"
       id="path102" />
    <path
       d="m 140.81,200.64 c 6.33,6.51 22.21,-2.37 22.21,-2.37 L 158.3,183 a 85.8,85.8 0 0 0 -16.51,2.1 c -9.79,2.39 -5.79,10.58 -0.98,15.54 z"
       style="fill:#30a7f5"
       id="path103" />
    <path
       d="m 140.81,200.64 c 6.33,6.51 22.21,-2.37 22.21,-2.37 L 158.3,183 a 85.8,85.8 0 0 0 -16.51,2.1 c -9.79,2.39 -5.79,10.58 -0.98,15.54 z"
       style="opacity:0.6;fill:#fafafa"
       id="path104" />
    <path
       d="m 181.76,164.82 4.12,-7.14 5.59,4.55 c 0,0 -2.18,5.4 -7,5.34 z"
       style="fill:#ffc3bd"
       id="path105" />
    <polygon
       points="191.42,162.34 185.88,157.68 188.86,156.12 194.18,158.96 "
       style="fill:#ffc3bd"
       id="polygon105" />
    <path
       d="m 94.22,397.28 c 0,0 -2.2,4.26 -2.2,4.26 l -13.28,-2.87 1.12,-4 z"
       style="opacity:0.6;fill:#fafafa"
       id="path106" />
    <path
       d="m 138.4,397.23 c 0,0 -0.63,4.64 -0.63,4.64 h -13.59 l -0.37,-4.14 z"
       style="opacity:0.6;fill:#fafafa"
       id="path107" />
    <polygon
       points="164.19,198.69 158.97,182.05 156.71,182.6 161.19,201.2 "
       style="fill:#30a7f5"
       id="polygon107" />
    <rect
       x="113.09"
       y="243.73"
       width="12.32"
       height="2.6300001"
       style="fill:#263238"
       id="rect107" />
    <rect
       x="127.03"
       y="243.73"
       width="11.44"
       height="2.6300001"
       style="fill:#263238"
       id="rect108" />
    <path
       d="m 112,243.73 v 2.63 h -3.57 c 0.13,-1.15 0.23,-2 0.3,-2.63 z"
       style="fill:#263238"
       id="path108" />
    <path
       d="m 144.17,246.36 h -4.59 v -2.63 h 4.54 c 0.02,0.59 0.03,1.48 0.05,2.63 z"
       style="fill:#263238"
       id="path109" />
    <path
       d="m 133.61,146.73 c -5.66,-5.74 -11.09,2.1 -11.09,2.1 l 9.59,-0.93 c 4.42,2.23 2.36,7.65 2.36,7.65 0,0 3.76,-4.13 -0.86,-8.82 z"
       style="fill:#263238"
       id="path110" />
  </g>
</svg>
